Onest-Regular.ufo
<glyph name="exclam" format="2">
  <advance width="273"/>
  <unicode hex="0021"/>
  <outline>
    <contour>
      <point x="99" y="220" type="line"/>
      <point x="87" y="707" type="line"/>
      <point x="184" y="707" type="line"/>
      <point x="172" y="220" type="line"/>
    </contour>
    <contour>
      <point x="136" y="112" type="curve" smooth="yes"/>
      <point x="169" y="112"/>
      <point x="196" y="87"/>
      <point x="196" y="52" type="curve" smooth="yes"/>
      <point x="196" y="17"/>
      <point x="169" y="-8"/>
      <point x="136" y="-8" type="curve" smooth="yes"/>
      <point x="101" y="-8"/>
      <point x="77" y="17"/>
      <point x="77" y="52" type="curve" smooth="yes"/>
      <point x="77" y="87"/>
      <point x="101" y="112"/>
    </contour>
  </outline>
</glyph>
<glyph name="quotedbl" format="2">
  <advance width="359"/>
  <unicode hex="0022"/>
  <outline>
    <contour>
      <point x="134" y="471" type="line"/>
      <point x="72" y="471" type="line"/>
      <point x="59" y="707" type="line"/>
      <point x="147" y="707" type="line"/>
    </contour>
    <contour>
      <point x="287" y="471" type="line"/>
      <point x="225" y="471" type="line"/>
      <point x="212" y="707" type="line"/>
      <point x="300" y="707" type="line"/>
    </contour>
  </outline>
</glyph>
<glyph name="numbersign" format="2">
  <advance width="653"/>
  <unicode hex="0023"/>
  <outline>
    <contour>
      <point x="193" y="527" type="line"/>
      <point x="211" y="707" type="line"/>
      <point x="296" y="707" type="line"/>
      <point x="277" y="527" type="line"/>
      <point x="413" y="527" type="line"/>
      <point x="433" y="707" type="line"/>
      <point x="517" y="707" type="line"/>
      <point x="498" y="527" type="line"/>
      <point x="594" y="527" type="line"/>
      <point x="594" y="448" type="line"/>
      <point x="489" y="448" type="line"/>
      <point x="469" y="259" type="line"/>
      <point x="565" y="259" type="line"/>
      <point x="565" y="179" type="line"/>
      <point x="460" y="179" type="line"/>
      <point x="441" y="0" type="line"/>
      <point x="357" y="0" type="line"/>
      <point x="376" y="179" type="line"/>
      <point x="239" y="179" type="line"/>
      <point x="220" y="0" type="line"/>
      <point x="135" y="0" type="line"/>
      <point x="155" y="179" type="line"/>
      <point x="59" y="179" type="line"/>
      <point x="59" y="259" type="line"/>
      <point x="163" y="259" type="line"/>
      <point x="184" y="448" type="line"/>
      <point x="88" y="448" type="line"/>
      <point x="88" y="527" type="line"/>
    </contour>
    <contour>
      <point x="247" y="259" type="line"/>
      <point x="384" y="259" type="line"/>
      <point x="405" y="448" type="line"/>
      <point x="268" y="448" type="line"/>
    </contour>
  </outline>
</glyph>
<glyph name="dollar" format="2">
  <advance width="656"/>
  <unicode hex="0024"/>
  <outline>
    <contour>
      <point x="296" y="844" type="line"/>
      <point x="384" y="844" type="line"/>
      <point x="384" y="712" type="line"/>
      <point x="490" y="701"/>
      <point x="571" y="641"/>
      <point x="576" y="526" type="curve"/>
      <point x="491" y="526" type="line"/>
      <point x="480" y="609"/>
      <point x="410" y="636"/>
      <point x="334" y="636" type="curve" smooth="yes"/>
      <point x="259" y="636"/>
      <point x="174" y="613"/>
      <point x="174" y="525" type="curve" smooth="yes"/>
      <point x="174" y="472"/>
      <point x="205" y="441"/>
      <point x="245" y="424" type="curve" smooth="yes"/>
      <point x="309" y="397"/>
      <point x="393" y="388"/>
      <point x="462" y="366" type="curve" smooth="yes"/>
      <point x="545" y="340"/>
      <point x="596" y="290"/>
      <point x="596" y="199" type="curve" smooth="yes"/>
      <point x="596" y="63"/>
      <point x="499" y="1"/>
      <point x="378" y="-7" type="curve"/>
      <point x="378" y="-138" type="line"/>
      <point x="291" y="-138" type="line"/>
      <point x="291" y="-5" type="line"/>
      <point x="179" y="6"/>
      <point x="83" y="62"/>
      <point x="59" y="185" type="curve"/>
      <point x="150" y="185" type="line"/>
      <point x="177" y="94"/>
      <point x="267" y="71"/>
      <point x="350" y="71" type="curve" smooth="yes"/>
      <point x="431" y="71"/>
      <point x="507" y="104"/>
      <point x="507" y="187" type="curve" smooth="yes"/>
      <point x="507" y="250"/>
      <point x="471" y="275"/>
      <point x="415" y="292" type="curve" smooth="yes"/>
      <point x="340" y="315"/>
      <point x="248" y="321"/>
      <point x="178" y="358" type="curve" smooth="yes"/>
      <point x="122" y="388"/>
      <point x="84" y="437"/>
      <point x="84" y="517" type="curve" smooth="yes"/>
      <point x="84" y="647"/>
      <point x="184" y="706"/>
      <point x="296" y="714" type="curve"/>
    </contour>
  </outline>
</glyph>
<glyph name="percent" format="2">
  <advance width="804"/>
  <unicode hex="0025"/>
  <outline>
    <contour>
      <point x="205" y="402" type="curve" smooth="yes"/>
      <point x="109" y="402"/>
      <point x="59" y="471"/>
      <point x="59" y="559" type="curve" smooth="yes"/>
      <point x="59" y="650"/>
      <point x="110" y="715"/>
      <point x="205" y="715" type="curve" smooth="yes"/>
      <point x="298" y="715"/>
      <point x="349" y="651"/>
      <point x="349" y="559" type="curve" smooth="yes"/>
      <point x="349" y="471"/>
      <point x="298" y="402"/>
    </contour>
    <contour>
      <point x="139" y="0" type="line"/>
      <point x="574" y="707" type="line"/>
      <point x="662" y="707" type="line"/>
      <point x="228" y="0" type="line"/>
    </contour>
    <contour>
      <point x="205" y="644" type="curve" smooth="yes"/>
      <point x="152" y="644"/>
      <point x="131" y="603"/>
      <point x="131" y="559" type="curve" smooth="yes"/>
      <point x="131" y="512"/>
      <point x="152" y="473"/>
      <point x="205" y="473" type="curve" smooth="yes"/>
      <point x="256" y="473"/>
      <point x="275" y="514"/>
      <point x="275" y="559" type="curve" smooth="yes"/>
      <point x="275" y="603"/>
      <point x="256" y="644"/>
    </contour>
    <contour>
      <point x="601" y="-6" type="curve" smooth="yes"/>
      <point x="505" y="-6"/>
      <point x="454" y="63"/>
      <point x="454" y="151" type="curve" smooth="yes"/>
      <point x="454" y="242"/>
      <point x="506" y="307"/>
      <point x="601" y="307" type="curve" smooth="yes"/>
      <point x="693" y="307"/>
      <point x="745" y="242"/>
      <point x="745" y="151" type="curve" smooth="yes"/>
      <point x="745" y="63"/>
      <point x="693" y="-6"/>
    </contour>
    <contour>
      <point x="600" y="236" type="curve" smooth="yes"/>
      <point x="547" y="236"/>
      <point x="527" y="195"/>
      <point x="527" y="151" type="curve" smooth="yes"/>
      <point x="527" y="104"/>
      <point x="548" y="65"/>
      <point x="600" y="65" type="curve" smooth="yes"/>
      <point x="652" y="65"/>
      <point x="670" y="106"/>
      <point x="670" y="151" type="curve" smooth="yes"/>
      <point x="670" y="195"/>
      <point x="652" y="236"/>
    </contour>
  </outline>
</glyph>
<glyph name="ampersand" format="2">
  <advance width="677"/>
  <unicode hex="0026"/>
  <outline>
    <contour>
      <point x="483" y="62" type="line"/>
      <point x="427" y="11"/>
      <point x="359" y="-8"/>
      <point x="283" y="-8" type="curve" smooth="yes"/>
      <point x="168" y="-8"/>
      <point x="67" y="55"/>
      <point x="67" y="183" type="curve" smooth="yes"/>
      <point x="67" y="272"/>
      <point x="122" y="334"/>
      <point x="214" y="381" type="curve"/>
      <point x="162" y="430"/>
      <point x="136" y="483"/>
      <point x="136" y="541" type="curve" smooth="yes"/>
      <point x="136" y="600"/>
      <point x="158" y="642"/>
      <point x="190" y="671" type="curve" smooth="yes"/>
      <point x="222" y="700"/>
      <point x="265" y="715"/>
      <point x="322" y="715" type="curve" smooth="yes"/>
      <point x="418" y="715"/>
      <point x="486" y="659"/>
      <point x="486" y="559" type="curve" smooth="yes"/>
      <point x="486" y="475"/>
      <point x="418" y="408"/>
      <point x="335" y="365" type="curve"/>
      <point x="485" y="187" type="line"/>
      <point x="508" y="218"/>
      <point x="522" y="264"/>
      <point x="529" y="312" type="curve"/>
      <point x="613" y="312" type="line"/>
      <point x="606" y="236"/>
      <point x="577" y="177"/>
      <point x="541" y="126" type="curve"/>
      <point x="653" y="0" type="line"/>
      <point x="539" y="0" type="line"/>
    </contour>
    <contour>
      <point x="286" y="417" type="curve"/>
      <point x="334" y="444"/>
      <point x="401" y="493"/>
      <point x="404" y="550" type="curve" smooth="yes"/>
      <point x="407" y="602"/>
      <point x="368" y="636"/>
      <point x="315" y="636" type="curve" smooth="yes"/>
      <point x="255" y="636"/>
      <point x="222" y="602"/>
      <point x="221" y="546" type="curve" smooth="yes"/>
      <point x="221" y="491"/>
      <point x="259" y="449"/>
    </contour>
    <contour>
      <point x="259" y="324" type="line"/>
      <point x="203" y="295"/>
      <point x="158" y="250"/>
      <point x="158" y="185" type="curve" smooth="yes"/>
      <point x="158" y="108"/>
      <point x="228" y="71"/>
      <point x="297" y="71" type="curve" smooth="yes"/>
      <point x="342" y="71"/>
      <point x="392" y="83"/>
      <point x="433" y="124" type="curve"/>
    </contour>
  </outline>
</glyph>
<glyph name="quotesingle" format="2">
  <advance width="222"/>
  <unicode hex="0027"/>
  <outline>
    <contour>
      <point x="142" y="471" type="line"/>
      <point x="80" y="471" type="line"/>
      <point x="67" y="707" type="line"/>
      <point x="155" y="707" type="line"/>
    </contour>
  </outline>
</glyph>
<glyph name="parenleft" format="2">
  <advance width="308"/>
  <unicode hex="0028"/>
  <outline>
    <contour>
      <point x="338" y="818" type="line"/>
      <point x="197" y="634"/>
      <point x="150" y="476"/>
      <point x="150" y="302" type="curve" smooth="yes"/>
      <point x="150" y="126"/>
      <point x="202" y="-28"/>
      <point x="336" y="-212" type="curve"/>
      <point x="244" y="-212" type="line"/>
      <point x="124" y="-71"/>
      <point x="65" y="135"/>
      <point x="65" y="302" type="curve" smooth="yes"/>
      <point x="65" y="469"/>
      <point x="126" y="676"/>
      <point x="246" y="818" type="curve"/>
    </contour>
  </outline>
</glyph>
<glyph name="parenright" format="2">
  <advance width="308"/>
  <unicode hex="0029"/>
  <outline>
    <contour>
      <point x="-30" y="-212" type="line"/>
      <point x="109" y="-28"/>
      <point x="158" y="130"/>
      <point x="158" y="304" type="curve" smooth="yes"/>
      <point x="158" y="480"/>
      <point x="106" y="634"/>
      <point x="-28" y="818" type="curve"/>
      <point x="64" y="818" type="line"/>
      <point x="184" y="677"/>
      <point x="243" y="471"/>
      <point x="243" y="304" type="curve" smooth="yes"/>
      <point x="243" y="137"/>
      <point x="182" y="-70"/>
      <point x="62" y="-212" type="curve"/>
    </contour>
  </outline>
</glyph>
<glyph name="asterisk" format="2">
  <advance width="414"/>
  <unicode hex="002A"/>
  <outline>
    <contour>
      <point x="236" y="730" type="line"/>
      <point x="236" y="633" type="line"/>
      <point x="327" y="663" type="line"/>
      <point x="345" y="609" type="line"/>
      <point x="253" y="579" type="line"/>
      <point x="310" y="501" type="line"/>
      <point x="264" y="467" type="line"/>
      <point x="207" y="545" type="line"/>
      <point x="150" y="467" type="line"/>
      <point x="104" y="501" type="line"/>
      <point x="161" y="579" type="line"/>
      <point x="69" y="609" type="line"/>
      <point x="86" y="663" type="line"/>
      <point x="178" y="633" type="line"/>
      <point x="178" y="730" type="line"/>
    </contour>
  </outline>
</glyph>
<glyph name="plus" format="2">
  <advance width="521"/>
  <unicode hex="002B"/>
  <outline>
    <contour>
      <point x="74" y="392" type="line"/>
      <point x="221" y="392" type="line"/>
      <point x="221" y="547" type="line"/>
      <point x="299" y="547" type="line"/>
      <point x="299" y="392" type="line"/>
      <point x="447" y="392" type="line"/>
      <point x="447" y="315" type="line"/>
      <point x="299" y="315" type="line"/>
      <point x="299" y="160" type="line"/>
      <point x="221" y="160" type="line"/>
      <point x="221" y="315" type="line"/>
      <point x="74" y="315" type="line"/>
    </contour>
  </outline>
</glyph>
<glyph name="comma" format="2">
  <advance width="261"/>
  <unicode hex="002C"/>
  <outline>
    <contour>
      <point x="128" y="-2" type="curve"/>
      <point x="93" y="1"/>
      <point x="70" y="22"/>
      <point x="70" y="55" type="curve"/>
      <point x="71" y="90"/>
      <point x="98" y="112"/>
      <point x="129" y="112" type="curve" smooth="yes"/>
      <point x="168" y="112"/>
      <point x="193" y="83"/>
      <point x="193" y="32" type="curve" smooth="yes"/>
      <point x="193" y="-28"/>
      <point x="144" y="-102"/>
      <point x="91" y="-121" type="curve"/>
      <point x="67" y="-88" type="line"/>
      <point x="94" y="-69"/>
      <point x="120" y="-34"/>
    </contour>
  </outline>
</glyph>
<glyph name="hyphen" format="2">
  <advance width="458"/>
  <unicode hex="002D"/>
  <outline>
    <contour>
      <point x="74" y="321" type="line"/>
      <point x="384" y="321" type="line"/>
      <point x="384" y="243" type="line"/>
      <point x="74" y="243" type="line"/>
    </contour>
  </outline>
</glyph>
<glyph name="period" format="2">
  <advance width="254"/>
  <unicode hex="002E"/>
  <outline>
    <contour>
      <point x="127" y="112" type="curve" smooth="yes"/>
      <point x="162" y="112"/>
      <point x="187" y="87"/>
      <point x="187" y="52" type="curve" smooth="yes"/>
      <point x="187" y="17"/>
      <point x="162" y="-8"/>
      <point x="127" y="-8" type="curve" smooth="yes"/>
      <point x="92" y="-8"/>
      <point x="67" y="17"/>
      <point x="67" y="52" type="curve" smooth="yes"/>
      <point x="67" y="87"/>
      <point x="92" y="112"/>
    </contour>
  </outline>
</glyph>
<glyph name="slash" format="2">
  <advance width="477"/>
  <unicode hex="002F"/>
  <outline>
    <contour>
      <point x="348" y="801" type="line"/>
      <point x="438" y="801" type="line"/>
      <point x="129" y="-168" type="line"/>
      <point x="39" y="-168" type="line"/>
    </contour>
  </outline>
</glyph>
<glyph name="zero" format="2">
  <advance width="665"/>
  <unicode hex="0030"/>
  <outline>
    <contour>
      <point x="609" y="353" type="curve" smooth="yes"/>
      <point x="609" y="172"/>
      <point x="544" y="-8"/>
      <point x="333" y="-8" type="curve" smooth="yes"/>
      <point x="226" y="-8"/>
      <point x="158" y="38"/>
      <point x="115" y="105" type="curve" smooth="yes"/>
      <point x="72" y="172"/>
      <point x="57" y="257"/>
      <point x="57" y="353" type="curve" smooth="yes"/>
      <point x="57" y="449"/>
      <point x="72" y="535"/>
      <point x="115" y="602" type="curve" smooth="yes"/>
      <point x="158" y="669"/>
      <point x="226" y="715"/>
      <point x="333" y="715" type="curve" smooth="yes"/>
      <point x="544" y="715"/>
      <point x="609" y="534"/>
    </contour>
    <contour>
      <point x="146" y="353" type="curve" smooth="yes"/>
      <point x="146" y="225"/>
      <point x="174" y="71"/>
      <point x="333" y="71" type="curve" smooth="yes"/>
      <point x="490" y="71"/>
      <point x="519" y="225"/>
      <point x="519" y="353" type="curve" smooth="yes"/>
      <point x="519" y="478"/>
      <point x="490" y="636"/>
      <point x="333" y="636" type="curve" smooth="yes"/>
      <point x="174" y="636"/>
      <point x="146" y="478"/>
    </contour>
  </outline>
</glyph>
<glyph name="one" format="2">
  <advance width="363"/>
  <unicode hex="0031"/>
  <outline>
    <contour>
      <point x="256" y="0" type="line"/>
      <point x="169" y="0" type="line"/>
      <point x="169" y="567" type="line"/>
      <point x="25" y="567" type="line"/>
      <point x="25" y="626" type="line"/>
      <point x="105" y="631"/>
      <point x="157" y="642"/>
      <point x="195" y="707" type="curve"/>
      <point x="256" y="707" type="line"/>
    </contour>
  </outline>
</glyph>
<glyph name="two" format="2">
  <advance width="566"/>
  <unicode hex="0032"/>
  <outline>
    <contour>
      <point x="230" y="246" type="line" smooth="yes"/>
      <point x="301" y="307"/>
      <point x="417" y="393"/>
      <point x="420" y="502" type="curve" smooth="yes"/>
      <point x="423" y="587"/>
      <point x="365" y="635"/>
      <point x="280" y="635" type="curve" smooth="yes"/>
      <point x="212" y="635"/>
      <point x="157" y="606"/>
      <point x="141" y="553" type="curve"/>
      <point x="48" y="553" type="line"/>
      <point x="67" y="662"/>
      <point x="176" y="715"/>
      <point x="284" y="715" type="curve" smooth="yes"/>
      <point x="415" y="715"/>
      <point x="508" y="642"/>
      <point x="508" y="510" type="curve" smooth="yes"/>
      <point x="508" y="379"/>
      <point x="424" y="305"/>
      <point x="335" y="230" type="curve" smooth="yes"/>
      <point x="156" y="79" type="line"/>
      <point x="516" y="79" type="line"/>
      <point x="516" y="0" type="line"/>
      <point x="30" y="0" type="line"/>
      <point x="30" y="73" type="line"/>
    </contour>
  </outline>
</glyph>
<glyph name="three" format="2">
  <advance width="599"/>
  <unicode hex="0033"/>
  <outline>
    <contour>
      <point x="291" y="-8" type="curve" smooth="yes"/>
      <point x="180" y="-8"/>
      <point x="52" y="32"/>
      <point x="33" y="158" type="curve"/>
      <point x="123" y="158" type="line"/>
      <point x="147" y="90"/>
      <point x="228" y="71"/>
      <point x="292" y="71" type="curve" smooth="yes"/>
      <point x="352" y="71"/>
      <point x="452" y="85"/>
      <point x="452" y="198" type="curve" smooth="yes"/>
      <point x="452" y="305"/>
      <point x="362" y="320"/>
      <point x="280" y="320" type="curve" smooth="yes"/>
      <point x="212" y="320" type="line"/>
      <point x="212" y="398" type="line"/>
      <point x="253" y="398" type="line" smooth="yes"/>
      <point x="289" y="398"/>
      <point x="317" y="396"/>
      <point x="354" y="413" type="curve" smooth="yes"/>
      <point x="397" y="432"/>
      <point x="425" y="471"/>
      <point x="425" y="519" type="curve" smooth="yes"/>
      <point x="425" y="616"/>
      <point x="354" y="636"/>
      <point x="285" y="636" type="curve" smooth="yes"/>
      <point x="229" y="636"/>
      <point x="160" y="613"/>
      <point x="144" y="551" type="curve"/>
      <point x="57" y="551" type="line"/>
      <point x="73" y="668"/>
      <point x="183" y="715"/>
      <point x="292" y="715" type="curve" smooth="yes"/>
      <point x="411" y="715"/>
      <point x="511" y="667"/>
      <point x="511" y="533" type="curve" smooth="yes"/>
      <point x="511" y="459"/>
      <point x="474" y="402"/>
      <point x="405" y="373" type="curve"/>
      <point x="494" y="356"/>
      <point x="542" y="290"/>
      <point x="542" y="205" type="curve" smooth="yes"/>
      <point x="542" y="201" type="line" smooth="yes"/>
      <point x="542" y="54"/>
      <point x="431" y="-8"/>
    </contour>
  </outline>
</glyph>
<glyph name="four" format="2">
  <advance width="633"/>
  <unicode hex="0034"/>
  <outline>
    <contour>
      <point x="513" y="707" type="line"/>
      <point x="513" y="220" type="line"/>
      <point x="596" y="220" type="line"/>
      <point x="596" y="141" type="line"/>
      <point x="513" y="141" type="line"/>
      <point x="513" y="0" type="line"/>
      <point x="426" y="0" type="line"/>
      <point x="426" y="141" type="line"/>
      <point x="42" y="141" type="line"/>
      <point x="42" y="206" type="line"/>
      <point x="388" y="707" type="line"/>
    </contour>
    <contour>
      <point x="147" y="220" type="line"/>
      <point x="426" y="220" type="line"/>
      <point x="426" y="628" type="line"/>
    </contour>
  </outline>
</glyph>
<glyph name="five" format="2">
  <advance width="616"/>
  <unicode hex="0035"/>
  <outline>
    <contour>
      <point x="82" y="318" type="line"/>
      <point x="114" y="707" type="line"/>
      <point x="537" y="707" type="line"/>
      <point x="537" y="627" type="line"/>
      <point x="192" y="627" type="line"/>
      <point x="172" y="405" type="line"/>
      <point x="208" y="434"/>
      <point x="258" y="454"/>
      <point x="334" y="454" type="curve" smooth="yes"/>
      <point x="470" y="454"/>
      <point x="562" y="365"/>
      <point x="562" y="228" type="curve" smooth="yes"/>
      <point x="562" y="80"/>
      <point x="452" y="-9"/>
      <point x="308" y="-9" type="curve" smooth="yes"/>
      <point x="191" y="-9"/>
      <point x="86" y="43"/>
      <point x="62" y="160" type="curve"/>
      <point x="150" y="160" type="line"/>
      <point x="171" y="104"/>
      <point x="240" y="71"/>
      <point x="300" y="71" type="curve" smooth="yes"/>
      <point x="397" y="71"/>
      <point x="472" y="117"/>
      <point x="472" y="223" type="curve" smooth="yes"/>
      <point x="472" y="320"/>
      <point x="407" y="374"/>
      <point x="314" y="374" type="curve" smooth="yes"/>
      <point x="258" y="374"/>
      <point x="211" y="353"/>
      <point x="172" y="318" type="curve"/>
    </contour>
  </outline>
</glyph>
<glyph name="six" format="2">
  <advance width="623"/>
  <unicode hex="0036"/>
  <outline>
    <contour>
      <point x="143" y="351" type="curve"/>
      <point x="188" y="420"/>
      <point x="261" y="451"/>
      <point x="338" y="451" type="curve" smooth="yes"/>
      <point x="477" y="451"/>
      <point x="569" y="359"/>
      <point x="569" y="227" type="curve" smooth="yes"/>
      <point x="569" y="87"/>
      <point x="468" y="-8"/>
      <point x="328" y="-8" type="curve" smooth="yes"/>
      <point x="135" y="-8"/>
      <point x="58" y="152"/>
      <point x="58" y="330" type="curve" smooth="yes"/>
      <point x="58" y="441"/>
      <point x="76" y="540"/>
      <point x="135" y="618" type="curve" smooth="yes"/>
      <point x="178" y="675"/>
      <point x="245" y="715"/>
      <point x="340" y="715" type="curve" smooth="yes"/>
      <point x="442" y="715"/>
      <point x="530" y="661"/>
      <point x="562" y="561" type="curve"/>
      <point x="471" y="561" type="line"/>
      <point x="447" y="610"/>
      <point x="392" y="636"/>
      <point x="339" y="636" type="curve" smooth="yes"/>
      <point x="187" y="636"/>
      <point x="143" y="477"/>
    </contour>
    <contour>
      <point x="480" y="218" type="curve" smooth="yes"/>
      <point x="480" y="305"/>
      <point x="419" y="370"/>
      <point x="330" y="370" type="curve" smooth="yes"/>
      <point x="247" y="370"/>
      <point x="170" y="312"/>
      <point x="170" y="220" type="curve" smooth="yes"/>
      <point x="170" y="136"/>
      <point x="238" y="71"/>
      <point x="326" y="71" type="curve" smooth="yes"/>
      <point x="415" y="71"/>
      <point x="480" y="135"/>
    </contour>
  </outline>
</glyph>
<glyph name="seven" format="2">
  <advance width="505"/>
  <unicode hex="0037"/>
  <outline>
    <contour>
      <point x="100" y="0" type="line"/>
      <point x="386" y="627" type="line"/>
      <point x="12" y="627" type="line"/>
      <point x="12" y="707" type="line"/>
      <point x="482" y="707" type="line"/>
      <point x="482" y="635" type="line"/>
      <point x="196" y="0" type="line"/>
    </contour>
  </outline>
</glyph>
<glyph name="eight" format="2">
  <advance width="622"/>
  <unicode hex="0038"/>
  <outline>
    <contour>
      <point x="565" y="197" type="curve" smooth="yes"/>
      <point x="565" y="44"/>
      <point x="438" y="-8"/>
      <point x="311" y="-8" type="curve" smooth="yes"/>
      <point x="183" y="-8"/>
      <point x="57" y="44"/>
      <point x="57" y="197" type="curve" smooth="yes"/>
      <point x="57" y="277"/>
      <point x="101" y="337"/>
      <point x="174" y="365" type="curve"/>
      <point x="93" y="403"/>
      <point x="78" y="477"/>
      <point x="78" y="528" type="curve" smooth="yes"/>
      <point x="78" y="660"/>
      <point x="194" y="715"/>
      <point x="311" y="715" type="curve" smooth="yes"/>
      <point x="428" y="715"/>
      <point x="544" y="660"/>
      <point x="544" y="528" type="curve" smooth="yes"/>
      <point x="544" y="476"/>
      <point x="527" y="405"/>
      <point x="447" y="368" type="curve"/>
      <point x="523" y="340"/>
      <point x="565" y="277"/>
    </contour>
    <contour>
      <point x="311" y="636" type="curve" smooth="yes"/>
      <point x="231" y="636"/>
      <point x="168" y="600"/>
      <point x="168" y="516" type="curve" smooth="yes"/>
      <point x="168" y="431"/>
      <point x="237" y="397"/>
      <point x="311" y="397" type="curve" smooth="yes"/>
      <point x="386" y="397"/>
      <point x="453" y="434"/>
      <point x="454" y="512" type="curve" smooth="yes"/>
      <point x="456" y="603"/>
      <point x="388" y="636"/>
    </contour>
    <contour>
      <point x="311" y="320" type="curve" smooth="yes"/>
      <point x="228" y="320"/>
      <point x="146" y="287"/>
      <point x="146" y="196" type="curve" smooth="yes"/>
      <point x="146" y="93"/>
      <point x="248" y="71"/>
      <point x="311" y="71" type="curve" smooth="yes"/>
      <point x="374" y="71"/>
      <point x="475" y="93"/>
      <point x="475" y="196" type="curve" smooth="yes"/>
      <point x="475" y="287"/>
      <point x="394" y="320"/>
    </contour>
  </outline>
</glyph>
<glyph name="nine" format="2">
  <advance width="620"/>
  <unicode hex="0039"/>
  <outline>
    <contour>
      <point x="481" y="365" type="line"/>
      <point x="443" y="287"/>
      <point x="359" y="258"/>
      <point x="280" y="258" type="curve" smooth="yes"/>
      <point x="156" y="258"/>
      <point x="54" y="336"/>
      <point x="54" y="479" type="curve" smooth="yes"/>
      <point x="54" y="620"/>
      <point x="153" y="715"/>
      <point x="300" y="715" type="curve" smooth="yes"/>
      <point x="508" y="715"/>
      <point x="564" y="516"/>
      <point x="564" y="343" type="curve" smooth="yes"/>
      <point x="564" y="247"/>
      <point x="543" y="146"/>
      <point x="494" y="82" type="curve" smooth="yes"/>
      <point x="451" y="26"/>
      <point x="383" y="-8"/>
      <point x="287" y="-8" type="curve" smooth="yes"/>
      <point x="185" y="-8"/>
      <point x="88" y="43"/>
      <point x="62" y="146" type="curve"/>
      <point x="158" y="146" type="line"/>
      <point x="182" y="95"/>
      <point x="243" y="71"/>
      <point x="297" y="71" type="curve" smooth="yes"/>
      <point x="362" y="72"/>
      <point x="407" y="99"/>
      <point x="435" y="142" type="curve" smooth="yes"/>
      <point x="475" y="204"/>
      <point x="481" y="300"/>
      <point x="481" y="343" type="curve" smooth="yes"/>
    </contour>
    <contour>
      <point x="143" y="487" type="curve" smooth="yes"/>
      <point x="143" y="394"/>
      <point x="201" y="339"/>
      <point x="293" y="338" type="curve" smooth="yes"/>
      <point x="378" y="338"/>
      <point x="450" y="395"/>
      <point x="450" y="481" type="curve" smooth="yes"/>
      <point x="450" y="572"/>
      <point x="385" y="636"/>
      <point x="297" y="636" type="curve" smooth="yes"/>
      <point x="208" y="636"/>
      <point x="143" y="569"/>
    </contour>
  </outline>
</glyph>
<glyph name="colon" format="2">
  <advance width="253"/>
  <unicode hex="003A"/>
  <outline>
    <contour>
      <point x="126" y="468" type="curve" smooth="yes"/>
      <point x="162" y="468"/>
      <point x="186" y="443"/>
      <point x="186" y="408" type="curve" smooth="yes"/>
      <point x="186" y="372"/>
      <point x="159" y="348"/>
      <point x="126" y="348" type="curve" smooth="yes"/>
      <point x="91" y="348"/>
      <point x="67" y="373"/>
      <point x="67" y="408" type="curve" smooth="yes"/>
      <point x="67" y="443"/>
      <point x="91" y="468"/>
    </contour>
    <contour>
      <point x="126" y="112" type="curve" smooth="yes"/>
      <point x="162" y="112"/>
      <point x="186" y="87"/>
      <point x="186" y="52" type="curve" smooth="yes"/>
      <point x="186" y="17"/>
      <point x="159" y="-8"/>
      <point x="126" y="-8" type="curve" smooth="yes"/>
      <point x="91" y="-8"/>
      <point x="67" y="17"/>
      <point x="67" y="52" type="curve" smooth="yes"/>
      <point x="67" y="87"/>
      <point x="91" y="112"/>
    </contour>
  </outline>
</glyph>
<glyph name="semicolon" format="2">
  <advance width="261"/>
  <unicode hex="003B"/>
  <outline>
    <contour>
      <point x="133" y="468" type="curve" smooth="yes"/>
      <point x="168" y="468"/>
      <point x="193" y="443"/>
      <point x="193" y="408" type="curve" smooth="yes"/>
      <point x="193" y="372"/>
      <point x="168" y="348"/>
      <point x="133" y="348" type="curve" smooth="yes"/>
      <point x="98" y="348"/>
      <point x="74" y="373"/>
      <point x="74" y="408" type="curve" smooth="yes"/>
      <point x="74" y="443"/>
      <point x="98" y="468"/>
    </contour>
    <contour>
      <point x="128" y="-3" type="curve"/>
      <point x="93" y="0"/>
      <point x="70" y="21"/>
      <point x="70" y="54" type="curve" smooth="yes"/>
      <point x="70" y="91"/>
      <point x="97" y="114"/>
      <point x="132" y="112" type="curve" smooth="yes"/>
      <point x="175" y="110"/>
      <point x="193" y="72"/>
      <point x="193" y="29" type="curve" smooth="yes"/>
      <point x="192" y="-31"/>
      <point x="144" y="-103"/>
      <point x="91" y="-122" type="curve"/>
      <point x="67" y="-89" type="line"/>
      <point x="94" y="-70"/>
      <point x="120" y="-35"/>
    </contour>
  </outline>
</glyph>
<glyph name="less" format="2">
  <advance width="446"/>
  <unicode hex="003C"/>
  <outline>
    <contour>
      <point x="39" y="372" type="line"/>
      <point x="377" y="602" type="line"/>
      <point x="377" y="509" type="line"/>
      <point x="136" y="351" type="line"/>
      <point x="377" y="192" type="line"/>
      <point x="377" y="99" type="line"/>
      <point x="39" y="329" type="line"/>
    </contour>
  </outline>
</glyph>
<glyph name="equal" format="2">
  <advance width="542"/>
  <unicode hex="003D"/>
  <outline>
    <contour>
      <point x="69" y="522" type="line"/>
      <point x="473" y="522" type="line"/>
      <point x="473" y="444" type="line"/>
      <point x="69" y="444" type="line"/>
    </contour>
    <contour>
      <point x="69" y="263" type="line"/>
      <point x="473" y="263" type="line"/>
      <point x="473" y="185" type="line"/>
      <point x="69" y="185" type="line"/>
    </contour>
  </outline>
</glyph>
<glyph name="greater" format="2">
  <advance width="446"/>
  <unicode hex="003E"/>
  <outline>
    <contour>
      <point x="407" y="329" type="line"/>
      <point x="69" y="99" type="line"/>
      <point x="69" y="192" type="line"/>
      <point x="310" y="351" type="line"/>
      <point x="69" y="509" type="line"/>
      <point x="69" y="602" type="line"/>
      <point x="407" y="372" type="line"/>
    </contour>
  </outline>
</glyph>
<glyph name="question" format="2">
  <advance width="513"/>
  <unicode hex="003F"/>
  <outline>
    <contour>
      <point x="191" y="213" type="line"/>
      <point x="190" y="220"/>
      <point x="190" y="227"/>
      <point x="190" y="234" type="curve" smooth="yes"/>
      <point x="190" y="266"/>
      <point x="195" y="296"/>
      <point x="226" y="333" type="curve" smooth="yes"/>
      <point x="253" y="364"/>
      <point x="298" y="401"/>
      <point x="327" y="434" type="curve"/>
      <point x="353" y="462"/>
      <point x="371" y="500"/>
      <point x="371" y="533" type="curve" smooth="yes"/>
      <point x="371" y="601"/>
      <point x="323" y="636"/>
      <point x="254" y="636" type="curve" smooth="yes"/>
      <point x="199" y="636"/>
      <point x="139" y="616"/>
      <point x="125" y="556" type="curve"/>
      <point x="37" y="556" type="line"/>
      <point x="50" y="663"/>
      <point x="150" y="715"/>
      <point x="253" y="715" type="curve" smooth="yes"/>
      <point x="309" y="715"/>
      <point x="360" y="700"/>
      <point x="397" y="671" type="curve" smooth="yes"/>
      <point x="434" y="642"/>
      <point x="458" y="601"/>
      <point x="458" y="537" type="curve"/>
      <point x="457" y="476"/>
      <point x="432" y="427"/>
      <point x="390" y="384" type="curve" smooth="yes"/>
      <point x="362" y="354"/>
      <point x="311" y="312"/>
      <point x="291" y="279" type="curve" smooth="yes"/>
      <point x="281" y="262"/>
      <point x="278" y="238"/>
      <point x="278" y="221" type="curve" smooth="yes"/>
      <point x="278" y="213" type="line"/>
    </contour>
    <contour>
      <point x="233" y="112" type="curve" smooth="yes"/>
      <point x="268" y="112"/>
      <point x="293" y="87"/>
      <point x="293" y="52" type="curve" smooth="yes"/>
      <point x="293" y="17"/>
      <point x="268" y="-8"/>
      <point x="233" y="-8" type="curve" smooth="yes"/>
      <point x="198" y="-8"/>
      <point x="174" y="17"/>
      <point x="174" y="52" type="curve" smooth="yes"/>
      <point x="174" y="87"/>
      <point x="198" y="112"/>
    </contour>
  </outline>
</glyph>
<glyph name="at" format="2">
  <advance width="983"/>
  <unicode hex="0040"/>
  <outline>
    <contour>
      <point x="615" y="119" type="curve"/>
      <point x="575" y="55"/>
      <point x="521" y="38"/>
      <point x="460" y="38" type="curve" smooth="yes"/>
      <point x="335" y="39"/>
      <point x="288" y="146"/>
      <point x="288" y="239" type="curve"/>
      <point x="290" y="363"/>
      <point x="359" y="488"/>
      <point x="498" y="486" type="curve" smooth="yes"/>
      <point x="551" y="486"/>
      <point x="600" y="466"/>
      <point x="623" y="414" type="curve"/>
      <point x="650" y="466" type="line"/>
      <point x="705" y="460" type="line"/>
      <point x="693" y="387"/>
      <point x="684" y="312"/>
      <point x="677" y="239" type="curve" smooth="yes"/>
      <point x="672" y="179"/>
      <point x="671" y="105"/>
      <point x="738" y="105" type="curve" smooth="yes"/>
      <point x="824" y="105"/>
      <point x="833" y="236"/>
      <point x="833" y="294" type="curve" smooth="yes"/>
      <point x="833" y="482"/>
      <point x="729" y="634"/>
      <point x="522" y="634" type="curve" smooth="yes"/>
      <point x="283" y="634"/>
      <point x="160" y="457"/>
      <point x="160" y="240" type="curve" smooth="yes"/>
      <point x="160" y="45"/>
      <point x="283" y="-99"/>
      <point x="492" y="-99" type="curve" smooth="yes"/>
      <point x="539" y="-99"/>
      <point x="555" y="-97"/>
      <point x="597" y="-89" type="curve"/>
      <point x="604" y="-173" type="line"/>
      <point x="558" y="-183"/>
      <point x="530" y="-186"/>
      <point x="482" y="-186" type="curve" smooth="yes"/>
      <point x="221" y="-186"/>
      <point x="70" y="-2"/>
      <point x="70" y="232" type="curve" smooth="yes"/>
      <point x="70" y="511"/>
      <point x="229" y="715"/>
      <point x="522" y="715" type="curve" smooth="yes"/>
      <point x="773" y="715"/>
      <point x="914" y="533"/>
      <point x="914" y="304" type="curve" smooth="yes"/>
      <point x="914" y="196"/>
      <point x="890" y="33"/>
      <point x="733" y="33" type="curve" smooth="yes"/>
      <point x="669" y="33"/>
      <point x="628" y="68"/>
    </contour>
    <contour>
      <point x="370" y="241" type="curve" smooth="yes"/>
      <point x="370" y="197"/>
      <point x="385" y="110"/>
      <point x="473" y="110" type="curve" smooth="yes"/>
      <point x="554" y="110"/>
      <point x="596" y="176"/>
      <point x="604" y="258" type="curve" smooth="yes"/>
      <point x="611" y="333"/>
      <point x="578" y="410"/>
      <point x="497" y="410" type="curve" smooth="yes"/>
      <point x="406" y="410"/>
      <point x="370" y="319"/>
    </contour>
  </outline>
</glyph>
<glyph name="D" format="2">
  <advance width="720"/>
  <unicode hex="0044"/>
  <outline>
    <contour>
      <point x="87" y="707" type="line"/>
      <point x="338" y="707" type="line" smooth="yes"/>
      <point x="558" y="707"/>
      <point x="671" y="565"/>
      <point x="671" y="353" type="curve" smooth="yes"/>
      <point x="671" y="142"/>
      <point x="559" y="0"/>
      <point x="338" y="0" type="curve" smooth="yes"/>
      <point x="87" y="0" type="line"/>
    </contour>
    <contour>
      <point x="174" y="628" type="line"/>
      <point x="174" y="79" type="line"/>
      <point x="332" y="79" type="line" smooth="yes"/>
      <point x="503" y="79"/>
      <point x="582" y="191"/>
      <point x="582" y="353" type="curve" smooth="yes"/>
      <point x="582" y="510"/>
      <point x="505" y="628"/>
      <point x="337" y="628" type="curve" smooth="yes"/>
    </contour>
  </outline>
</glyph>
<glyph name="F" format="2">
  <advance width="599"/>
  <unicode hex="0046"/>
  <outline>
    <contour>
      <point x="87" y="0" type="line"/>
      <point x="87" y="707" type="line"/>
      <point x="562" y="707" type="line"/>
      <point x="562" y="628" type="line"/>
      <point x="174" y="628" type="line"/>
      <point x="174" y="363" type="line"/>
      <point x="513" y="363" type="line"/>
      <point x="513" y="283" type="line"/>
      <point x="174" y="283" type="line"/>
      <point x="174" y="0" type="line"/>
    </contour>
  </outline>
</glyph>
<glyph name="G" format="2">
  <advance width="720"/>
  <unicode hex="0047"/>
  <outline>
    <contour>
      <point x="369" y="636" type="curve" smooth="yes"/>
      <point x="204" y="636"/>
      <point x="137" y="510"/>
      <point x="137" y="353" type="curve" smooth="yes"/>
      <point x="137" y="197"/>
      <point x="209" y="71"/>
      <point x="373" y="71" type="curve" smooth="yes"/>
      <point x="444" y="71"/>
      <point x="497" y="90"/>
      <point x="532" y="127" type="curve" smooth="yes"/>
      <point x="573" y="170"/>
      <point x="589" y="218"/>
      <point x="589" y="278" type="curve"/>
      <point x="357" y="278" type="line"/>
      <point x="357" y="357" type="line"/>
      <point x="672" y="357" type="line"/>
      <point x="672" y="298" type="line" smooth="yes"/>
      <point x="672" y="220"/>
      <point x="648" y="129"/>
      <point x="591" y="74" type="curve" smooth="yes"/>
      <point x="539" y="22"/>
      <point x="466" y="-8"/>
      <point x="374" y="-8" type="curve" smooth="yes"/>
      <point x="154" y="-8"/>
      <point x="48" y="143"/>
      <point x="48" y="351" type="curve" smooth="yes"/>
      <point x="48" y="558"/>
      <point x="151" y="715"/>
      <point x="370" y="715" type="curve" smooth="yes"/>
      <point x="526" y="715"/>
      <point x="623" y="639"/>
      <point x="654" y="522" type="curve"/>
      <point x="559" y="522" type="line"/>
      <point x="539" y="591"/>
      <point x="469" y="636"/>
    </contour>
  </outline>
</glyph>
<glyph name="I" format="2">
  <advance width="261"/>
  <unicode hex="0049"/>
  <outline>
    <contour>
      <point x="174" y="0" type="line"/>
      <point x="87" y="0" type="line"/>
      <point x="87" y="707" type="line"/>
      <point x="174" y="707" type="line"/>
    </contour>
  </outline>
</glyph>
<glyph name="J" format="2">
  <advance width="558"/>
  <unicode hex="004A"/>
  <outline>
    <contour>
      <point x="130" y="195" type="line"/>
      <point x="138" y="119"/>
      <point x="178" y="72"/>
      <point x="266" y="71" type="curve"/>
      <point x="359" y="71"/>
      <point x="389" y="135"/>
      <point x="389" y="226" type="curve" smooth="yes"/>
      <point x="389" y="707" type="line"/>
      <point x="476" y="707" type="line"/>
      <point x="476" y="244" type="line" smooth="yes"/>
      <point x="476" y="96"/>
      <point x="421" y="-8"/>
      <point x="266" y="-8" type="curve" smooth="yes"/>
      <point x="127" y="-8"/>
      <point x="50" y="55"/>
      <point x="42" y="195" type="curve"/>
    </contour>
  </outline>
</glyph>
<glyph name="L" format="2">
  <advance width="574"/>
  <unicode hex="004C"/>
  <outline>
    <contour>
      <point x="87" y="707" type="line"/>
      <point x="174" y="707" type="line"/>
      <point x="174" y="79" type="line"/>
      <point x="562" y="79" type="line"/>
      <point x="562" y="0" type="line"/>
      <point x="87" y="0" type="line"/>
    </contour>
  </outline>
</glyph>
<glyph name="M" format="2">
  <advance width="856"/>
  <unicode hex="004D"/>
  <outline>
    <contour>
      <point x="87" y="0" type="line"/>
      <point x="87" y="707" type="line"/>
      <point x="219" y="707" type="line"/>
      <point x="431" y="318" type="line"/>
      <point x="640" y="707" type="line"/>
      <point x="769" y="707" type="line"/>
      <point x="769" y="0" type="line"/>
      <point x="682" y="0" type="line"/>
      <point x="682" y="615" type="line"/>
      <point x="449" y="185" type="line"/>
      <point x="409" y="185" type="line"/>
      <point x="174" y="615" type="line"/>
      <point x="174" y="0" type="line"/>
    </contour>
  </outline>
</glyph>
<glyph name="N" format="2">
  <advance width="741"/>
  <unicode hex="004E"/>
  <outline>
    <contour>
      <point x="87" y="0" type="line"/>
      <point x="87" y="707" type="line"/>
      <point x="198" y="707" type="line"/>
      <point x="567" y="118" type="line"/>
      <point x="567" y="707" type="line"/>
      <point x="654" y="707" type="line"/>
      <point x="654" y="0" type="line"/>
      <point x="545" y="0" type="line"/>
      <point x="174" y="587" type="line"/>
      <point x="174" y="0" type="line"/>
    </contour>
  </outline>
</glyph>
<glyph name="P" format="2">
  <advance width="630"/>
  <unicode hex="0050"/>
  <outline>
    <contour>
      <point x="87" y="707" type="line"/>
      <point x="332" y="707" type="line" smooth="yes"/>
      <point x="488" y="707"/>
      <point x="581" y="632"/>
      <point x="581" y="472" type="curve" smooth="yes"/>
      <point x="581" y="391"/>
      <point x="551" y="329"/>
      <point x="500" y="289" type="curve" smooth="yes"/>
      <point x="457" y="254"/>
      <point x="391" y="233"/>
      <point x="314" y="233" type="curve" smooth="yes"/>
      <point x="174" y="233" type="line"/>
      <point x="174" y="0" type="line"/>
      <point x="87" y="0" type="line"/>
    </contour>
    <contour>
      <point x="310" y="312" type="line" smooth="yes"/>
      <point x="361" y="312"/>
      <point x="412" y="324"/>
      <point x="443" y="352" type="curve" smooth="yes"/>
      <point x="474" y="379"/>
      <point x="492" y="415"/>
      <point x="492" y="476" type="curve" smooth="yes"/>
      <point x="492" y="577"/>
      <point x="437" y="628"/>
      <point x="328" y="628" type="curve" smooth="yes"/>
      <point x="174" y="628" type="line"/>
      <point x="174" y="312" type="line"/>
    </contour>
  </outline>
</glyph>
<glyph name="Q" format="2">
  <advance width="761"/>
  <unicode hex="0051"/>
  <outline>
    <contour>
      <point x="524" y="19" type="line"/>
      <point x="483" y="1"/>
      <point x="435" y="-8"/>
      <point x="381" y="-8" type="curve" smooth="yes"/>
      <point x="161" y="-8"/>
      <point x="48" y="146"/>
      <point x="48" y="353" type="curve" smooth="yes"/>
      <point x="48" y="561"/>
      <point x="161" y="715"/>
      <point x="381" y="715" type="curve" smooth="yes"/>
      <point x="600" y="715"/>
      <point x="713" y="561"/>
      <point x="713" y="353" type="curve" smooth="yes"/>
      <point x="713" y="232"/>
      <point x="673" y="131"/>
      <point x="597" y="66" type="curve"/>
      <point x="698" y="-74" type="line"/>
      <point x="630" y="-126" type="line"/>
    </contour>
    <contour>
      <point x="381" y="636" type="curve" smooth="yes"/>
      <point x="214" y="636"/>
      <point x="136" y="506"/>
      <point x="136" y="353" type="curve" smooth="yes"/>
      <point x="136" y="201"/>
      <point x="212" y="71"/>
      <point x="381" y="71" type="curve" smooth="yes"/>
      <point x="549" y="71"/>
      <point x="624" y="199"/>
      <point x="624" y="353" type="curve" smooth="yes"/>
      <point x="624" y="508"/>
      <point x="547" y="636"/>
    </contour>
  </outline>
</glyph>
<glyph name="R" format="2">
  <advance width="658"/>
  <unicode hex="0052"/>
  <outline>
    <contour>
      <point x="174" y="265" type="line"/>
      <point x="174" y="0" type="line"/>
      <point x="87" y="0" type="line"/>
      <point x="87" y="707" type="line"/>
      <point x="352" y="707" type="line" smooth="yes"/>
      <point x="508" y="707"/>
      <point x="605" y="647"/>
      <point x="605" y="486" type="curve" smooth="yes"/>
      <point x="605" y="368"/>
      <point x="531" y="304"/>
      <point x="447" y="280" type="curve"/>
      <point x="595" y="0" type="line"/>
      <point x="500" y="0" type="line"/>
      <point x="359" y="265" type="line"/>
    </contour>
    <contour>
      <point x="324" y="344" type="line" smooth="yes"/>
      <point x="428" y="344"/>
      <point x="514" y="369"/>
      <point x="516" y="489" type="curve" smooth="yes"/>
      <point x="517" y="590"/>
      <point x="455" y="628"/>
      <point x="343" y="628" type="curve" smooth="yes"/>
      <point x="174" y="628" type="line"/>
      <point x="174" y="344" type="line"/>
    </contour>
  </outline>
</glyph>
<glyph name="T" format="2">
  <advance width="569"/>
  <unicode hex="0054"/>
  <outline>
    <contour>
      <point x="241" y="0" type="line"/>
      <point x="241" y="628" type="line"/>
      <point x="14" y="628" type="line"/>
      <point x="14" y="707" type="line"/>
      <point x="555" y="707" type="line"/>
      <point x="555" y="628" type="line"/>
      <point x="328" y="628" type="line"/>
      <point x="328" y="0" type="line"/>
    </contour>
  </outline>
</glyph>
<glyph name="V" format="2">
  <advance width="683"/>
  <unicode hex="0056"/>
  <outline>
    <contour>
      <point x="109" y="707" type="line"/>
      <point x="342" y="75" type="line"/>
      <point x="575" y="707" type="line"/>
      <point x="669" y="707" type="line"/>
      <point x="405" y="0" type="line"/>
      <point x="279" y="0" type="line"/>
      <point x="14" y="707" type="line"/>
    </contour>
  </outline>
</glyph>
<glyph name="X" format="2">
  <advance width="593"/>
  <unicode hex="0058"/>
  <outline>
    <contour>
      <point x="466" y="707" type="line"/>
      <point x="571" y="707" type="line"/>
      <point x="351" y="356" type="line"/>
      <point x="579" y="0" type="line"/>
      <point x="474" y="0" type="line"/>
      <point x="296" y="283" type="line"/>
      <point x="116" y="0" type="line"/>
      <point x="14" y="0" type="line"/>
      <point x="241" y="353" type="line"/>
      <point x="21" y="707" type="line"/>
      <point x="127" y="707" type="line"/>
      <point x="297" y="425" type="line"/>
    </contour>
  </outline>
</glyph>
<glyph name="Z" format="2">
  <advance width="597"/>
  <unicode hex="005A"/>
  <outline>
    <contour>
      <point x="57" y="628" type="line"/>
      <point x="57" y="707" type="line"/>
      <point x="553" y="707" type="line"/>
      <point x="553" y="639" type="line"/>
      <point x="156" y="79" type="line"/>
      <point x="546" y="79" type="line"/>
      <point x="546" y="0" type="line"/>
      <point x="44" y="0" type="line"/>
      <point x="44" y="69" type="line"/>
      <point x="436" y="628" type="line"/>
    </contour>
  </outline>
</glyph>
<glyph name="bracketleft" format="2">
  <advance width="321"/>
  <unicode hex="005B"/>
  <outline>
    <contour>
      <point x="87" y="-186" type="line"/>
      <point x="87" y="791" type="line"/>
      <point x="286" y="791" type="line"/>
      <point x="286" y="719" type="line"/>
      <point x="170" y="719" type="line"/>
      <point x="170" y="-114" type="line"/>
      <point x="286" y="-114" type="line"/>
      <point x="286" y="-186" type="line"/>
    </contour>
  </outline>
</glyph>
<glyph name="backslash" format="2">
  <advance width="477"/>
  <unicode hex="005C"/>
  <outline>
    <contour>
      <point x="348" y="-168" type="line"/>
      <point x="39" y="801" type="line"/>
      <point x="129" y="801" type="line"/>
      <point x="438" y="-168" type="line"/>
    </contour>
  </outline>
</glyph>
<glyph name="bracketright" format="2">
  <advance width="321"/>
  <unicode hex="005D"/>
  <outline>
    <contour>
      <point x="234" y="791" type="line"/>
      <point x="234" y="-186" type="line"/>
      <point x="35" y="-186" type="line"/>
      <point x="35" y="-114" type="line"/>
      <point x="151" y="-114" type="line"/>
      <point x="151" y="719" type="line"/>
      <point x="35" y="719" type="line"/>
      <point x="35" y="791" type="line"/>
    </contour>
  </outline>
</glyph>
<glyph name="asciicircum" format="2">
  <advance width="463"/>
  <unicode hex="005E"/>
  <outline>
    <contour>
      <point x="261" y="715" type="line"/>
      <point x="404" y="512" type="line"/>
      <point x="318" y="512" type="line"/>
      <point x="231" y="643" type="line"/>
      <point x="144" y="512" type="line"/>
      <point x="59" y="512" type="line"/>
      <point x="201" y="715" type="line"/>
    </contour>
  </outline>
</glyph>
<glyph name="underscore" format="2">
  <advance width="463"/>
  <unicode hex="005F"/>
  <outline>
    <contour>
      <point x="-3" y="-97" type="line"/>
      <point x="466" y="-97" type="line"/>
      <point x="466" y="-174" type="line"/>
      <point x="-3" y="-174" type="line"/>
    </contour>
  </outline>
</glyph>
<glyph name="grave" format="2">
  <advance width="335"/>
  <unicode hex="0060"/>
  <outline>
    <contour>
      <point x="149" y="628" type="line"/>
      <point x="49" y="769" type="line"/>
      <point x="141" y="769" type="line"/>
      <point x="226" y="628" type="line"/>
    </contour>
  </outline>
</glyph>
<glyph name="b" format="2">
  <advance width="604"/>
  <unicode hex="0062"/>
  <outline>
    <contour>
      <point x="67" y="0" type="line"/>
      <point x="67" y="707" type="line"/>
      <point x="152" y="707" type="line"/>
      <point x="152" y="451" type="line"/>
      <point x="187" y="504"/>
      <point x="258" y="533"/>
      <point x="326" y="533" type="curve" smooth="yes"/>
      <point x="486" y="533"/>
      <point x="557" y="417"/>
      <point x="557" y="265" type="curve" smooth="yes"/>
      <point x="557" y="114"/>
      <point x="481" y="-6"/>
      <point x="316" y="-6" type="curve" smooth="yes"/>
      <point x="244" y="-6"/>
      <point x="187" y="21"/>
      <point x="152" y="64" type="curve"/>
      <point x="148" y="0" type="line"/>
    </contour>
    <contour>
      <point x="315" y="69" type="curve" smooth="yes"/>
      <point x="430" y="69"/>
      <point x="472" y="157"/>
      <point x="472" y="263" type="curve" smooth="yes"/>
      <point x="472" y="370"/>
      <point x="429" y="457"/>
      <point x="313" y="457" type="curve" smooth="yes"/>
      <point x="208" y="457"/>
      <point x="150" y="356"/>
      <point x="150" y="262" type="curve" smooth="yes"/>
      <point x="150" y="159"/>
      <point x="197" y="69"/>
    </contour>
  </outline>
</glyph>
<glyph name="c" format="2">
  <advance width="553"/>
  <unicode hex="0063"/>
  <outline>
    <contour>
      <point x="292" y="-6" type="curve" smooth="yes"/>
      <point x="125" y="-6"/>
      <point x="47" y="107"/>
      <point x="47" y="262" type="curve" smooth="yes"/>
      <point x="47" y="411"/>
      <point x="128" y="533"/>
      <point x="302" y="533" type="curve" smooth="yes"/>
      <point x="356" y="533"/>
      <point x="395" y="522"/>
      <point x="432" y="497" type="curve" smooth="yes"/>
      <point x="468" y="472"/>
      <point x="496" y="433"/>
      <point x="508" y="376" type="curve"/>
      <point x="421" y="376" type="line"/>
      <point x="401" y="435"/>
      <point x="356" y="457"/>
      <point x="297" y="457" type="curve" smooth="yes"/>
      <point x="178" y="457"/>
      <point x="132" y="362"/>
      <point x="132" y="262" type="curve" smooth="yes"/>
      <point x="132" y="158"/>
      <point x="180" y="69"/>
      <point x="295" y="69" type="curve" smooth="yes"/>
      <point x="351" y="69"/>
      <point x="408" y="89"/>
      <point x="424" y="151" type="curve"/>
      <point x="512" y="151" type="line"/>
      <point x="491" y="42"/>
      <point x="396" y="-6"/>
    </contour>
  </outline>
</glyph>
<glyph name="f" format="2">
  <advance width="366"/>
  <unicode hex="0066"/>
  <outline>
    <contour>
      <point x="118" y="0" type="line"/>
      <point x="118" y="452" type="line"/>
      <point x="32" y="452" type="line"/>
      <point x="32" y="527" type="line"/>
      <point x="118" y="527" type="line"/>
      <point x="118" y="583" type="line" smooth="yes"/>
      <point x="118" y="700"/>
      <point x="164" y="753"/>
      <point x="284" y="753" type="curve" smooth="yes"/>
      <point x="344" y="753" type="line"/>
      <point x="344" y="678" type="line"/>
      <point x="293" y="678" type="line" smooth="yes"/>
      <point x="221" y="678"/>
      <point x="203" y="641"/>
      <point x="203" y="573" type="curve" smooth="yes"/>
      <point x="203" y="527" type="line"/>
      <point x="344" y="527" type="line"/>
      <point x="344" y="452" type="line"/>
      <point x="203" y="452" type="line"/>
      <point x="203" y="0" type="line"/>
    </contour>
  </outline>
</glyph>
<glyph name="k" format="2">
  <advance width="520"/>
  <unicode hex="006B"/>
  <outline>
    <contour>
      <point x="67" y="0" type="line"/>
      <point x="67" y="707" type="line"/>
      <point x="152" y="707" type="line"/>
      <point x="152" y="300" type="line"/>
      <point x="244" y="300" type="line"/>
      <point x="402" y="527" type="line"/>
      <point x="498" y="527" type="line"/>
      <point x="322" y="276" type="line"/>
      <point x="513" y="0" type="line"/>
      <point x="413" y="0" type="line"/>
      <point x="254" y="226" type="line"/>
      <point x="152" y="226" type="line"/>
      <point x="152" y="0" type="line"/>
    </contour>
  </outline>
</glyph>
<glyph name="m" format="2">
  <advance width="819"/>
  <unicode hex="006D"/>
  <outline>
    <contour>
      <point x="153" y="464" type="line"/>
      <point x="186" y="511"/>
      <point x="236" y="533"/>
      <point x="296" y="533" type="curve" smooth="yes"/>
      <point x="369" y="533"/>
      <point x="413" y="499"/>
      <point x="436" y="448" type="curve"/>
      <point x="472" y="501"/>
      <point x="524" y="533"/>
      <point x="596" y="533" type="curve" smooth="yes"/>
      <point x="712" y="533"/>
      <point x="757" y="451"/>
      <point x="757" y="345" type="curve" smooth="yes"/>
      <point x="757" y="0" type="line"/>
      <point x="672" y="0" type="line"/>
      <point x="672" y="302" type="line" smooth="yes"/>
      <point x="672" y="370"/>
      <point x="665" y="458"/>
      <point x="573" y="458" type="curve" smooth="yes"/>
      <point x="485" y="458"/>
      <point x="455" y="363"/>
      <point x="455" y="287" type="curve" smooth="yes"/>
      <point x="455" y="0" type="line"/>
      <point x="370" y="0" type="line"/>
      <point x="370" y="303" type="line" smooth="yes"/>
      <point x="370" y="370"/>
      <point x="366" y="458"/>
      <point x="275" y="458" type="curve" smooth="yes"/>
      <point x="179" y="458"/>
      <point x="152" y="361"/>
      <point x="152" y="286" type="curve" smooth="yes"/>
      <point x="152" y="0" type="line"/>
      <point x="67" y="0" type="line"/>
      <point x="67" y="527" type="line"/>
      <point x="149" y="527" type="line"/>
    </contour>
  </outline>
</glyph>
<glyph name="p" format="2">
  <advance width="604"/>
  <unicode hex="0070"/>
  <outline>
    <contour>
      <point x="67" y="-190" type="line"/>
      <point x="67" y="527" type="line"/>
      <point x="148" y="527" type="line"/>
      <point x="152" y="448" type="line"/>
      <point x="188" y="503"/>
      <point x="254" y="532"/>
      <point x="326" y="533" type="curve"/>
      <point x="485" y="533"/>
      <point x="557" y="416"/>
      <point x="557" y="263" type="curve" smooth="yes"/>
      <point x="557" y="109"/>
      <point x="484" y="-6"/>
      <point x="322" y="-6" type="curve" smooth="yes"/>
      <point x="242" y="-6"/>
      <point x="187" y="21"/>
      <point x="152" y="66" type="curve"/>
      <point x="152" y="-190" type="line"/>
    </contour>
    <contour>
      <point x="315" y="69" type="curve" smooth="yes"/>
      <point x="430" y="69"/>
      <point x="472" y="157"/>
      <point x="472" y="263" type="curve" smooth="yes"/>
      <point x="472" y="370"/>
      <point x="429" y="457"/>
      <point x="313" y="457" type="curve" smooth="yes"/>
      <point x="245" y="457"/>
      <point x="194" y="416"/>
      <point x="169" y="360" type="curve"/>
      <point x="154" y="329"/>
      <point x="150" y="297"/>
      <point x="150" y="262" type="curve" smooth="yes"/>
      <point x="150" y="222"/>
      <point x="154" y="189"/>
      <point x="169" y="158" type="curve" smooth="yes"/>
      <point x="194" y="107"/>
      <point x="243" y="69"/>
    </contour>
  </outline>
</glyph>
<glyph name="u" format="2">
  <advance width="576"/>
  <unicode hex="0075"/>
  <outline>
    <contour>
      <point x="287" y="69" type="curve" smooth="yes"/>
      <point x="383" y="69"/>
      <point x="426" y="130"/>
      <point x="426" y="234" type="curve" smooth="yes"/>
      <point x="426" y="527" type="line"/>
      <point x="511" y="527" type="line"/>
      <point x="511" y="230" type="line" smooth="yes"/>
      <point x="511" y="70"/>
      <point x="432" y="-6"/>
      <point x="287" y="-6" type="curve" smooth="yes"/>
      <point x="142" y="-6"/>
      <point x="65" y="70"/>
      <point x="65" y="230" type="curve" smooth="yes"/>
      <point x="65" y="527" type="line"/>
      <point x="150" y="527" type="line"/>
      <point x="150" y="234" type="line" smooth="yes"/>
      <point x="150" y="130"/>
      <point x="195" y="69"/>
    </contour>
  </outline>
</glyph>
<glyph name="v" format="2">
  <advance width="536"/>
  <unicode hex="0076"/>
  <outline>
    <contour>
      <point x="7" y="527" type="line"/>
      <point x="103" y="527" type="line"/>
      <point x="269" y="82" type="line"/>
      <point x="432" y="527" type="line"/>
      <point x="529" y="527" type="line"/>
      <point x="326" y="0" type="line"/>
      <point x="210" y="0" type="line"/>
    </contour>
  </outline>
</glyph>
<glyph name="z" format="2">
  <advance width="518"/>
  <unicode hex="007A"/>
  <outline>
    <contour>
      <point x="471" y="456" type="line"/>
      <point x="153" y="74" type="line"/>
      <point x="471" y="74" type="line"/>
      <point x="471" y="0" type="line"/>
      <point x="47" y="0" type="line"/>
      <point x="47" y="72" type="line"/>
      <point x="362" y="452" type="line"/>
      <point x="47" y="452" type="line"/>
      <point x="47" y="527" type="line"/>
      <point x="471" y="527" type="line"/>
    </contour>
  </outline>
</glyph>
<glyph name="braceleft" format="2">
  <advance width="389"/>
  <unicode hex="007B"/>
  <outline>
    <contour>
      <point x="218" y="437" type="line" smooth="yes"/>
      <point x="218" y="373"/>
      <point x="203" y="327"/>
      <point x="150" y="302" type="curve"/>
      <point x="203" y="278"/>
      <point x="218" y="229"/>
      <point x="218" y="168" type="curve" smooth="yes"/>
      <point x="218" y="-38" type="line" smooth="yes"/>
      <point x="218" y="-83"/>
      <point x="216" y="-114"/>
      <point x="261" y="-114" type="curve" smooth="yes"/>
      <point x="330" y="-114" type="line"/>
      <point x="330" y="-186" type="line"/>
      <point x="252" y="-186" type="line" smooth="yes"/>
      <point x="181" y="-186"/>
      <point x="135" y="-162"/>
      <point x="135" y="-79" type="curve" smooth="yes"/>
      <point x="135" y="140" type="line" smooth="yes"/>
      <point x="135" y="209"/>
      <point x="121" y="270"/>
      <point x="37" y="270" type="curve"/>
      <point x="37" y="335" type="line"/>
      <point x="121" y="335"/>
      <point x="135" y="394"/>
      <point x="135" y="465" type="curve" smooth="yes"/>
      <point x="135" y="684" type="line" smooth="yes"/>
      <point x="135" y="767"/>
      <point x="181" y="791"/>
      <point x="252" y="791" type="curve" smooth="yes"/>
      <point x="330" y="791" type="line"/>
      <point x="330" y="719" type="line"/>
      <point x="261" y="719" type="line" smooth="yes"/>
      <point x="216" y="719"/>
      <point x="218" y="688"/>
      <point x="218" y="643" type="curve" smooth="yes"/>
    </contour>
  </outline>
</glyph>
<glyph name="bar" format="2">
  <advance width="261"/>
  <unicode hex="007C"/>
  <outline>
    <contour>
      <point x="87" y="-168" type="line"/>
      <point x="87" y="801" type="line"/>
      <point x="174" y="801" type="line"/>
      <point x="174" y="-168" type="line"/>
    </contour>
  </outline>
</glyph>
<glyph name="braceright" format="2">
  <advance width="389"/>
  <unicode hex="007D"/>
  <outline>
    <contour>
      <point x="171" y="643" type="line" smooth="yes"/>
      <point x="171" y="688"/>
      <point x="173" y="719"/>
      <point x="128" y="719" type="curve" smooth="yes"/>
      <point x="59" y="719" type="line"/>
      <point x="59" y="791" type="line"/>
      <point x="137" y="791" type="line" smooth="yes"/>
      <point x="208" y="791"/>
      <point x="254" y="767"/>
      <point x="254" y="684" type="curve" smooth="yes"/>
      <point x="254" y="465" type="line" smooth="yes"/>
      <point x="254" y="394"/>
      <point x="268" y="335"/>
      <point x="352" y="335" type="curve"/>
      <point x="352" y="270" type="line"/>
      <point x="268" y="270"/>
      <point x="254" y="209"/>
      <point x="254" y="140" type="curve" smooth="yes"/>
      <point x="254" y="-79" type="line" smooth="yes"/>
      <point x="254" y="-162"/>
      <point x="208" y="-186"/>
      <point x="137" y="-186" type="curve" smooth="yes"/>
      <point x="59" y="-186" type="line"/>
      <point x="59" y="-114" type="line"/>
      <point x="128" y="-114" type="line" smooth="yes"/>
      <point x="173" y="-114"/>
      <point x="171" y="-83"/>
      <point x="171" y="-38" type="curve" smooth="yes"/>
      <point x="171" y="168" type="line" smooth="yes"/>
      <point x="171" y="229"/>
      <point x="186" y="278"/>
      <point x="238" y="302" type="curve"/>
      <point x="186" y="327"/>
      <point x="171" y="373"/>
      <point x="171" y="437" type="curve" smooth="yes"/>
    </contour>
  </outline>
</glyph>
<glyph name="asciitilde" format="2">
  <advance width="641"/>
  <unicode hex="007E"/>
  <outline>
    <contour>
      <point x="87" y="271" type="line"/>
      <point x="87" y="358"/>
      <point x="115" y="447"/>
      <point x="222" y="447" type="curve" smooth="yes"/>
      <point x="318" y="447"/>
      <point x="359" y="332"/>
      <point x="420" y="332" type="curve" smooth="yes"/>
      <point x="474" y="332"/>
      <point x="479" y="399"/>
      <point x="479" y="439" type="curve"/>
      <point x="554" y="439" type="line"/>
      <point x="551" y="352"/>
      <point x="525" y="263"/>
      <point x="418" y="263" type="curve" smooth="yes"/>
      <point x="322" y="263"/>
      <point x="281" y="377"/>
      <point x="220" y="377" type="curve" smooth="yes"/>
      <point x="167" y="377"/>
      <point x="162" y="310"/>
      <point x="162" y="271" type="curve"/>
    </contour>
  </outline>
</glyph>
<glyph name="exclamdown" format="2">
  <advance width="273"/>
  <unicode hex="00A1"/>
  <outline>
    <contour>
      <point x="174" y="305" type="line"/>
      <point x="186" y="-182" type="line"/>
      <point x="89" y="-182" type="line"/>
      <point x="101" y="305" type="line"/>
    </contour>
    <contour>
      <point x="137" y="413" type="curve" smooth="yes"/>
      <point x="104" y="413"/>
      <point x="77" y="438"/>
      <point x="77" y="473" type="curve" smooth="yes"/>
      <point x="77" y="508"/>
      <point x="104" y="533"/>
      <point x="137" y="533" type="curve" smooth="yes"/>
      <point x="172" y="533"/>
      <point x="196" y="508"/>
      <point x="196" y="473" type="curve" smooth="yes"/>
      <point x="196" y="438"/>
      <point x="172" y="413"/>
    </contour>
  </outline>
</glyph>
<glyph name="cent" format="2">
  <advance width="584"/>
  <unicode hex="00A2"/>
  <outline>
    <contour>
      <point x="257" y="-2" type="line"/>
      <point x="124" y="19"/>
      <point x="59" y="124"/>
      <point x="59" y="263" type="curve" smooth="yes"/>
      <point x="59" y="402"/>
      <point x="126" y="508"/>
      <point x="257" y="529" type="curve"/>
      <point x="257" y="671" type="line"/>
      <point x="344" y="671" type="line"/>
      <point x="344" y="531" type="line"/>
      <point x="436" y="523"/>
      <point x="502" y="475"/>
      <point x="521" y="376" type="curve"/>
      <point x="434" y="376" type="line"/>
      <point x="418" y="435"/>
      <point x="371" y="457"/>
      <point x="312" y="457" type="curve" smooth="yes"/>
      <point x="191" y="457"/>
      <point x="143" y="367"/>
      <point x="144" y="263" type="curve" smooth="yes"/>
      <point x="144" y="212"/>
      <point x="157" y="163"/>
      <point x="184" y="128" type="curve" smooth="yes"/>
      <point x="211" y="92"/>
      <point x="257" y="69"/>
      <point x="309" y="69" type="curve" smooth="yes"/>
      <point x="365" y="69"/>
      <point x="421" y="88"/>
      <point x="437" y="151" type="curve"/>
      <point x="525" y="151" type="line"/>
      <point x="506" y="54"/>
      <point x="433" y="7"/>
      <point x="344" y="-4" type="curve"/>
      <point x="344" y="-160" type="line"/>
      <point x="257" y="-160" type="line"/>
    </contour>
  </outline>
</glyph>
<glyph name="sterling" format="2">
  <advance width="584"/>
  <unicode hex="00A3"/>
  <outline>
    <contour>
      <point x="434" y="376" type="line"/>
      <point x="434" y="297" type="line"/>
      <point x="226" y="297" type="line"/>
      <point x="226" y="79" type="line"/>
      <point x="525" y="79" type="line"/>
      <point x="525" y="0" type="line"/>
      <point x="59" y="0" type="line"/>
      <point x="59" y="79" type="line"/>
      <point x="141" y="79" type="line"/>
      <point x="141" y="297" type="line"/>
      <point x="59" y="297" type="line"/>
      <point x="59" y="376" type="line"/>
      <point x="141" y="376" type="line"/>
      <point x="141" y="521" type="line" smooth="yes"/>
      <point x="141" y="646"/>
      <point x="215" y="715"/>
      <point x="340" y="715" type="curve" smooth="yes"/>
      <point x="435" y="715"/>
      <point x="513" y="667"/>
      <point x="521" y="567" type="curve"/>
      <point x="438" y="567" type="line"/>
      <point x="431" y="611"/>
      <point x="390" y="636"/>
      <point x="343" y="636" type="curve" smooth="yes"/>
      <point x="281" y="636"/>
      <point x="226" y="617"/>
      <point x="226" y="518" type="curve" smooth="yes"/>
      <point x="226" y="376" type="line"/>
    </contour>
  </outline>
</glyph>
<glyph name="yen" format="2">
  <advance width="664"/>
  <unicode hex="00A5"/>
  <outline>
    <contour>
      <point x="526" y="707" type="line"/>
      <point x="625" y="707" type="line"/>
      <point x="409" y="324" type="line"/>
      <point x="519" y="324" type="line"/>
      <point x="519" y="247" type="line"/>
      <point x="376" y="247" type="line"/>
      <point x="376" y="166" type="line"/>
      <point x="519" y="166" type="line"/>
      <point x="519" y="89" type="line"/>
      <point x="376" y="89" type="line"/>
      <point x="376" y="0" type="line"/>
      <point x="289" y="0" type="line"/>
      <point x="289" y="89" type="line"/>
      <point x="144" y="89" type="line"/>
      <point x="144" y="166" type="line"/>
      <point x="289" y="166" type="line"/>
      <point x="289" y="247" type="line"/>
      <point x="144" y="247" type="line"/>
      <point x="144" y="324" type="line"/>
      <point x="256" y="324" type="line"/>
      <point x="39" y="707" type="line"/>
      <point x="139" y="707" type="line"/>
      <point x="334" y="353" type="line"/>
    </contour>
  </outline>
</glyph>
<glyph name="section" format="2">
  <advance width="550"/>
  <unicode hex="00A7"/>
  <outline>
    <contour>
      <point x="277" y="639" type="curve" smooth="yes"/>
      <point x="248" y="639"/>
      <point x="224" y="636"/>
      <point x="202" y="627" type="curve" smooth="yes"/>
      <point x="180" y="618"/>
      <point x="161" y="599"/>
      <point x="161" y="567" type="curve" smooth="yes"/>
      <point x="161" y="519"/>
      <point x="209" y="507"/>
      <point x="246" y="499" type="curve" smooth="yes"/>
      <point x="293" y="489"/>
      <point x="365" y="476"/>
      <point x="397" y="467" type="curve" smooth="yes"/>
      <point x="465" y="448"/>
      <point x="488" y="407"/>
      <point x="488" y="346" type="curve" smooth="yes"/>
      <point x="488" y="305"/>
      <point x="466" y="267"/>
      <point x="439" y="246" type="curve"/>
      <point x="475" y="227"/>
      <point x="491" y="194"/>
      <point x="490" y="143" type="curve" smooth="yes"/>
      <point x="488" y="24"/>
      <point x="376" y="-8"/>
      <point x="288" y="-8" type="curve"/>
      <point x="227" y="-7"/>
      <point x="180" y="2"/>
      <point x="139" y="25" type="curve" smooth="yes"/>
      <point x="98" y="48"/>
      <point x="67" y="84"/>
      <point x="59" y="141" type="curve"/>
      <point x="145" y="141" type="line"/>
      <point x="165" y="80"/>
      <point x="244" y="67"/>
      <point x="280" y="67" type="curve" smooth="yes"/>
      <point x="328" y="67"/>
      <point x="405" y="70"/>
      <point x="405" y="137" type="curve" smooth="yes"/>
      <point x="405" y="189"/>
      <point x="364" y="194"/>
      <point x="323" y="202" type="curve" smooth="yes"/>
      <point x="266" y="213"/>
      <point x="187" y="222"/>
      <point x="135" y="252" type="curve" smooth="yes"/>
      <point x="100" y="272"/>
      <point x="72" y="313"/>
      <point x="72" y="364" type="curve" smooth="yes"/>
      <point x="72" y="408"/>
      <point x="88" y="447"/>
      <point x="124" y="472" type="curve"/>
      <point x="95" y="496"/>
      <point x="79" y="527"/>
      <point x="80" y="565" type="curve" smooth="yes"/>
      <point x="81" y="623"/>
      <point x="110" y="662"/>
      <point x="148" y="684" type="curve" smooth="yes"/>
      <point x="186" y="706"/>
      <point x="230" y="713"/>
      <point x="279" y="713" type="curve" smooth="yes"/>
      <point x="373" y="713"/>
      <point x="462" y="671"/>
      <point x="473" y="571" type="curve"/>
      <point x="394" y="571" type="line"/>
      <point x="389" y="595"/>
      <point x="371" y="612"/>
      <point x="350" y="623" type="curve" smooth="yes"/>
      <point x="329" y="634"/>
      <point x="306" y="639"/>
    </contour>
    <contour>
      <point x="185" y="436" type="curve"/>
      <point x="168" y="421"/>
      <point x="155" y="393"/>
      <point x="155" y="368" type="curve" smooth="yes"/>
      <point x="155" y="325"/>
      <point x="191" y="306"/>
      <point x="239" y="297" type="curve" smooth="yes"/>
      <point x="279" y="290"/>
      <point x="337" y="279"/>
      <point x="372" y="274" type="curve"/>
      <point x="391" y="282"/>
      <point x="407" y="308"/>
      <point x="407" y="335" type="curve" smooth="yes"/>
      <point x="408" y="380"/>
      <point x="377" y="394"/>
      <point x="332" y="405" type="curve" smooth="yes"/>
      <point x="285" y="416"/>
      <point x="232" y="423"/>
    </contour>
  </outline>
</glyph>
<glyph name="dieresis" format="2">
  <advance width="574"/>
  <unicode hex="00A8"/>
  <outline>
    <contour>
      <point x="174" y="718" type="curve" smooth="yes"/>
      <point x="207" y="718"/>
      <point x="232" y="695"/>
      <point x="232" y="662" type="curve" smooth="yes"/>
      <point x="232" y="629"/>
      <point x="207" y="606"/>
      <point x="174" y="606" type="curve" smooth="yes"/>
      <point x="142" y="606"/>
      <point x="117" y="629"/>
      <point x="117" y="662" type="curve" smooth="yes"/>
      <point x="117" y="695"/>
      <point x="142" y="718"/>
    </contour>
    <contour>
      <point x="399" y="718" type="curve" smooth="yes"/>
      <point x="432" y="718"/>
      <point x="457" y="695"/>
      <point x="457" y="662" type="curve" smooth="yes"/>
      <point x="457" y="629"/>
      <point x="432" y="606"/>
      <point x="399" y="606" type="curve" smooth="yes"/>
      <point x="367" y="606"/>
      <point x="343" y="629"/>
      <point x="343" y="662" type="curve" smooth="yes"/>
      <point x="343" y="695"/>
      <point x="367" y="718"/>
    </contour>
  </outline>
</glyph>
<glyph name="copyright" format="2">
  <advance width="927"/>
  <unicode hex="00A9"/>
  <outline>
    <contour>
      <point x="463" y="715" type="curve" smooth="yes"/>
      <point x="700" y="715"/>
      <point x="868" y="552"/>
      <point x="868" y="296" type="curve" smooth="yes"/>
      <point x="868" y="37"/>
      <point x="704" y="-122"/>
      <point x="463" y="-122" type="curve" smooth="yes"/>
      <point x="222" y="-122"/>
      <point x="59" y="37"/>
      <point x="59" y="296" type="curve" smooth="yes"/>
      <point x="59" y="552"/>
      <point x="227" y="715"/>
    </contour>
    <contour>
      <point x="463" y="641" type="curve" smooth="yes"/>
      <point x="274" y="641"/>
      <point x="139" y="508"/>
      <point x="139" y="296" type="curve" smooth="yes"/>
      <point x="139" y="84"/>
      <point x="270" y="-48"/>
      <point x="463" y="-48" type="curve" smooth="yes"/>
      <point x="656" y="-48"/>
      <point x="787" y="84"/>
      <point x="787" y="296" type="curve" smooth="yes"/>
      <point x="787" y="508"/>
      <point x="652" y="641"/>
    </contour>
    <contour>
      <point x="470" y="83" type="curve" smooth="yes"/>
      <point x="339" y="83"/>
      <point x="275" y="173"/>
      <point x="275" y="297" type="curve" smooth="yes"/>
      <point x="275" y="420"/>
      <point x="341" y="510"/>
      <point x="469" y="510" type="curve" smooth="yes"/>
      <point x="565" y="510"/>
      <point x="626" y="471"/>
      <point x="645" y="375" type="curve"/>
      <point x="564" y="375" type="line"/>
      <point x="552" y="422"/>
      <point x="517" y="437"/>
      <point x="470" y="437" type="curve" smooth="yes"/>
      <point x="388" y="437"/>
      <point x="356" y="372"/>
      <point x="356" y="297" type="curve" smooth="yes"/>
      <point x="356" y="221"/>
      <point x="389" y="156"/>
      <point x="471" y="156" type="curve" smooth="yes"/>
      <point x="518" y="156"/>
      <point x="554" y="171"/>
      <point x="566" y="218" type="curve"/>
      <point x="649" y="218" type="line"/>
      <point x="630" y="126"/>
      <point x="563" y="83"/>
    </contour>
  </outline>
</glyph>
<glyph name="ordfeminine" format="2">
  <advance width="366"/>
  <unicode hex="00AA"/>
  <outline>
    <contour>
      <point x="250" y="442" type="line"/>
      <point x="222" y="417"/>
      <point x="190" y="407"/>
      <point x="158" y="407" type="curve" smooth="yes"/>
      <point x="99" y="407"/>
      <point x="50" y="439"/>
      <point x="50" y="500" type="curve" smooth="yes"/>
      <point x="50" y="572"/>
      <point x="108" y="593"/>
      <point x="169" y="593" type="curve" smooth="yes"/>
      <point x="245" y="593" type="line"/>
      <point x="242" y="633"/>
      <point x="227" y="658"/>
      <point x="184" y="659" type="curve" smooth="yes"/>
      <point x="156" y="659"/>
      <point x="133" y="652"/>
      <point x="126" y="627" type="curve"/>
      <point x="60" y="627" type="line"/>
      <point x="72" y="691"/>
      <point x="121" y="718"/>
      <point x="184" y="718" type="curve" smooth="yes"/>
      <point x="276" y="718"/>
      <point x="306" y="657"/>
      <point x="306" y="574" type="curve" smooth="yes"/>
      <point x="306" y="410" type="line"/>
      <point x="255" y="410" type="line"/>
    </contour>
    <contour>
      <point x="245" y="540" type="curve"/>
      <point x="192" y="540" type="line" smooth="yes"/>
      <point x="166" y="540"/>
      <point x="112" y="544"/>
      <point x="112" y="504" type="curve" smooth="yes"/>
      <point x="112" y="476"/>
      <point x="135" y="465"/>
      <point x="164" y="465" type="curve" smooth="yes"/>
      <point x="185" y="465"/>
      <point x="207" y="468"/>
      <point x="224" y="483" type="curve"/>
      <point x="243" y="498"/>
      <point x="245" y="517"/>
    </contour>
  </outline>
</glyph>
<glyph name="guillemotleft" format="2">
  <advance width="476"/>
  <unicode hex="00AB"/>
  <outline>
    <contour>
      <point x="243" y="90" type="line"/>
      <point x="152" y="90" type="line"/>
      <point x="39" y="264" type="line"/>
      <point x="152" y="438" type="line"/>
      <point x="243" y="438" type="line"/>
      <point x="125" y="264" type="line"/>
    </contour>
    <contour>
      <point x="417" y="90" type="line"/>
      <point x="327" y="90" type="line"/>
      <point x="214" y="264" type="line"/>
      <point x="327" y="438" type="line"/>
      <point x="417" y="438" type="line"/>
      <point x="302" y="264" type="line"/>
    </contour>
  </outline>
</glyph>
<glyph name="uni00AD" format="2">
  <advance width="453"/>
  <unicode hex="00AD"/>
  <outline>
    <contour>
      <point x="74" y="321" type="line"/>
      <point x="379" y="321" type="line"/>
      <point x="379" y="243" type="line"/>
      <point x="74" y="243" type="line"/>
    </contour>
  </outline>
</glyph>
<glyph name="registered" format="2">
  <advance width="483"/>
  <unicode hex="00AE"/>
  <outline>
    <contour>
      <point x="242" y="744" type="curve" smooth="yes"/>
      <point x="359" y="744"/>
      <point x="431" y="668"/>
      <point x="431" y="552" type="curve" smooth="yes"/>
      <point x="431" y="435"/>
      <point x="359" y="365"/>
      <point x="242" y="365" type="curve" smooth="yes"/>
      <point x="125" y="365"/>
      <point x="52" y="435"/>
      <point x="52" y="552" type="curve" smooth="yes"/>
      <point x="52" y="668"/>
      <point x="125" y="744"/>
    </contour>
    <contour>
      <point x="242" y="699" type="curve" smooth="yes"/>
      <point x="153" y="699"/>
      <point x="100" y="640"/>
      <point x="100" y="552" type="curve" smooth="yes"/>
      <point x="100" y="464"/>
      <point x="154" y="412"/>
      <point x="242" y="412" type="curve" smooth="yes"/>
      <point x="330" y="412"/>
      <point x="382" y="464"/>
      <point x="382" y="552" type="curve" smooth="yes"/>
      <point x="382" y="640"/>
      <point x="331" y="699"/>
    </contour>
    <contour>
      <point x="338" y="459" type="line"/>
      <point x="285" y="459" type="line"/>
      <point x="238" y="528" type="line"/>
      <point x="214" y="528" type="line"/>
      <point x="214" y="459" type="line"/>
      <point x="170" y="459" type="line"/>
      <point x="170" y="656" type="line"/>
      <point x="253" y="656" type="line" smooth="yes"/>
      <point x="296" y="656"/>
      <point x="325" y="640"/>
      <point x="325" y="593" type="curve" smooth="yes"/>
      <point x="325" y="562"/>
      <point x="313" y="543"/>
      <point x="288" y="534" type="curve"/>
    </contour>
    <contour>
      <point x="253" y="568" type="line" smooth="yes"/>
      <point x="269" y="568"/>
      <point x="281" y="576"/>
      <point x="281" y="592" type="curve" smooth="yes"/>
      <point x="281" y="607"/>
      <point x="269" y="614"/>
      <point x="256" y="614" type="curve" smooth="yes"/>
      <point x="214" y="614" type="line"/>
      <point x="214" y="568" type="line"/>
    </contour>
  </outline>
</glyph>
<glyph name="degree" format="2">
  <advance width="370"/>
  <unicode hex="00B0"/>
  <outline>
    <contour>
      <point x="186" y="818" type="curve" smooth="yes"/>
      <point x="254" y="818"/>
      <point x="311" y="768"/>
      <point x="311" y="688" type="curve" smooth="yes"/>
      <point x="311" y="609"/>
      <point x="253" y="564"/>
      <point x="183" y="564" type="curve" smooth="yes"/>
      <point x="111" y="564"/>
      <point x="59" y="608"/>
      <point x="59" y="688" type="curve" smooth="yes"/>
      <point x="59" y="768"/>
      <point x="117" y="818"/>
    </contour>
    <contour>
      <point x="185" y="618" type="curve" smooth="yes"/>
      <point x="224" y="618"/>
      <point x="252" y="643"/>
      <point x="252" y="690" type="curve" smooth="yes"/>
      <point x="252" y="737"/>
      <point x="222" y="762"/>
      <point x="185" y="762" type="curve" smooth="yes"/>
      <point x="148" y="762"/>
      <point x="117" y="737"/>
      <point x="117" y="690" type="curve" smooth="yes"/>
      <point x="117" y="643"/>
      <point x="146" y="618"/>
    </contour>
  </outline>
</glyph>
<glyph name="plusminus" format="2">
  <advance width="521"/>
  <unicode hex="00B1"/>
  <outline>
    <contour>
      <point x="74" y="446" type="line"/>
      <point x="221" y="446" type="line"/>
      <point x="221" y="596" type="line"/>
      <point x="299" y="596" type="line"/>
      <point x="299" y="446" type="line"/>
      <point x="447" y="446" type="line"/>
      <point x="447" y="369" type="line"/>
      <point x="299" y="369" type="line"/>
      <point x="299" y="256" type="line"/>
      <point x="221" y="256" type="line"/>
      <point x="221" y="369" type="line"/>
      <point x="74" y="369" type="line"/>
    </contour>
    <contour>
      <point x="74" y="214" type="line"/>
      <point x="447" y="214" type="line"/>
      <point x="447" y="137" type="line"/>
      <point x="74" y="137" type="line"/>
    </contour>
  </outline>
</glyph>
<glyph name="twosuperior" format="2">
  <advance width="372"/>
  <unicode hex="00B2"/>
  <outline>
    <contour>
      <point x="161" y="526" type="line" smooth="yes"/>
      <point x="188" y="549"/>
      <point x="240" y="590"/>
      <point x="240" y="628" type="curve" smooth="yes"/>
      <point x="240" y="664"/>
      <point x="219" y="683"/>
      <point x="184" y="683" type="curve" smooth="yes"/>
      <point x="157" y="683"/>
      <point x="133" y="671"/>
      <point x="130" y="642" type="curve"/>
      <point x="60" y="642" type="line"/>
      <point x="62" y="716"/>
      <point x="121" y="750"/>
      <point x="189" y="750" type="curve" smooth="yes"/>
      <point x="260" y="751"/>
      <point x="312" y="711"/>
      <point x="312" y="639" type="curve" smooth="yes"/>
      <point x="312" y="580"/>
      <point x="278" y="541"/>
      <point x="238" y="506" type="curve" smooth="yes"/>
      <point x="214" y="485"/>
      <point x="190" y="467"/>
      <point x="166" y="446" type="curve"/>
      <point x="308" y="446" type="line"/>
      <point x="308" y="380" type="line"/>
      <point x="62" y="380" type="line"/>
      <point x="62" y="441" type="line"/>
    </contour>
  </outline>
</glyph>
<glyph name="threesuperior" format="2">
  <advance width="399"/>
  <unicode hex="00B3"/>
  <outline>
    <contour>
      <point x="70" y="642" type="line"/>
      <point x="77" y="716"/>
      <point x="129" y="750"/>
      <point x="200" y="750" type="curve" smooth="yes"/>
      <point x="262" y="750"/>
      <point x="324" y="725"/>
      <point x="324" y="654" type="curve" smooth="yes"/>
      <point x="324" y="622"/>
      <point x="307" y="593"/>
      <point x="279" y="578" type="curve"/>
      <point x="322" y="564"/>
      <point x="338" y="529"/>
      <point x="338" y="486" type="curve" smooth="yes"/>
      <point x="338" y="410"/>
      <point x="272" y="376"/>
      <point x="201" y="376" type="curve" smooth="yes"/>
      <point x="130" y="376"/>
      <point x="71" y="408"/>
      <point x="60" y="486" type="curve"/>
      <point x="134" y="486" type="line"/>
      <point x="143" y="454"/>
      <point x="170" y="443"/>
      <point x="201" y="443" type="curve" smooth="yes"/>
      <point x="234" y="443"/>
      <point x="264" y="456"/>
      <point x="264" y="493" type="curve" smooth="yes"/>
      <point x="264" y="528"/>
      <point x="233" y="535"/>
      <point x="205" y="535" type="curve" smooth="yes"/>
      <point x="168" y="535" type="line"/>
      <point x="168" y="596" type="line"/>
      <point x="193" y="596" type="line" smooth="yes"/>
      <point x="220" y="596"/>
      <point x="251" y="610"/>
      <point x="251" y="641" type="curve" smooth="yes"/>
      <point x="251" y="673"/>
      <point x="226" y="684"/>
      <point x="199" y="684" type="curve" smooth="yes"/>
      <point x="171" y="684"/>
      <point x="149" y="670"/>
      <point x="143" y="642" type="curve"/>
    </contour>
  </outline>
</glyph>
<glyph name="acute" format="2">
  <advance width="335"/>
  <unicode hex="00B4"/>
  <outline>
    <contour>
      <point x="194" y="769" type="line"/>
      <point x="286" y="769" type="line"/>
      <point x="186" y="628" type="line"/>
      <point x="109" y="628" type="line"/>
    </contour>
  </outline>
</glyph>
<glyph name="paragraph" format="2">
  <advance width="635"/>
  <unicode hex="00B6"/>
  <outline>
    <contour>
      <point x="260" y="0" type="line"/>
      <point x="260" y="314" type="line"/>
      <point x="136" y="314"/>
      <point x="30" y="366"/>
      <point x="30" y="518" type="curve" smooth="yes"/>
      <point x="30" y="635"/>
      <point x="123" y="707"/>
      <point x="235" y="707" type="curve" smooth="yes"/>
      <point x="605" y="707" type="line"/>
      <point x="605" y="628" type="line"/>
      <point x="518" y="628" type="line"/>
      <point x="518" y="0" type="line"/>
      <point x="431" y="0" type="line"/>
      <point x="431" y="628" type="line"/>
      <point x="347" y="628" type="line"/>
      <point x="347" y="0" type="line"/>
    </contour>
  </outline>
</glyph>
<glyph name="periodcentered" format="2">
  <advance width="249"/>
  <unicode hex="00B7"/>
  <outline>
    <contour>
      <point x="124" y="420" type="curve" smooth="yes"/>
      <point x="156" y="420"/>
      <point x="182" y="397"/>
      <point x="182" y="364" type="curve" smooth="yes"/>
      <point x="182" y="331"/>
      <point x="157" y="307"/>
      <point x="124" y="307" type="curve" smooth="yes"/>
      <point x="90" y="307"/>
      <point x="67" y="330"/>
      <point x="67" y="364" type="curve" smooth="yes"/>
      <point x="67" y="397"/>
      <point x="91" y="420"/>
    </contour>
  </outline>
</glyph>
<glyph name="cedilla" format="2">
  <advance width="598"/>
  <unicode hex="00B8"/>
  <outline>
    <contour>
      <point x="295" y="-59" type="line"/>
      <point x="303" y="-58"/>
      <point x="311" y="-57"/>
      <point x="318" y="-57" type="curve" smooth="yes"/>
      <point x="370" y="-57"/>
      <point x="397" y="-87"/>
      <point x="397" y="-138" type="curve" smooth="yes"/>
      <point x="397" y="-182"/>
      <point x="375" y="-214"/>
      <point x="344" y="-231" type="curve" smooth="yes"/>
      <point x="303" y="-253"/>
      <point x="256" y="-253"/>
      <point x="217" y="-253" type="curve"/>
      <point x="217" y="-198" type="line"/>
      <point x="262" y="-198"/>
      <point x="328" y="-197"/>
      <point x="328" y="-145" type="curve" smooth="yes"/>
      <point x="328" y="-110"/>
      <point x="284" y="-110"/>
      <point x="271" y="-110" type="curve" smooth="yes"/>
      <point x="258" y="-110"/>
      <point x="236" y="-112"/>
      <point x="219" y="-119" type="curve"/>
      <point x="248" y="8" type="line"/>
      <point x="310" y="8" type="line"/>
    </contour>
  </outline>
</glyph>
<glyph name="ordmasculine" format="2">
  <advance width="387"/>
  <unicode hex="00BA"/>
  <outline>
    <contour>
      <point x="125" y="559" type="curve" smooth="yes"/>
      <point x="125" y="516"/>
      <point x="135" y="463"/>
      <point x="193" y="463" type="curve" smooth="yes"/>
      <point x="251" y="463"/>
      <point x="261" y="518"/>
      <point x="261" y="559" type="curve" smooth="yes"/>
      <point x="261" y="602"/>
      <point x="251" y="655"/>
      <point x="193" y="655" type="curve" smooth="yes"/>
      <point x="136" y="655"/>
      <point x="125" y="602"/>
    </contour>
    <contour>
      <point x="327" y="559" type="curve" smooth="yes"/>
      <point x="327" y="480"/>
      <point x="292" y="404"/>
      <point x="193" y="404" type="curve" smooth="yes"/>
      <point x="94" y="404"/>
      <point x="60" y="480"/>
      <point x="60" y="559" type="curve" smooth="yes"/>
      <point x="60" y="638"/>
      <point x="94" y="715"/>
      <point x="193" y="715" type="curve" smooth="yes"/>
      <point x="292" y="715"/>
      <point x="327" y="638"/>
    </contour>
  </outline>
</glyph>
<glyph name="guillemotright" format="2">
  <advance width="476"/>
  <unicode hex="00BB"/>
  <outline>
    <contour>
      <point x="233" y="438" type="line"/>
      <point x="324" y="438" type="line"/>
      <point x="437" y="264" type="line"/>
      <point x="324" y="90" type="line"/>
      <point x="233" y="90" type="line"/>
      <point x="351" y="264" type="line"/>
    </contour>
    <contour>
      <point x="59" y="438" type="line"/>
      <point x="149" y="438" type="line"/>
      <point x="262" y="264" type="line"/>
      <point x="149" y="90" type="line"/>
      <point x="59" y="90" type="line"/>
      <point x="174" y="264" type="line"/>
    </contour>
  </outline>
</glyph>
<glyph name="questiondown" format="2">
  <advance width="513"/>
  <unicode hex="00BF"/>
  <outline>
    <contour>
      <point x="322" y="312" type="line"/>
      <point x="323" y="305"/>
      <point x="323" y="298"/>
      <point x="323" y="291" type="curve" smooth="yes"/>
      <point x="323" y="259"/>
      <point x="318" y="229"/>
      <point x="287" y="192" type="curve" smooth="yes"/>
      <point x="260" y="161"/>
      <point x="215" y="124"/>
      <point x="186" y="91" type="curve"/>
      <point x="160" y="63"/>
      <point x="142" y="25"/>
      <point x="142" y="-8" type="curve" smooth="yes"/>
      <point x="142" y="-76"/>
      <point x="193" y="-111"/>
      <point x="260" y="-111" type="curve" smooth="yes"/>
      <point x="315" y="-111"/>
      <point x="374" y="-91"/>
      <point x="388" y="-31" type="curve"/>
      <point x="476" y="-31" type="line"/>
      <point x="463" y="-138"/>
      <point x="363" y="-190"/>
      <point x="260" y="-190" type="curve" smooth="yes"/>
      <point x="204" y="-190"/>
      <point x="153" y="-175"/>
      <point x="116" y="-146" type="curve" smooth="yes"/>
      <point x="79" y="-117"/>
      <point x="54" y="-76"/>
      <point x="55" y="-12" type="curve" smooth="yes"/>
      <point x="55" y="49"/>
      <point x="81" y="98"/>
      <point x="123" y="141" type="curve" smooth="yes"/>
      <point x="151" y="171"/>
      <point x="202" y="213"/>
      <point x="222" y="246" type="curve" smooth="yes"/>
      <point x="232" y="263"/>
      <point x="235" y="287"/>
      <point x="235" y="304" type="curve" smooth="yes"/>
      <point x="235" y="312" type="line"/>
    </contour>
    <contour>
      <point x="280" y="413" type="curve" smooth="yes"/>
      <point x="245" y="413"/>
      <point x="220" y="438"/>
      <point x="220" y="473" type="curve" smooth="yes"/>
      <point x="220" y="508"/>
      <point x="245" y="533"/>
      <point x="280" y="533" type="curve" smooth="yes"/>
      <point x="315" y="533"/>
      <point x="339" y="508"/>
      <point x="339" y="473" type="curve" smooth="yes"/>
      <point x="339" y="438"/>
      <point x="315" y="413"/>
    </contour>
  </outline>
</glyph>
<glyph name="Acircumflex" format="2">
  <advance width="670"/>
  <unicode hex="00C2"/>
  <outline>
    <contour>
      <point x="660" y="0" type="line"/>
      <point x="566" y="0" type="line"/>
      <point x="510" y="152" type="line"/>
      <point x="160" y="152" type="line"/>
      <point x="104" y="0" type="line"/>
      <point x="10" y="0" type="line"/>
      <point x="273" y="707" type="line"/>
      <point x="398" y="707" type="line"/>
    </contour>
    <contour>
      <point x="481" y="231" type="line"/>
      <point x="335" y="631" type="line"/>
      <point x="189" y="231" type="line"/>
    </contour>
    <contour>
      <point x="369" y="949" type="line"/>
      <point x="503" y="786" type="line"/>
      <point x="417" y="786" type="line"/>
      <point x="339" y="883" type="line"/>
      <point x="261" y="786" type="line"/>
      <point x="176" y="786" type="line"/>
      <point x="309" y="949" type="line"/>
    </contour>
  </outline>
</glyph>
<glyph name="Atilde" format="2">
  <advance width="670"/>
  <unicode hex="00C3"/>
  <outline>
    <contour>
      <point x="566" y="0" type="line"/>
      <point x="510" y="152" type="line"/>
      <point x="160" y="152" type="line"/>
      <point x="104" y="0" type="line"/>
      <point x="10" y="0" type="line"/>
      <point x="273" y="707" type="line"/>
      <point x="398" y="707" type="line"/>
      <point x="660" y="0" type="line"/>
    </contour>
    <contour>
      <point x="335" y="631" type="line"/>
      <point x="189" y="231" type="line"/>
      <point x="481" y="231" type="line"/>
    </contour>
    <contour>
      <point x="405" y="773" type="curve" smooth="yes"/>
      <point x="339" y="773"/>
      <point x="306" y="845"/>
      <point x="273" y="845" type="curve" smooth="yes"/>
      <point x="242" y="845"/>
      <point x="243" y="799"/>
      <point x="243" y="778" type="curve"/>
      <point x="174" y="778" type="line"/>
      <point x="174" y="843"/>
      <point x="194" y="908"/>
      <point x="274" y="908" type="curve" smooth="yes"/>
      <point x="340" y="908"/>
      <point x="373" y="835"/>
      <point x="406" y="835" type="curve" smooth="yes"/>
      <point x="439" y="835"/>
      <point x="437" y="881"/>
      <point x="437" y="903" type="curve"/>
      <point x="507" y="903" type="line"/>
      <point x="504" y="839"/>
      <point x="486" y="773"/>
    </contour>
  </outline>
</glyph>
<glyph name="Adieresis" format="2">
  <advance width="670"/>
  <unicode hex="00C4"/>
  <outline>
    <contour>
      <point x="226" y="900" type="curve" smooth="yes"/>
      <point x="259" y="900"/>
      <point x="284" y="877"/>
      <point x="284" y="844" type="curve" smooth="yes"/>
      <point x="284" y="811"/>
      <point x="259" y="788"/>
      <point x="226" y="788" type="curve" smooth="yes"/>
      <point x="194" y="788"/>
      <point x="169" y="811"/>
      <point x="169" y="844" type="curve" smooth="yes"/>
      <point x="169" y="877"/>
      <point x="194" y="900"/>
    </contour>
    <contour>
      <point x="451" y="900" type="curve" smooth="yes"/>
      <point x="484" y="900"/>
      <point x="509" y="877"/>
      <point x="509" y="844" type="curve" smooth="yes"/>
      <point x="509" y="811"/>
      <point x="484" y="788"/>
      <point x="451" y="788" type="curve" smooth="yes"/>
      <point x="419" y="788"/>
      <point x="395" y="811"/>
      <point x="395" y="844" type="curve" smooth="yes"/>
      <point x="395" y="877"/>
      <point x="419" y="900"/>
    </contour>
    <contour>
      <point x="660" y="0" type="line"/>
      <point x="566" y="0" type="line"/>
      <point x="510" y="152" type="line"/>
      <point x="160" y="152" type="line"/>
      <point x="104" y="0" type="line"/>
      <point x="10" y="0" type="line"/>
      <point x="273" y="707" type="line"/>
      <point x="398" y="707" type="line"/>
    </contour>
    <contour>
      <point x="481" y="231" type="line"/>
      <point x="335" y="631" type="line"/>
      <point x="189" y="231" type="line"/>
    </contour>
  </outline>
</glyph>
<glyph name="Aring" format="2">
  <advance width="670"/>
  <unicode hex="00C5"/>
  <outline>
    <contour>
      <point x="566" y="0" type="line"/>
      <point x="510" y="152" type="line"/>
      <point x="160" y="152" type="line"/>
      <point x="104" y="0" type="line"/>
      <point x="10" y="0" type="line"/>
      <point x="273" y="707" type="line"/>
      <point x="398" y="707" type="line"/>
      <point x="660" y="0" type="line"/>
    </contour>
    <contour>
      <point x="335" y="631" type="line"/>
      <point x="189" y="231" type="line"/>
      <point x="481" y="231" type="line"/>
    </contour>
    <contour>
      <point x="335" y="949" type="curve" smooth="yes"/>
      <point x="394" y="949"/>
      <point x="433" y="905"/>
      <point x="433" y="848" type="curve" smooth="yes"/>
      <point x="433" y="789"/>
      <point x="391" y="753"/>
      <point x="334" y="753" type="curve" smooth="yes"/>
      <point x="275" y="753"/>
      <point x="236" y="789"/>
      <point x="236" y="848" type="curve" smooth="yes"/>
      <point x="236" y="907"/>
      <point x="276" y="949"/>
    </contour>
    <contour>
      <point x="334" y="805" type="curve" smooth="yes"/>
      <point x="361" y="805"/>
      <point x="377" y="823"/>
      <point x="377" y="850" type="curve" smooth="yes"/>
      <point x="377" y="877"/>
      <point x="361" y="895"/>
      <point x="334" y="895" type="curve" smooth="yes"/>
      <point x="307" y="895"/>
      <point x="291" y="877"/>
      <point x="291" y="850" type="curve" smooth="yes"/>
      <point x="291" y="823"/>
      <point x="307" y="805"/>
    </contour>
  </outline>
</glyph>
<glyph name="AE" format="2">
  <advance width="923"/>
  <unicode hex="00C6"/>
  <outline>
    <contour>
      <point x="105" y="0" type="line"/>
      <point x="10" y="0" type="line"/>
      <point x="371" y="707" type="line"/>
      <point x="875" y="707" type="line"/>
      <point x="875" y="628" type="line"/>
      <point x="521" y="628" type="line"/>
      <point x="521" y="390" type="line"/>
      <point x="836" y="390" type="line"/>
      <point x="836" y="310" type="line"/>
      <point x="521" y="310" type="line"/>
      <point x="521" y="79" type="line"/>
      <point x="875" y="79" type="line"/>
      <point x="875" y="0" type="line"/>
      <point x="434" y="0" type="line"/>
      <point x="434" y="151" type="line"/>
      <point x="183" y="151" type="line"/>
    </contour>
    <contour>
      <point x="434" y="628" type="line"/>
      <point x="423" y="628" type="line"/>
      <point x="225" y="231" type="line"/>
      <point x="434" y="231" type="line"/>
    </contour>
  </outline>
</glyph>
<glyph name="Ccedilla" format="2">
  <advance width="710"/>
  <unicode hex="00C7"/>
  <outline>
    <contour>
      <point x="372" y="636" type="curve" smooth="yes"/>
      <point x="204" y="636"/>
      <point x="137" y="503"/>
      <point x="137" y="356" type="curve" smooth="yes"/>
      <point x="137" y="199"/>
      <point x="210" y="71"/>
      <point x="375" y="71" type="curve" smooth="yes"/>
      <point x="475" y="71"/>
      <point x="547" y="113"/>
      <point x="567" y="185" type="curve"/>
      <point x="662" y="185" type="line"/>
      <point x="633" y="72"/>
      <point x="539" y="0"/>
      <point x="398" y="-7" type="curve"/>
      <point x="386" y="-61" type="line"/>
      <point x="394" y="-60"/>
      <point x="402" y="-59"/>
      <point x="409" y="-59" type="curve" smooth="yes"/>
      <point x="460" y="-59"/>
      <point x="486" y="-90"/>
      <point x="488" y="-140" type="curve" smooth="yes"/>
      <point x="489" y="-182"/>
      <point x="463" y="-219"/>
      <point x="430" y="-236" type="curve" smooth="yes"/>
      <point x="397" y="-252"/>
      <point x="370" y="-255"/>
      <point x="341" y="-255" type="curve" smooth="yes"/>
      <point x="330" y="-255"/>
      <point x="320" y="-254"/>
      <point x="308" y="-253" type="curve"/>
      <point x="308" y="-200" type="line"/>
      <point x="353" y="-203"/>
      <point x="419" y="-199"/>
      <point x="419" y="-147" type="curve" smooth="yes"/>
      <point x="419" y="-111"/>
      <point x="375" y="-112"/>
      <point x="362" y="-112" type="curve" smooth="yes"/>
      <point x="349" y="-112"/>
      <point x="327" y="-114"/>
      <point x="310" y="-121" type="curve"/>
      <point x="336" y="-6" type="line"/>
      <point x="141" y="10"/>
      <point x="48" y="155"/>
      <point x="48" y="353" type="curve" smooth="yes"/>
      <point x="48" y="560"/>
      <point x="155" y="715"/>
      <point x="375" y="715" type="curve" smooth="yes"/>
      <point x="531" y="715"/>
      <point x="622" y="637"/>
      <point x="649" y="522" type="curve"/>
      <point x="561" y="522" type="line"/>
      <point x="541" y="591"/>
      <point x="472" y="636"/>
    </contour>
  </outline>
</glyph>
<glyph name="Eacute" format="2">
  <advance width="610"/>
  <unicode hex="00C9"/>
  <outline>
    <contour>
      <point x="87" y="707" type="line"/>
      <point x="562" y="707" type="line"/>
      <point x="562" y="628" type="line"/>
      <point x="174" y="628" type="line"/>
      <point x="174" y="390" type="line"/>
      <point x="523" y="390" type="line"/>
      <point x="523" y="310" type="line"/>
      <point x="174" y="310" type="line"/>
      <point x="174" y="79" type="line"/>
      <point x="562" y="79" type="line"/>
      <point x="562" y="0" type="line"/>
      <point x="87" y="0" type="line"/>
    </contour>
    <contour>
      <point x="358" y="927" type="line"/>
      <point x="450" y="927" type="line"/>
      <point x="350" y="786" type="line"/>
      <point x="273" y="786" type="line"/>
    </contour>
  </outline>
</glyph>
<glyph name="Ecircumflex" format="2">
  <advance width="610"/>
  <unicode hex="00CA"/>
  <outline>
    <contour>
      <point x="87" y="0" type="line"/>
      <point x="87" y="707" type="line"/>
      <point x="562" y="707" type="line"/>
      <point x="562" y="628" type="line"/>
      <point x="174" y="628" type="line"/>
      <point x="174" y="390" type="line"/>
      <point x="523" y="390" type="line"/>
      <point x="523" y="310" type="line"/>
      <point x="174" y="310" type="line"/>
      <point x="174" y="79" type="line"/>
      <point x="562" y="79" type="line"/>
      <point x="562" y="0" type="line"/>
    </contour>
    <contour>
      <point x="360" y="949" type="line"/>
      <point x="494" y="786" type="line"/>
      <point x="408" y="786" type="line"/>
      <point x="330" y="883" type="line"/>
      <point x="252" y="786" type="line"/>
      <point x="167" y="786" type="line"/>
      <point x="300" y="949" type="line"/>
    </contour>
  </outline>
</glyph>
<glyph name="Edieresis" format="2">
  <advance width="610"/>
  <unicode hex="00CB"/>
  <outline>
    <contour>
      <point x="87" y="707" type="line"/>
      <point x="562" y="707" type="line"/>
      <point x="562" y="628" type="line"/>
      <point x="174" y="628" type="line"/>
      <point x="174" y="390" type="line"/>
      <point x="523" y="390" type="line"/>
      <point x="523" y="310" type="line"/>
      <point x="174" y="310" type="line"/>
      <point x="174" y="79" type="line"/>
      <point x="562" y="79" type="line"/>
      <point x="562" y="0" type="line"/>
      <point x="87" y="0" type="line"/>
    </contour>
    <contour>
      <point x="216" y="900" type="curve" smooth="yes"/>
      <point x="249" y="900"/>
      <point x="274" y="877"/>
      <point x="274" y="844" type="curve" smooth="yes"/>
      <point x="274" y="811"/>
      <point x="249" y="788"/>
      <point x="216" y="788" type="curve" smooth="yes"/>
      <point x="184" y="788"/>
      <point x="159" y="811"/>
      <point x="159" y="844" type="curve" smooth="yes"/>
      <point x="159" y="877"/>
      <point x="184" y="900"/>
    </contour>
    <contour>
      <point x="441" y="900" type="curve" smooth="yes"/>
      <point x="474" y="900"/>
      <point x="499" y="877"/>
      <point x="499" y="844" type="curve" smooth="yes"/>
      <point x="499" y="811"/>
      <point x="474" y="788"/>
      <point x="441" y="788" type="curve" smooth="yes"/>
      <point x="409" y="788"/>
      <point x="385" y="811"/>
      <point x="385" y="844" type="curve" smooth="yes"/>
      <point x="385" y="877"/>
      <point x="409" y="900"/>
    </contour>
  </outline>
</glyph>
<glyph name="Igrave" format="2">
  <advance width="261"/>
  <unicode hex="00CC"/>
  <outline>
    <contour>
      <point x="174" y="0" type="line"/>
      <point x="87" y="0" type="line"/>
      <point x="87" y="707" type="line"/>
      <point x="174" y="707" type="line"/>
    </contour>
    <contour>
      <point x="110" y="786" type="line"/>
      <point x="10" y="927" type="line"/>
      <point x="102" y="927" type="line"/>
      <point x="187" y="786" type="line"/>
    </contour>
  </outline>
</glyph>
<glyph name="Iacute" format="2">
  <advance width="261"/>
  <unicode hex="00CD"/>
  <outline>
    <contour>
      <point x="174" y="0" type="line"/>
      <point x="87" y="0" type="line"/>
      <point x="87" y="707" type="line"/>
      <point x="174" y="707" type="line"/>
    </contour>
    <contour>
      <point x="165" y="927" type="line"/>
      <point x="257" y="927" type="line"/>
      <point x="157" y="786" type="line"/>
      <point x="80" y="786" type="line"/>
    </contour>
  </outline>
</glyph>
<glyph name="Icircumflex" format="2">
  <advance width="207"/>
  <unicode hex="00CE"/>
  <outline>
    <contour>
      <point x="133" y="982" type="line"/>
      <point x="276" y="792" type="line"/>
      <point x="190" y="792" type="line"/>
      <point x="103" y="914" type="line"/>
      <point x="16" y="792" type="line"/>
      <point x="-69" y="792" type="line"/>
      <point x="73" y="982" type="line"/>
    </contour>
    <contour>
      <point x="147" y="0" type="line"/>
      <point x="60" y="0" type="line"/>
      <point x="60" y="707" type="line"/>
      <point x="147" y="707" type="line"/>
    </contour>
  </outline>
</glyph>
<glyph name="Idieresis" format="2">
  <advance width="261"/>
  <unicode hex="00CF"/>
  <outline>
    <contour>
      <point x="174" y="0" type="line"/>
      <point x="87" y="0" type="line"/>
      <point x="87" y="707" type="line"/>
      <point x="174" y="707" type="line"/>
    </contour>
    <contour>
      <point x="27" y="900" type="curve" smooth="yes"/>
      <point x="60" y="900"/>
      <point x="85" y="877"/>
      <point x="85" y="844" type="curve" smooth="yes"/>
      <point x="85" y="811"/>
      <point x="60" y="788"/>
      <point x="27" y="788" type="curve" smooth="yes"/>
      <point x="-5" y="788"/>
      <point x="-30" y="811"/>
      <point x="-30" y="844" type="curve" smooth="yes"/>
      <point x="-30" y="877"/>
      <point x="-5" y="900"/>
    </contour>
    <contour>
      <point x="232" y="900" type="curve" smooth="yes"/>
      <point x="265" y="900"/>
      <point x="290" y="877"/>
      <point x="290" y="844" type="curve" smooth="yes"/>
      <point x="290" y="811"/>
      <point x="265" y="788"/>
      <point x="232" y="788" type="curve" smooth="yes"/>
      <point x="200" y="788"/>
      <point x="176" y="811"/>
      <point x="176" y="844" type="curve" smooth="yes"/>
      <point x="176" y="877"/>
      <point x="200" y="900"/>
    </contour>
  </outline>
</glyph>
<glyph name="Ntilde" format="2">
  <advance width="741"/>
  <unicode hex="00D1"/>
  <outline>
    <contour>
      <point x="87" y="0" type="line"/>
      <point x="87" y="707" type="line"/>
      <point x="198" y="707" type="line"/>
      <point x="567" y="118" type="line"/>
      <point x="567" y="707" type="line"/>
      <point x="654" y="707" type="line"/>
      <point x="654" y="0" type="line"/>
      <point x="545" y="0" type="line"/>
      <point x="174" y="587" type="line"/>
      <point x="174" y="0" type="line"/>
    </contour>
    <contour>
      <point x="435" y="773" type="curve" smooth="yes"/>
      <point x="369" y="773"/>
      <point x="336" y="845"/>
      <point x="303" y="845" type="curve" smooth="yes"/>
      <point x="272" y="845"/>
      <point x="273" y="799"/>
      <point x="273" y="778" type="curve"/>
      <point x="204" y="778" type="line"/>
      <point x="204" y="843"/>
      <point x="224" y="908"/>
      <point x="304" y="908" type="curve" smooth="yes"/>
      <point x="370" y="908"/>
      <point x="403" y="835"/>
      <point x="436" y="835" type="curve" smooth="yes"/>
      <point x="469" y="835"/>
      <point x="467" y="881"/>
      <point x="467" y="903" type="curve"/>
      <point x="537" y="903" type="line"/>
      <point x="534" y="839"/>
      <point x="516" y="773"/>
    </contour>
  </outline>
</glyph>
<glyph name="Ocircumflex" format="2">
  <advance width="761"/>
  <unicode hex="00D4"/>
  <outline>
    <contour>
      <point x="381" y="-8" type="curve" smooth="yes"/>
      <point x="161" y="-8"/>
      <point x="48" y="146"/>
      <point x="48" y="353" type="curve" smooth="yes"/>
      <point x="48" y="561"/>
      <point x="161" y="715"/>
      <point x="381" y="715" type="curve" smooth="yes"/>
      <point x="600" y="715"/>
      <point x="713" y="561"/>
      <point x="713" y="353" type="curve" smooth="yes"/>
      <point x="713" y="146"/>
      <point x="600" y="-8"/>
    </contour>
    <contour>
      <point x="381" y="636" type="curve" smooth="yes"/>
      <point x="214" y="636"/>
      <point x="136" y="506"/>
      <point x="136" y="353" type="curve" smooth="yes"/>
      <point x="136" y="201"/>
      <point x="212" y="71"/>
      <point x="381" y="71" type="curve" smooth="yes"/>
      <point x="549" y="71"/>
      <point x="624" y="199"/>
      <point x="624" y="353" type="curve" smooth="yes"/>
      <point x="624" y="508"/>
      <point x="547" y="636"/>
    </contour>
    <contour>
      <point x="410" y="949" type="line"/>
      <point x="544" y="786" type="line"/>
      <point x="458" y="786" type="line"/>
      <point x="380" y="882" type="line"/>
      <point x="302" y="786" type="line"/>
      <point x="217" y="786" type="line"/>
      <point x="350" y="949" type="line"/>
    </contour>
  </outline>
</glyph>
<glyph name="Otilde" format="2">
  <advance width="761"/>
  <unicode hex="00D5"/>
  <outline>
    <contour>
      <point x="451" y="773" type="curve" smooth="yes"/>
      <point x="385" y="773"/>
      <point x="352" y="845"/>
      <point x="319" y="845" type="curve" smooth="yes"/>
      <point x="288" y="845"/>
      <point x="289" y="799"/>
      <point x="289" y="778" type="curve"/>
      <point x="220" y="778" type="line"/>
      <point x="220" y="843"/>
      <point x="240" y="908"/>
      <point x="320" y="908" type="curve" smooth="yes"/>
      <point x="386" y="908"/>
      <point x="419" y="835"/>
      <point x="452" y="835" type="curve" smooth="yes"/>
      <point x="485" y="835"/>
      <point x="483" y="881"/>
      <point x="483" y="903" type="curve"/>
      <point x="553" y="903" type="line"/>
      <point x="550" y="839"/>
      <point x="532" y="773"/>
    </contour>
    <contour>
      <point x="381" y="-8" type="curve" smooth="yes"/>
      <point x="161" y="-8"/>
      <point x="48" y="146"/>
      <point x="48" y="353" type="curve" smooth="yes"/>
      <point x="48" y="561"/>
      <point x="161" y="715"/>
      <point x="381" y="715" type="curve" smooth="yes"/>
      <point x="600" y="715"/>
      <point x="713" y="561"/>
      <point x="713" y="353" type="curve" smooth="yes"/>
      <point x="713" y="146"/>
      <point x="600" y="-8"/>
    </contour>
    <contour>
      <point x="381" y="636" type="curve" smooth="yes"/>
      <point x="214" y="636"/>
      <point x="136" y="506"/>
      <point x="136" y="353" type="curve" smooth="yes"/>
      <point x="136" y="201"/>
      <point x="212" y="71"/>
      <point x="381" y="71" type="curve" smooth="yes"/>
      <point x="549" y="71"/>
      <point x="624" y="199"/>
      <point x="624" y="353" type="curve" smooth="yes"/>
      <point x="624" y="508"/>
      <point x="547" y="636"/>
    </contour>
  </outline>
</glyph>
<glyph name="Odieresis" format="2">
  <advance width="761"/>
  <unicode hex="00D6"/>
  <outline>
    <contour>
      <point x="271" y="900" type="curve" smooth="yes"/>
      <point x="304" y="900"/>
      <point x="329" y="877"/>
      <point x="329" y="844" type="curve" smooth="yes"/>
      <point x="329" y="811"/>
      <point x="304" y="788"/>
      <point x="271" y="788" type="curve" smooth="yes"/>
      <point x="239" y="788"/>
      <point x="214" y="811"/>
      <point x="214" y="844" type="curve" smooth="yes"/>
      <point x="214" y="877"/>
      <point x="239" y="900"/>
    </contour>
    <contour>
      <point x="496" y="900" type="curve" smooth="yes"/>
      <point x="529" y="900"/>
      <point x="554" y="877"/>
      <point x="554" y="844" type="curve" smooth="yes"/>
      <point x="554" y="811"/>
      <point x="529" y="788"/>
      <point x="496" y="788" type="curve" smooth="yes"/>
      <point x="464" y="788"/>
      <point x="440" y="811"/>
      <point x="440" y="844" type="curve" smooth="yes"/>
      <point x="440" y="877"/>
      <point x="464" y="900"/>
    </contour>
    <contour>
      <point x="381" y="-8" type="curve" smooth="yes"/>
      <point x="161" y="-8"/>
      <point x="48" y="146"/>
      <point x="48" y="353" type="curve" smooth="yes"/>
      <point x="48" y="561"/>
      <point x="161" y="715"/>
      <point x="381" y="715" type="curve" smooth="yes"/>
      <point x="600" y="715"/>
      <point x="713" y="561"/>
      <point x="713" y="353" type="curve" smooth="yes"/>
      <point x="713" y="146"/>
      <point x="600" y="-8"/>
    </contour>
    <contour>
      <point x="381" y="636" type="curve" smooth="yes"/>
      <point x="214" y="636"/>
      <point x="136" y="506"/>
      <point x="136" y="353" type="curve" smooth="yes"/>
      <point x="136" y="201"/>
      <point x="212" y="71"/>
      <point x="381" y="71" type="curve" smooth="yes"/>
      <point x="549" y="71"/>
      <point x="624" y="199"/>
      <point x="624" y="353" type="curve" smooth="yes"/>
      <point x="624" y="508"/>
      <point x="547" y="636"/>
    </contour>
  </outline>
</glyph>
<glyph name="multiply" format="2">
  <advance width="477"/>
  <unicode hex="00D7"/>
  <outline>
    <contour>
      <point x="239" y="303" type="line"/>
      <point x="100" y="165" type="line"/>
      <point x="50" y="215" type="line"/>
      <point x="189" y="353" type="line"/>
      <point x="50" y="492" type="line"/>
      <point x="100" y="542" type="line"/>
      <point x="239" y="403" type="line"/>
      <point x="377" y="542" type="line"/>
      <point x="427" y="492" type="line"/>
      <point x="289" y="353" type="line"/>
      <point x="427" y="215" type="line"/>
      <point x="377" y="165" type="line"/>
    </contour>
  </outline>
</glyph>
<glyph name="Oslash" format="2">
  <advance width="761"/>
  <unicode hex="00D8"/>
  <outline>
    <contour>
      <point x="381" y="-8" type="curve" smooth="yes"/>
      <point x="344" y="-8"/>
      <point x="310" y="-4"/>
      <point x="279" y="4" type="curve"/>
      <point x="232" y="-110" type="line"/>
      <point x="147" y="-110" type="line"/>
      <point x="206" y="34" type="line"/>
      <point x="177" y="51"/>
      <point x="153" y="71"/>
      <point x="132" y="95" type="curve" smooth="yes"/>
      <point x="76" y="159"/>
      <point x="48" y="249"/>
      <point x="48" y="353" type="curve" smooth="yes"/>
      <point x="48" y="561"/>
      <point x="161" y="715"/>
      <point x="381" y="715" type="curve" smooth="yes"/>
      <point x="417" y="715"/>
      <point x="450" y="711"/>
      <point x="481" y="703" type="curve"/>
      <point x="528" y="816" type="line"/>
      <point x="613" y="816" type="line"/>
      <point x="554" y="673" type="line"/>
      <point x="583" y="656"/>
      <point x="608" y="636"/>
      <point x="629" y="612" type="curve" smooth="yes"/>
      <point x="685" y="548"/>
      <point x="713" y="457"/>
      <point x="713" y="353" type="curve" smooth="yes"/>
      <point x="713" y="146"/>
      <point x="600" y="-8"/>
    </contour>
    <contour>
      <point x="381" y="71" type="curve" smooth="yes"/>
      <point x="549" y="71"/>
      <point x="624" y="199"/>
      <point x="624" y="353" type="curve" smooth="yes"/>
      <point x="624" y="430"/>
      <point x="605" y="501"/>
      <point x="565" y="552" type="curve" smooth="yes"/>
      <point x="552" y="568"/>
      <point x="538" y="582"/>
      <point x="521" y="594" type="curve"/>
      <point x="310" y="79" type="line"/>
      <point x="331" y="74"/>
      <point x="355" y="71"/>
    </contour>
    <contour>
      <point x="381" y="636" type="curve" smooth="yes"/>
      <point x="214" y="636"/>
      <point x="136" y="506"/>
      <point x="136" y="353" type="curve" smooth="yes"/>
      <point x="136" y="277"/>
      <point x="155" y="207"/>
      <point x="195" y="155" type="curve" smooth="yes"/>
      <point x="207" y="139"/>
      <point x="221" y="125"/>
      <point x="238" y="112" type="curve"/>
      <point x="450" y="627" type="line"/>
      <point x="429" y="633"/>
      <point x="406" y="636"/>
    </contour>
  </outline>
</glyph>
<glyph name="Uacute" format="2">
  <advance width="726"/>
  <unicode hex="00DA"/>
  <outline>
    <contour>
      <point x="644" y="707" type="line"/>
      <point x="644" y="305" type="line" smooth="yes"/>
      <point x="644" y="127"/>
      <point x="560" y="-8"/>
      <point x="363" y="-8" type="curve" smooth="yes"/>
      <point x="165" y="-8"/>
      <point x="82" y="125"/>
      <point x="82" y="305" type="curve" smooth="yes"/>
      <point x="82" y="707" type="line"/>
      <point x="169" y="707" type="line"/>
      <point x="169" y="306" type="line" smooth="yes"/>
      <point x="169" y="177"/>
      <point x="219" y="71"/>
      <point x="364" y="71" type="curve" smooth="yes"/>
      <point x="509" y="71"/>
      <point x="556" y="178"/>
      <point x="556" y="306" type="curve" smooth="yes"/>
      <point x="556" y="707" type="line"/>
    </contour>
    <contour>
      <point x="383" y="927" type="line"/>
      <point x="475" y="927" type="line"/>
      <point x="375" y="786" type="line"/>
      <point x="298" y="786" type="line"/>
    </contour>
  </outline>
</glyph>
<glyph name="Ucircumflex" format="2">
  <advance width="726"/>
  <unicode hex="00DB"/>
  <outline>
    <contour>
      <point x="644" y="707" type="line"/>
      <point x="644" y="305" type="line" smooth="yes"/>
      <point x="644" y="127"/>
      <point x="560" y="-8"/>
      <point x="363" y="-8" type="curve" smooth="yes"/>
      <point x="165" y="-8"/>
      <point x="82" y="125"/>
      <point x="82" y="305" type="curve" smooth="yes"/>
      <point x="82" y="707" type="line"/>
      <point x="169" y="707" type="line"/>
      <point x="169" y="306" type="line" smooth="yes"/>
      <point x="169" y="177"/>
      <point x="219" y="71"/>
      <point x="364" y="71" type="curve" smooth="yes"/>
      <point x="509" y="71"/>
      <point x="556" y="178"/>
      <point x="556" y="306" type="curve" smooth="yes"/>
      <point x="556" y="707" type="line"/>
    </contour>
    <contour>
      <point x="392" y="949" type="line"/>
      <point x="526" y="786" type="line"/>
      <point x="440" y="786" type="line"/>
      <point x="362" y="882" type="line"/>
      <point x="284" y="786" type="line"/>
      <point x="199" y="786" type="line"/>
      <point x="332" y="949" type="line"/>
    </contour>
  </outline>
</glyph>
<glyph name="Udieresis" format="2">
  <advance width="726"/>
  <unicode hex="00DC"/>
  <outline>
    <contour>
      <point x="250" y="899" type="curve" smooth="yes"/>
      <point x="283" y="899"/>
      <point x="308" y="876"/>
      <point x="308" y="843" type="curve" smooth="yes"/>
      <point x="308" y="810"/>
      <point x="283" y="787"/>
      <point x="250" y="787" type="curve" smooth="yes"/>
      <point x="218" y="787"/>
      <point x="193" y="810"/>
      <point x="193" y="843" type="curve" smooth="yes"/>
      <point x="193" y="876"/>
      <point x="218" y="899"/>
    </contour>
    <contour>
      <point x="475" y="899" type="curve" smooth="yes"/>
      <point x="508" y="899"/>
      <point x="533" y="876"/>
      <point x="533" y="843" type="curve" smooth="yes"/>
      <point x="533" y="810"/>
      <point x="508" y="787"/>
      <point x="475" y="787" type="curve" smooth="yes"/>
      <point x="443" y="787"/>
      <point x="419" y="810"/>
      <point x="419" y="843" type="curve" smooth="yes"/>
      <point x="419" y="876"/>
      <point x="443" y="899"/>
    </contour>
    <contour>
      <point x="644" y="707" type="line"/>
      <point x="644" y="305" type="line" smooth="yes"/>
      <point x="644" y="127"/>
      <point x="560" y="-8"/>
      <point x="363" y="-8" type="curve" smooth="yes"/>
      <point x="165" y="-8"/>
      <point x="82" y="125"/>
      <point x="82" y="305" type="curve" smooth="yes"/>
      <point x="82" y="707" type="line"/>
      <point x="169" y="707" type="line"/>
      <point x="169" y="306" type="line" smooth="yes"/>
      <point x="169" y="177"/>
      <point x="219" y="71"/>
      <point x="364" y="71" type="curve" smooth="yes"/>
      <point x="509" y="71"/>
      <point x="556" y="178"/>
      <point x="556" y="306" type="curve" smooth="yes"/>
      <point x="556" y="707" type="line"/>
    </contour>
  </outline>
</glyph>
<glyph name="Yacute" format="2">
  <advance width="614"/>
  <unicode hex="00DD"/>
  <outline>
    <contour>
      <point x="501" y="707" type="line"/>
      <point x="600" y="707" type="line"/>
      <point x="351" y="266" type="line"/>
      <point x="351" y="0" type="line"/>
      <point x="264" y="0" type="line"/>
      <point x="264" y="265" type="line"/>
      <point x="14" y="707" type="line"/>
      <point x="115" y="707" type="line"/>
      <point x="309" y="353" type="line"/>
    </contour>
    <contour>
      <point x="331" y="927" type="line"/>
      <point x="423" y="927" type="line"/>
      <point x="323" y="786" type="line"/>
      <point x="246" y="786" type="line"/>
    </contour>
  </outline>
</glyph>
<glyph name="Thorn" format="2">
  <advance width="630"/>
  <unicode hex="00DE"/>
  <outline>
    <contour>
      <point x="174" y="583" type="line"/>
      <point x="332" y="583" type="line" smooth="yes"/>
      <point x="487" y="583"/>
      <point x="581" y="514"/>
      <point x="581" y="353" type="curve" smooth="yes"/>
      <point x="581" y="192"/>
      <point x="464" y="119"/>
      <point x="314" y="119" type="curve" smooth="yes"/>
      <point x="174" y="119" type="line"/>
      <point x="174" y="0" type="line"/>
      <point x="87" y="0" type="line"/>
      <point x="87" y="707" type="line"/>
      <point x="174" y="707" type="line"/>
    </contour>
    <contour>
      <point x="310" y="198" type="line" smooth="yes"/>
      <point x="419" y="198"/>
      <point x="492" y="242"/>
      <point x="492" y="357" type="curve" smooth="yes"/>
      <point x="492" y="458"/>
      <point x="437" y="504"/>
      <point x="328" y="504" type="curve" smooth="yes"/>
      <point x="174" y="504" type="line"/>
      <point x="174" y="198" type="line"/>
    </contour>
  </outline>
</glyph>
<glyph name="germandbls" format="2">
  <advance width="607"/>
  <unicode hex="00DF"/>
  <outline>
    <contour>
      <point x="400" y="309" type="curve" smooth="yes"/>
      <point x="489" y="284"/>
      <point x="568" y="258"/>
      <point x="568" y="156" type="curve" smooth="yes"/>
      <point x="568" y="44"/>
      <point x="490" y="-6"/>
      <point x="386" y="-6" type="curve" smooth="yes"/>
      <point x="294" y="-6"/>
      <point x="220" y="38"/>
      <point x="207" y="143" type="curve"/>
      <point x="293" y="143" type="line"/>
      <point x="304" y="88"/>
      <point x="342" y="69"/>
      <point x="390" y="69" type="curve" smooth="yes"/>
      <point x="442" y="68"/>
      <point x="483" y="91"/>
      <point x="483" y="147" type="curve" smooth="yes"/>
      <point x="483" y="219"/>
      <point x="419" y="227"/>
      <point x="362" y="243" type="curve" smooth="yes"/>
      <point x="294" y="263"/>
      <point x="248" y="301"/>
      <point x="249" y="374" type="curve" smooth="yes"/>
      <point x="249" y="411"/>
      <point x="276" y="456"/>
      <point x="303" y="489" type="curve" smooth="yes"/>
      <point x="330" y="521"/>
      <point x="356" y="554"/>
      <point x="356" y="601" type="curve" smooth="yes"/>
      <point x="356" y="645"/>
      <point x="315" y="679"/>
      <point x="259" y="679" type="curve" smooth="yes"/>
      <point x="183" y="679"/>
      <point x="152" y="620"/>
      <point x="152" y="567" type="curve" smooth="yes"/>
      <point x="152" y="0" type="line"/>
      <point x="67" y="0" type="line"/>
      <point x="67" y="556" type="line" smooth="yes"/>
      <point x="67" y="659"/>
      <point x="117" y="754"/>
      <point x="268" y="754" type="curve" smooth="yes"/>
      <point x="360" y="754"/>
      <point x="445" y="703"/>
      <point x="446" y="604" type="curve" smooth="yes"/>
      <point x="446" y="549"/>
      <point x="418" y="510"/>
      <point x="389" y="475" type="curve" smooth="yes"/>
      <point x="360" y="440"/>
      <point x="329" y="402"/>
      <point x="329" y="379" type="curve" smooth="yes"/>
      <point x="329" y="344"/>
      <point x="345" y="324"/>
    </contour>
  </outline>
</glyph>
<glyph name="aacute" format="2">
  <advance width="555"/>
  <unicode hex="00E1"/>
  <outline>
    <contour>
      <point x="414" y="67" type="line"/>
      <point x="369" y="6"/>
      <point x="294" y="-6"/>
      <point x="236" y="-6" type="curve" smooth="yes"/>
      <point x="140" y="-6"/>
      <point x="49" y="45"/>
      <point x="49" y="150" type="curve" smooth="yes"/>
      <point x="49" y="271"/>
      <point x="144" y="309"/>
      <point x="252" y="309" type="curve" smooth="yes"/>
      <point x="407" y="309" type="line"/>
      <point x="407" y="398"/>
      <point x="372" y="457"/>
      <point x="280" y="457" type="curve" smooth="yes"/>
      <point x="224" y="457"/>
      <point x="178" y="440"/>
      <point x="162" y="397" type="curve"/>
      <point x="71" y="397" type="line"/>
      <point x="89" y="492"/>
      <point x="190" y="532"/>
      <point x="280" y="533" type="curve" smooth="yes"/>
      <point x="359" y="533"/>
      <point x="412" y="505"/>
      <point x="445" y="463" type="curve" smooth="yes"/>
      <point x="478" y="421"/>
      <point x="490" y="360"/>
      <point x="490" y="285" type="curve" smooth="yes"/>
      <point x="490" y="0" type="line"/>
      <point x="419" y="0" type="line"/>
    </contour>
    <contour>
      <point x="314" y="238" type="line"/>
      <point x="282" y="239"/>
      <point x="237" y="241"/>
      <point x="198" y="232" type="curve" smooth="yes"/>
      <point x="159" y="223"/>
      <point x="134" y="197"/>
      <point x="134" y="156" type="curve" smooth="yes"/>
      <point x="134" y="96"/>
      <point x="187" y="69"/>
      <point x="244" y="69" type="curve" smooth="yes"/>
      <point x="344" y="69"/>
      <point x="406" y="119"/>
      <point x="407" y="212" type="curve"/>
      <point x="407" y="238" type="line"/>
    </contour>
    <contour>
      <point x="309" y="769" type="line"/>
      <point x="401" y="769" type="line"/>
      <point x="301" y="628" type="line"/>
      <point x="224" y="628" type="line"/>
    </contour>
  </outline>
</glyph>
<glyph name="acircumflex" format="2">
  <advance width="555"/>
  <unicode hex="00E2"/>
  <outline>
    <contour>
      <point x="414" y="67" type="line"/>
      <point x="369" y="7"/>
      <point x="298" y="-6"/>
      <point x="236" y="-6" type="curve" smooth="yes"/>
      <point x="138" y="-6"/>
      <point x="49" y="46"/>
      <point x="49" y="150" type="curve" smooth="yes"/>
      <point x="49" y="271"/>
      <point x="144" y="309"/>
      <point x="252" y="309" type="curve" smooth="yes"/>
      <point x="407" y="309" type="line"/>
      <point x="407" y="398"/>
      <point x="372" y="456"/>
      <point x="280" y="457" type="curve" smooth="yes"/>
      <point x="224" y="457"/>
      <point x="178" y="440"/>
      <point x="162" y="397" type="curve"/>
      <point x="71" y="397" type="line"/>
      <point x="89" y="492"/>
      <point x="190" y="532"/>
      <point x="280" y="533" type="curve" smooth="yes"/>
      <point x="359" y="533"/>
      <point x="412" y="505"/>
      <point x="445" y="463" type="curve" smooth="yes"/>
      <point x="478" y="421"/>
      <point x="490" y="360"/>
      <point x="490" y="285" type="curve" smooth="yes"/>
      <point x="490" y="0" type="line"/>
      <point x="419" y="0" type="line"/>
    </contour>
    <contour>
      <point x="314" y="238" type="line" smooth="yes"/>
      <point x="282" y="238"/>
      <point x="237" y="239"/>
      <point x="198" y="231" type="curve" smooth="yes"/>
      <point x="159" y="223"/>
      <point x="134" y="197"/>
      <point x="134" y="156" type="curve" smooth="yes"/>
      <point x="134" y="96"/>
      <point x="187" y="69"/>
      <point x="244" y="69" type="curve" smooth="yes"/>
      <point x="344" y="69"/>
      <point x="406" y="119"/>
      <point x="407" y="212" type="curve"/>
      <point x="407" y="238" type="line"/>
    </contour>
    <contour>
      <point x="313" y="769" type="line"/>
      <point x="447" y="606" type="line"/>
      <point x="361" y="606" type="line"/>
      <point x="283" y="702" type="line"/>
      <point x="205" y="606" type="line"/>
      <point x="120" y="606" type="line"/>
      <point x="253" y="769" type="line"/>
    </contour>
  </outline>
</glyph>
<glyph name="atilde" format="2">
  <advance width="555"/>
  <unicode hex="00E3"/>
  <outline>
    <contour>
      <point x="414" y="67" type="line"/>
      <point x="369" y="6"/>
      <point x="294" y="-6"/>
      <point x="236" y="-6" type="curve" smooth="yes"/>
      <point x="140" y="-6"/>
      <point x="49" y="45"/>
      <point x="49" y="150" type="curve" smooth="yes"/>
      <point x="49" y="271"/>
      <point x="144" y="309"/>
      <point x="252" y="309" type="curve" smooth="yes"/>
      <point x="407" y="309" type="line"/>
      <point x="407" y="397"/>
      <point x="372" y="457"/>
      <point x="280" y="457" type="curve" smooth="yes"/>
      <point x="225" y="457"/>
      <point x="178" y="440"/>
      <point x="162" y="397" type="curve"/>
      <point x="71" y="397" type="line"/>
      <point x="89" y="492"/>
      <point x="187" y="533"/>
      <point x="280" y="533" type="curve" smooth="yes"/>
      <point x="359" y="533"/>
      <point x="412" y="505"/>
      <point x="445" y="463" type="curve" smooth="yes"/>
      <point x="478" y="421"/>
      <point x="490" y="360"/>
      <point x="490" y="285" type="curve" smooth="yes"/>
      <point x="490" y="0" type="line"/>
      <point x="419" y="0" type="line"/>
    </contour>
    <contour>
      <point x="314" y="238" type="line"/>
      <point x="282" y="239"/>
      <point x="237" y="241"/>
      <point x="198" y="232" type="curve" smooth="yes"/>
      <point x="159" y="223"/>
      <point x="134" y="197"/>
      <point x="134" y="156" type="curve" smooth="yes"/>
      <point x="134" y="96"/>
      <point x="187" y="69"/>
      <point x="244" y="69" type="curve" smooth="yes"/>
      <point x="344" y="69"/>
      <point x="406" y="119"/>
      <point x="407" y="212" type="curve"/>
      <point x="407" y="238" type="line"/>
    </contour>
    <contour>
      <point x="347" y="615" type="curve" smooth="yes"/>
      <point x="281" y="615"/>
      <point x="248" y="687"/>
      <point x="215" y="687" type="curve" smooth="yes"/>
      <point x="184" y="687"/>
      <point x="185" y="641"/>
      <point x="185" y="620" type="curve"/>
      <point x="116" y="620" type="line"/>
      <point x="116" y="685"/>
      <point x="136" y="750"/>
      <point x="216" y="750" type="curve" smooth="yes"/>
      <point x="282" y="750"/>
      <point x="315" y="677"/>
      <point x="348" y="677" type="curve" smooth="yes"/>
      <point x="381" y="677"/>
      <point x="379" y="723"/>
      <point x="379" y="745" type="curve"/>
      <point x="449" y="745" type="line"/>
      <point x="446" y="681"/>
      <point x="428" y="615"/>
    </contour>
  </outline>
</glyph>
<glyph name="aring" format="2">
  <advance width="555"/>
  <unicode hex="00E5"/>
  <outline>
    <contour>
      <point x="414" y="67" type="line"/>
      <point x="369" y="6"/>
      <point x="294" y="-6"/>
      <point x="236" y="-6" type="curve" smooth="yes"/>
      <point x="140" y="-6"/>
      <point x="49" y="45"/>
      <point x="49" y="150" type="curve" smooth="yes"/>
      <point x="49" y="271"/>
      <point x="144" y="309"/>
      <point x="252" y="309" type="curve" smooth="yes"/>
      <point x="407" y="309" type="line"/>
      <point x="407" y="398"/>
      <point x="372" y="457"/>
      <point x="280" y="457" type="curve" smooth="yes"/>
      <point x="224" y="457"/>
      <point x="178" y="440"/>
      <point x="162" y="397" type="curve"/>
      <point x="71" y="397" type="line"/>
      <point x="89" y="492"/>
      <point x="188" y="532"/>
      <point x="278" y="533" type="curve" smooth="yes"/>
      <point x="357" y="533"/>
      <point x="412" y="504"/>
      <point x="445" y="462" type="curve" smooth="yes"/>
      <point x="478" y="420"/>
      <point x="490" y="360"/>
      <point x="490" y="285" type="curve" smooth="yes"/>
      <point x="490" y="0" type="line"/>
      <point x="419" y="0" type="line"/>
    </contour>
    <contour>
      <point x="314" y="238" type="line"/>
      <point x="282" y="239"/>
      <point x="237" y="241"/>
      <point x="198" y="232" type="curve" smooth="yes"/>
      <point x="159" y="223"/>
      <point x="134" y="197"/>
      <point x="134" y="156" type="curve" smooth="yes"/>
      <point x="134" y="96"/>
      <point x="187" y="69"/>
      <point x="244" y="69" type="curve" smooth="yes"/>
      <point x="344" y="69"/>
      <point x="406" y="119"/>
      <point x="407" y="212" type="curve"/>
      <point x="407" y="238" type="line"/>
    </contour>
    <contour>
      <point x="284" y="775" type="curve" smooth="yes"/>
      <point x="343" y="775"/>
      <point x="382" y="731"/>
      <point x="382" y="674" type="curve" smooth="yes"/>
      <point x="382" y="615"/>
      <point x="340" y="579"/>
      <point x="283" y="579" type="curve" smooth="yes"/>
      <point x="224" y="579"/>
      <point x="185" y="615"/>
      <point x="185" y="674" type="curve" smooth="yes"/>
      <point x="185" y="733"/>
      <point x="225" y="775"/>
    </contour>
    <contour>
      <point x="283" y="631" type="curve" smooth="yes"/>
      <point x="310" y="631"/>
      <point x="326" y="649"/>
      <point x="326" y="676" type="curve" smooth="yes"/>
      <point x="326" y="703"/>
      <point x="310" y="721"/>
      <point x="283" y="721" type="curve" smooth="yes"/>
      <point x="256" y="721"/>
      <point x="240" y="703"/>
      <point x="240" y="676" type="curve" smooth="yes"/>
      <point x="240" y="649"/>
      <point x="256" y="631"/>
    </contour>
  </outline>
</glyph>
<glyph name="ae" format="2">
  <advance width="929"/>
  <unicode hex="00E6"/>
  <outline>
    <contour>
      <point x="241" y="-6" type="curve" smooth="yes"/>
      <point x="145" y="-6"/>
      <point x="49" y="43"/>
      <point x="49" y="150" type="curve" smooth="yes"/>
      <point x="49" y="273"/>
      <point x="146" y="306"/>
      <point x="252" y="306" type="curve" smooth="yes"/>
      <point x="407" y="306" type="line"/>
      <point x="407" y="405"/>
      <point x="364" y="457"/>
      <point x="276" y="457" type="curve" smooth="yes"/>
      <point x="230" y="457"/>
      <point x="180" y="445"/>
      <point x="162" y="397" type="curve"/>
      <point x="71" y="397" type="line"/>
      <point x="89" y="492"/>
      <point x="191" y="533"/>
      <point x="280" y="533" type="curve" smooth="yes"/>
      <point x="352" y="533"/>
      <point x="421" y="506"/>
      <point x="458" y="438" type="curve"/>
      <point x="497" y="495"/>
      <point x="562" y="533"/>
      <point x="651" y="533" type="curve" smooth="yes"/>
      <point x="789" y="533"/>
      <point x="883" y="421"/>
      <point x="883" y="272" type="curve" smooth="yes"/>
      <point x="883" y="259"/>
      <point x="882" y="245"/>
      <point x="881" y="232" type="curve"/>
      <point x="490" y="232" type="line"/>
      <point x="491" y="131"/>
      <point x="551" y="69"/>
      <point x="654" y="69" type="curve" smooth="yes"/>
      <point x="705" y="69"/>
      <point x="767" y="86"/>
      <point x="785" y="141" type="curve"/>
      <point x="872" y="141" type="line"/>
      <point x="848" y="37"/>
      <point x="750" y="-6"/>
      <point x="652" y="-6" type="curve" smooth="yes"/>
      <point x="577" y="-6"/>
      <point x="495" y="19"/>
      <point x="450" y="85" type="curve"/>
      <point x="397" y="18"/>
      <point x="333" y="-6"/>
    </contour>
    <contour>
      <point x="797" y="306" type="line"/>
      <point x="794" y="394"/>
      <point x="739" y="457"/>
      <point x="648" y="457" type="curve" smooth="yes"/>
      <point x="555" y="457"/>
      <point x="500" y="395"/>
      <point x="492" y="306" type="curve"/>
    </contour>
    <contour>
      <point x="251" y="231" type="curve" smooth="yes"/>
      <point x="195" y="230"/>
      <point x="134" y="224"/>
      <point x="134" y="154" type="curve" smooth="yes"/>
      <point x="134" y="93"/>
      <point x="193" y="69"/>
      <point x="249" y="69" type="curve" smooth="yes"/>
      <point x="361" y="69"/>
      <point x="407" y="127"/>
      <point x="407" y="232" type="curve"/>
      <point x="356" y="232"/>
      <point x="302" y="231"/>
    </contour>
  </outline>
</glyph>
<glyph name="ccedilla" format="2">
  <advance width="550"/>
  <unicode hex="00E7"/>
  <outline>
    <contour>
      <point x="338" y="-145" type="curve"/>
      <point x="335" y="-109"/>
      <point x="296" y="-110"/>
      <point x="281" y="-110" type="curve" smooth="yes"/>
      <point x="268" y="-110"/>
      <point x="246" y="-112"/>
      <point x="229" y="-119" type="curve"/>
      <point x="255" y="-4" type="line"/>
      <point x="111" y="9"/>
      <point x="44" y="118"/>
      <point x="44" y="262" type="curve" smooth="yes"/>
      <point x="44" y="414"/>
      <point x="129" y="533"/>
      <point x="291" y="533" type="curve" smooth="yes"/>
      <point x="408" y="533"/>
      <point x="482" y="485"/>
      <point x="505" y="376" type="curve"/>
      <point x="418" y="376" type="line"/>
      <point x="401" y="437"/>
      <point x="351" y="458"/>
      <point x="291" y="457" type="curve"/>
      <point x="175" y="457"/>
      <point x="129" y="362"/>
      <point x="129" y="262" type="curve" smooth="yes"/>
      <point x="129" y="158"/>
      <point x="177" y="69"/>
      <point x="292" y="69" type="curve" smooth="yes"/>
      <point x="348" y="69"/>
      <point x="405" y="89"/>
      <point x="421" y="151" type="curve"/>
      <point x="509" y="151" type="line"/>
      <point x="491" y="51"/>
      <point x="409" y="4"/>
      <point x="317" y="-4" type="curve"/>
      <point x="305" y="-59" type="line"/>
      <point x="313" y="-58"/>
      <point x="321" y="-57"/>
      <point x="328" y="-57" type="curve"/>
      <point x="348" y="-58"/>
      <point x="364" y="-62"/>
      <point x="377" y="-71" type="curve"/>
      <point x="396" y="-83"/>
      <point x="407" y="-105"/>
      <point x="407" y="-138" type="curve" smooth="yes"/>
      <point x="408" y="-238"/>
      <point x="299" y="-253"/>
      <point x="260" y="-253" type="curve" smooth="yes"/>
      <point x="249" y="-253"/>
      <point x="238" y="-253"/>
      <point x="227" y="-250" type="curve"/>
      <point x="227" y="-198" type="line"/>
      <point x="272" y="-201"/>
      <point x="338" y="-197"/>
    </contour>
  </outline>
</glyph>
<glyph name="ecircumflex" format="2">
  <advance width="567"/>
  <unicode hex="00EA"/>
  <outline>
    <contour>
      <point x="129" y="232" type="line"/>
      <point x="137" y="140"/>
      <point x="189" y="69"/>
      <point x="293" y="69" type="curve" smooth="yes"/>
      <point x="345" y="69"/>
      <point x="405" y="87"/>
      <point x="424" y="141" type="curve"/>
      <point x="511" y="141" type="line"/>
      <point x="487" y="39"/>
      <point x="391" y="-6"/>
      <point x="291" y="-6" type="curve" smooth="yes"/>
      <point x="123" y="-6"/>
      <point x="43" y="106"/>
      <point x="43" y="263" type="curve" smooth="yes"/>
      <point x="43" y="420"/>
      <point x="130" y="533"/>
      <point x="290" y="533" type="curve" smooth="yes"/>
      <point x="374" y="533"/>
      <point x="436" y="497"/>
      <point x="473" y="443" type="curve" smooth="yes"/>
      <point x="510" y="389"/>
      <point x="524" y="321"/>
      <point x="522" y="268" type="curve" smooth="yes"/>
      <point x="521" y="256"/>
      <point x="521" y="244"/>
      <point x="520" y="232" type="curve"/>
    </contour>
    <contour>
      <point x="436" y="306" type="line"/>
      <point x="433" y="395"/>
      <point x="376" y="457"/>
      <point x="287" y="457" type="curve" smooth="yes"/>
      <point x="188" y="457"/>
      <point x="139" y="387"/>
      <point x="131" y="306" type="curve"/>
    </contour>
    <contour>
      <point x="321" y="769" type="line"/>
      <point x="455" y="606" type="line"/>
      <point x="369" y="606" type="line"/>
      <point x="291" y="702" type="line"/>
      <point x="213" y="606" type="line"/>
      <point x="128" y="606" type="line"/>
      <point x="261" y="769" type="line"/>
    </contour>
  </outline>
</glyph>
<glyph name="igrave" format="2">
  <advance width="219"/>
  <unicode hex="00EC"/>
  <outline>
    <contour>
      <point x="152" y="0" type="line"/>
      <point x="67" y="0" type="line"/>
      <point x="67" y="527" type="line"/>
      <point x="152" y="527" type="line"/>
    </contour>
    <contour>
      <point x="111" y="628" type="line"/>
      <point x="11" y="769" type="line"/>
      <point x="103" y="769" type="line"/>
      <point x="188" y="628" type="line"/>
    </contour>
  </outline>
</glyph>
<glyph name="iacute" format="2">
  <advance width="219"/>
  <unicode hex="00ED"/>
  <outline>
    <contour>
      <point x="152" y="0" type="line"/>
      <point x="67" y="0" type="line"/>
      <point x="67" y="527" type="line"/>
      <point x="152" y="527" type="line"/>
    </contour>
    <contour>
      <point x="135" y="769" type="line"/>
      <point x="227" y="769" type="line"/>
      <point x="127" y="628" type="line"/>
      <point x="50" y="628" type="line"/>
    </contour>
  </outline>
</glyph>
<glyph name="icircumflex" format="2">
  <advance width="269"/>
  <unicode hex="00EE"/>
  <outline>
    <contour>
      <point x="159" y="769" type="line"/>
      <point x="293" y="606" type="line"/>
      <point x="207" y="606" type="line"/>
      <point x="129" y="702" type="line"/>
      <point x="51" y="606" type="line"/>
      <point x="-34" y="606" type="line"/>
      <point x="99" y="769" type="line"/>
    </contour>
    <contour>
      <point x="173" y="0" type="line"/>
      <point x="88" y="0" type="line"/>
      <point x="88" y="527" type="line"/>
      <point x="173" y="527" type="line"/>
    </contour>
  </outline>
</glyph>
<glyph name="eth" format="2">
  <advance width="573"/>
  <unicode hex="00F0"/>
  <outline>
    <contour>
      <point x="526" y="296" type="curve" smooth="yes"/>
      <point x="526" y="131"/>
      <point x="468" y="-6"/>
      <point x="283" y="-6" type="curve" smooth="yes"/>
      <point x="131" y="-6"/>
      <point x="47" y="99"/>
      <point x="47" y="248" type="curve" smooth="yes"/>
      <point x="47" y="384"/>
      <point x="132" y="487"/>
      <point x="273" y="487" type="curve" smooth="yes"/>
      <point x="340" y="487"/>
      <point x="400" y="466"/>
      <point x="436" y="417" type="curve"/>
      <point x="431" y="487"/>
      <point x="375" y="575"/>
      <point x="335" y="602" type="curve"/>
      <point x="223" y="528" type="line"/>
      <point x="184" y="587" type="line"/>
      <point x="273" y="646" type="line"/>
      <point x="236" y="671"/>
      <point x="167" y="687"/>
      <point x="111" y="690" type="curve"/>
      <point x="118" y="759" type="line"/>
      <point x="206" y="752"/>
      <point x="281" y="729"/>
      <point x="340" y="690" type="curve"/>
      <point x="457" y="767" type="line"/>
      <point x="496" y="709" type="line"/>
      <point x="400" y="647" type="line"/>
      <point x="483" y="571"/>
      <point x="526" y="456"/>
    </contour>
    <contour>
      <point x="286" y="69" type="curve" smooth="yes"/>
      <point x="380" y="69"/>
      <point x="436" y="147"/>
      <point x="436" y="236" type="curve" smooth="yes"/>
      <point x="436" y="333"/>
      <point x="386" y="411"/>
      <point x="279" y="411" type="curve" smooth="yes"/>
      <point x="184" y="411"/>
      <point x="132" y="334"/>
      <point x="132" y="245" type="curve" smooth="yes"/>
      <point x="132" y="152"/>
      <point x="186" y="69"/>
    </contour>
  </outline>
</glyph>
<glyph name="ntilde" format="2">
  <advance width="591"/>
  <unicode hex="00F1"/>
  <outline>
    <contour>
      <point x="67" y="0" type="line"/>
      <point x="67" y="527" type="line"/>
      <point x="149" y="527" type="line"/>
      <point x="153" y="447" type="line"/>
      <point x="188" y="505"/>
      <point x="261" y="533"/>
      <point x="326" y="533" type="curve" smooth="yes"/>
      <point x="479" y="533"/>
      <point x="527" y="428"/>
      <point x="527" y="291" type="curve" smooth="yes"/>
      <point x="527" y="0" type="line"/>
      <point x="442" y="0" type="line"/>
      <point x="442" y="268" type="line" smooth="yes"/>
      <point x="442" y="366"/>
      <point x="425" y="459"/>
      <point x="314" y="458" type="curve" smooth="yes"/>
      <point x="259" y="458"/>
      <point x="216" y="428"/>
      <point x="191" y="393" type="curve" smooth="yes"/>
      <point x="160" y="349"/>
      <point x="152" y="294"/>
      <point x="152" y="241" type="curve" smooth="yes"/>
      <point x="152" y="0" type="line"/>
    </contour>
    <contour>
      <point x="364" y="615" type="curve" smooth="yes"/>
      <point x="298" y="615"/>
      <point x="265" y="687"/>
      <point x="232" y="687" type="curve" smooth="yes"/>
      <point x="201" y="687"/>
      <point x="202" y="641"/>
      <point x="202" y="620" type="curve"/>
      <point x="133" y="620" type="line"/>
      <point x="133" y="685"/>
      <point x="153" y="750"/>
      <point x="233" y="750" type="curve" smooth="yes"/>
      <point x="299" y="750"/>
      <point x="332" y="677"/>
      <point x="365" y="677" type="curve" smooth="yes"/>
      <point x="398" y="677"/>
      <point x="396" y="723"/>
      <point x="396" y="745" type="curve"/>
      <point x="466" y="745" type="line"/>
      <point x="463" y="681"/>
      <point x="445" y="615"/>
    </contour>
  </outline>
</glyph>
<glyph name="oacute" format="2">
  <advance width="595"/>
  <unicode hex="00F3"/>
  <outline>
    <contour>
      <point x="299" y="533" type="curve" smooth="yes"/>
      <point x="465" y="533"/>
      <point x="548" y="420"/>
      <point x="548" y="263" type="curve" smooth="yes"/>
      <point x="548" y="106"/>
      <point x="465" y="-6"/>
      <point x="297" y="-6" type="curve" smooth="yes"/>
      <point x="130" y="-6"/>
      <point x="47" y="106"/>
      <point x="47" y="263" type="curve" smooth="yes"/>
      <point x="47" y="420"/>
      <point x="131" y="533"/>
    </contour>
    <contour>
      <point x="297" y="69" type="curve" smooth="yes"/>
      <point x="413" y="69"/>
      <point x="463" y="155"/>
      <point x="463" y="263" type="curve" smooth="yes"/>
      <point x="463" y="371"/>
      <point x="413" y="457"/>
      <point x="297" y="457" type="curve" smooth="yes"/>
      <point x="182" y="457"/>
      <point x="132" y="371"/>
      <point x="132" y="263" type="curve" smooth="yes"/>
      <point x="132" y="155"/>
      <point x="182" y="69"/>
    </contour>
    <contour>
      <point x="319" y="769" type="line"/>
      <point x="411" y="769" type="line"/>
      <point x="311" y="628" type="line"/>
      <point x="234" y="628" type="line"/>
    </contour>
  </outline>
</glyph>
<glyph name="otilde" format="2">
  <advance width="595"/>
  <unicode hex="00F5"/>
  <outline>
    <contour>
      <point x="299" y="533" type="curve" smooth="yes"/>
      <point x="465" y="533"/>
      <point x="548" y="420"/>
      <point x="548" y="263" type="curve" smooth="yes"/>
      <point x="548" y="106"/>
      <point x="465" y="-6"/>
      <point x="297" y="-6" type="curve" smooth="yes"/>
      <point x="130" y="-6"/>
      <point x="47" y="106"/>
      <point x="47" y="263" type="curve" smooth="yes"/>
      <point x="47" y="420"/>
      <point x="131" y="533"/>
    </contour>
    <contour>
      <point x="297" y="69" type="curve" smooth="yes"/>
      <point x="413" y="69"/>
      <point x="463" y="155"/>
      <point x="463" y="263" type="curve" smooth="yes"/>
      <point x="463" y="371"/>
      <point x="413" y="457"/>
      <point x="297" y="457" type="curve" smooth="yes"/>
      <point x="182" y="457"/>
      <point x="132" y="371"/>
      <point x="132" y="263" type="curve" smooth="yes"/>
      <point x="132" y="155"/>
      <point x="182" y="69"/>
    </contour>
    <contour>
      <point x="362" y="615" type="curve" smooth="yes"/>
      <point x="296" y="615"/>
      <point x="263" y="687"/>
      <point x="230" y="687" type="curve" smooth="yes"/>
      <point x="199" y="687"/>
      <point x="200" y="641"/>
      <point x="200" y="620" type="curve"/>
      <point x="131" y="620" type="line"/>
      <point x="131" y="685"/>
      <point x="151" y="750"/>
      <point x="231" y="750" type="curve" smooth="yes"/>
      <point x="297" y="750"/>
      <point x="330" y="677"/>
      <point x="363" y="677" type="curve" smooth="yes"/>
      <point x="396" y="677"/>
      <point x="394" y="723"/>
      <point x="394" y="745" type="curve"/>
      <point x="464" y="745" type="line"/>
      <point x="461" y="681"/>
      <point x="443" y="615"/>
    </contour>
  </outline>
</glyph>
<glyph name="odieresis" format="2">
  <advance width="587"/>
  <unicode hex="00F6"/>
  <outline>
    <contour>
      <point x="184" y="707" type="curve" smooth="yes"/>
      <point x="217" y="707"/>
      <point x="242" y="684"/>
      <point x="242" y="651" type="curve" smooth="yes"/>
      <point x="242" y="618"/>
      <point x="217" y="595"/>
      <point x="184" y="595" type="curve" smooth="yes"/>
      <point x="152" y="595"/>
      <point x="127" y="618"/>
      <point x="127" y="651" type="curve" smooth="yes"/>
      <point x="127" y="684"/>
      <point x="152" y="707"/>
    </contour>
    <contour>
      <point x="409" y="707" type="curve" smooth="yes"/>
      <point x="442" y="707"/>
      <point x="467" y="684"/>
      <point x="467" y="651" type="curve" smooth="yes"/>
      <point x="467" y="618"/>
      <point x="442" y="595"/>
      <point x="409" y="595" type="curve" smooth="yes"/>
      <point x="377" y="595"/>
      <point x="353" y="618"/>
      <point x="353" y="651" type="curve" smooth="yes"/>
      <point x="353" y="684"/>
      <point x="377" y="707"/>
    </contour>
    <contour>
      <point x="293" y="533" type="curve" smooth="yes"/>
      <point x="461" y="533"/>
      <point x="544" y="420"/>
      <point x="544" y="263" type="curve" smooth="yes"/>
      <point x="544" y="106"/>
      <point x="461" y="-6"/>
      <point x="293" y="-6" type="curve" smooth="yes"/>
      <point x="126" y="-6"/>
      <point x="43" y="106"/>
      <point x="43" y="263" type="curve" smooth="yes"/>
      <point x="43" y="420"/>
      <point x="126" y="533"/>
    </contour>
    <contour>
      <point x="293" y="69" type="curve" smooth="yes"/>
      <point x="409" y="69"/>
      <point x="459" y="155"/>
      <point x="459" y="263" type="curve" smooth="yes"/>
      <point x="459" y="371"/>
      <point x="409" y="457"/>
      <point x="293" y="457" type="curve" smooth="yes"/>
      <point x="178" y="457"/>
      <point x="128" y="371"/>
      <point x="128" y="263" type="curve" smooth="yes"/>
      <point x="128" y="155"/>
      <point x="178" y="69"/>
    </contour>
  </outline>
</glyph>
<glyph name="divide" format="2">
  <advance width="474"/>
  <unicode hex="00F7"/>
  <outline>
    <contour>
      <point x="236" y="594" type="curve" smooth="yes"/>
      <point x="271" y="594"/>
      <point x="296" y="569"/>
      <point x="296" y="534" type="curve" smooth="yes"/>
      <point x="296" y="499"/>
      <point x="271" y="474"/>
      <point x="236" y="474" type="curve" smooth="yes"/>
      <point x="201" y="474"/>
      <point x="177" y="499"/>
      <point x="177" y="534" type="curve" smooth="yes"/>
      <point x="177" y="569"/>
      <point x="201" y="594"/>
    </contour>
    <contour>
      <point x="59" y="399" type="line"/>
      <point x="415" y="399" type="line"/>
      <point x="415" y="322" type="line"/>
      <point x="59" y="322" type="line"/>
    </contour>
    <contour>
      <point x="236" y="239" type="curve" smooth="yes"/>
      <point x="271" y="239"/>
      <point x="296" y="214"/>
      <point x="296" y="179" type="curve" smooth="yes"/>
      <point x="296" y="143"/>
      <point x="271" y="118"/>
      <point x="236" y="118" type="curve" smooth="yes"/>
      <point x="201" y="118"/>
      <point x="177" y="143"/>
      <point x="177" y="179" type="curve" smooth="yes"/>
      <point x="177" y="214"/>
      <point x="201" y="239"/>
    </contour>
  </outline>
</glyph>
<glyph name="oslash" format="2">
  <advance width="595"/>
  <unicode hex="00F8"/>
  <outline>
    <contour>
      <point x="524" y="618" type="line"/>
      <point x="455" y="484" type="line"/>
      <point x="520" y="433"/>
      <point x="548" y="351"/>
      <point x="548" y="263" type="curve" smooth="yes"/>
      <point x="548" y="112"/>
      <point x="469" y="-6"/>
      <point x="297" y="-6" type="curve" smooth="yes"/>
      <point x="264" y="-6"/>
      <point x="234" y="-2"/>
      <point x="208" y="6" type="curve"/>
      <point x="158" y="-91" type="line"/>
      <point x="71" y="-91" type="line"/>
      <point x="139" y="41" type="line"/>
      <point x="76" y="86"/>
      <point x="47" y="167"/>
      <point x="47" y="263" type="curve" smooth="yes"/>
      <point x="47" y="418"/>
      <point x="126" y="533"/>
      <point x="299" y="533" type="curve" smooth="yes"/>
      <point x="332" y="533"/>
      <point x="361" y="529"/>
      <point x="387" y="521" type="curve"/>
      <point x="437" y="618" type="line"/>
    </contour>
    <contour>
      <point x="297" y="69" type="curve" smooth="yes"/>
      <point x="414" y="69"/>
      <point x="463" y="158"/>
      <point x="463" y="263" type="curve" smooth="yes"/>
      <point x="463" y="321"/>
      <point x="447" y="369"/>
      <point x="415" y="408" type="curve"/>
      <point x="244" y="76" type="line"/>
      <point x="259" y="71"/>
      <point x="276" y="69"/>
    </contour>
    <contour>
      <point x="297" y="457" type="curve" smooth="yes"/>
      <point x="184" y="457"/>
      <point x="132" y="375"/>
      <point x="132" y="263" type="curve" smooth="yes"/>
      <point x="132" y="207"/>
      <point x="145" y="149"/>
      <point x="178" y="116" type="curve"/>
      <point x="350" y="449" type="line"/>
      <point x="333" y="454"/>
      <point x="315" y="457"/>
    </contour>
  </outline>
</glyph>
<glyph name="ugrave" format="2">
  <advance width="576"/>
  <unicode hex="00F9"/>
  <outline>
    <contour>
      <point x="287" y="69" type="curve" smooth="yes"/>
      <point x="383" y="69"/>
      <point x="426" y="130"/>
      <point x="426" y="234" type="curve" smooth="yes"/>
      <point x="426" y="527" type="line"/>
      <point x="511" y="527" type="line"/>
      <point x="511" y="230" type="line" smooth="yes"/>
      <point x="511" y="70"/>
      <point x="432" y="-6"/>
      <point x="287" y="-6" type="curve" smooth="yes"/>
      <point x="142" y="-6"/>
      <point x="65" y="70"/>
      <point x="65" y="230" type="curve" smooth="yes"/>
      <point x="65" y="527" type="line"/>
      <point x="150" y="527" type="line"/>
      <point x="150" y="234" type="line" smooth="yes"/>
      <point x="150" y="130"/>
      <point x="195" y="69"/>
    </contour>
    <contour>
      <point x="282" y="628" type="line"/>
      <point x="182" y="769" type="line"/>
      <point x="274" y="769" type="line"/>
      <point x="359" y="628" type="line"/>
    </contour>
  </outline>
</glyph>
<glyph name="ucircumflex" format="2">
  <advance width="576"/>
  <unicode hex="00FB"/>
  <outline>
    <contour>
      <point x="287" y="69" type="curve" smooth="yes"/>
      <point x="383" y="69"/>
      <point x="426" y="130"/>
      <point x="426" y="234" type="curve" smooth="yes"/>
      <point x="426" y="527" type="line"/>
      <point x="511" y="527" type="line"/>
      <point x="511" y="230" type="line" smooth="yes"/>
      <point x="511" y="70"/>
      <point x="432" y="-6"/>
      <point x="287" y="-6" type="curve" smooth="yes"/>
      <point x="142" y="-6"/>
      <point x="65" y="70"/>
      <point x="65" y="230" type="curve" smooth="yes"/>
      <point x="65" y="527" type="line"/>
      <point x="150" y="527" type="line"/>
      <point x="150" y="234" type="line" smooth="yes"/>
      <point x="150" y="130"/>
      <point x="195" y="69"/>
    </contour>
    <contour>
      <point x="317" y="769" type="line"/>
      <point x="451" y="606" type="line"/>
      <point x="365" y="606" type="line"/>
      <point x="287" y="702" type="line"/>
      <point x="209" y="606" type="line"/>
      <point x="124" y="606" type="line"/>
      <point x="257" y="769" type="line"/>
    </contour>
  </outline>
</glyph>
<glyph name="udieresis" format="2">
  <advance width="576"/>
  <unicode hex="00FC"/>
  <outline>
    <contour>
      <point x="174" y="707" type="curve" smooth="yes"/>
      <point x="207" y="707"/>
      <point x="232" y="684"/>
      <point x="232" y="651" type="curve" smooth="yes"/>
      <point x="232" y="618"/>
      <point x="207" y="595"/>
      <point x="174" y="595" type="curve" smooth="yes"/>
      <point x="142" y="595"/>
      <point x="117" y="618"/>
      <point x="117" y="651" type="curve" smooth="yes"/>
      <point x="117" y="684"/>
      <point x="142" y="707"/>
    </contour>
    <contour>
      <point x="399" y="707" type="curve" smooth="yes"/>
      <point x="432" y="707"/>
      <point x="457" y="684"/>
      <point x="457" y="651" type="curve" smooth="yes"/>
      <point x="457" y="618"/>
      <point x="432" y="595"/>
      <point x="399" y="595" type="curve" smooth="yes"/>
      <point x="367" y="595"/>
      <point x="343" y="618"/>
      <point x="343" y="651" type="curve" smooth="yes"/>
      <point x="343" y="684"/>
      <point x="367" y="707"/>
    </contour>
    <contour>
      <point x="287" y="69" type="curve" smooth="yes"/>
      <point x="383" y="69"/>
      <point x="426" y="130"/>
      <point x="426" y="234" type="curve" smooth="yes"/>
      <point x="426" y="527" type="line"/>
      <point x="511" y="527" type="line"/>
      <point x="511" y="230" type="line" smooth="yes"/>
      <point x="511" y="70"/>
      <point x="432" y="-6"/>
      <point x="287" y="-6" type="curve" smooth="yes"/>
      <point x="142" y="-6"/>
      <point x="65" y="70"/>
      <point x="65" y="230" type="curve" smooth="yes"/>
      <point x="65" y="527" type="line"/>
      <point x="150" y="527" type="line"/>
      <point x="150" y="234" type="line" smooth="yes"/>
      <point x="150" y="130"/>
      <point x="195" y="69"/>
    </contour>
  </outline>
</glyph>
<glyph name="thorn" format="2">
  <advance width="604"/>
  <unicode hex="00FE"/>
  <outline>
    <contour>
      <point x="67" y="-190" type="line"/>
      <point x="67" y="707" type="line"/>
      <point x="152" y="707" type="line"/>
      <point x="152" y="448" type="line"/>
      <point x="191" y="503"/>
      <point x="255" y="533"/>
      <point x="326" y="533" type="curve" smooth="yes"/>
      <point x="487" y="533"/>
      <point x="557" y="411"/>
      <point x="557" y="263" type="curve" smooth="yes"/>
      <point x="557" y="112"/>
      <point x="485" y="-6"/>
      <point x="322" y="-6" type="curve" smooth="yes"/>
      <point x="255" y="-6"/>
      <point x="196" y="14"/>
      <point x="152" y="66" type="curve"/>
      <point x="152" y="-190" type="line"/>
    </contour>
    <contour>
      <point x="315" y="69" type="curve" smooth="yes"/>
      <point x="431" y="69"/>
      <point x="472" y="162"/>
      <point x="472" y="263" type="curve" smooth="yes"/>
      <point x="472" y="368"/>
      <point x="430" y="457"/>
      <point x="313" y="457" type="curve" smooth="yes"/>
      <point x="205" y="457"/>
      <point x="150" y="362"/>
      <point x="150" y="262" type="curve" smooth="yes"/>
      <point x="150" y="158"/>
      <point x="199" y="69"/>
    </contour>
  </outline>
</glyph>
<glyph name="ydieresis" format="2">
  <advance width="597"/>
  <unicode hex="00FF"/>
  <outline>
    <contour>
      <point x="530" y="527" type="line"/>
      <point x="530" y="0" type="line" smooth="yes"/>
      <point x="530" y="-153"/>
      <point x="447" y="-236"/>
      <point x="299" y="-236" type="curve" smooth="yes"/>
      <point x="213" y="-236"/>
      <point x="140" y="-216"/>
      <point x="80" y="-160" type="curve"/>
      <point x="117" y="-93" type="line"/>
      <point x="169" y="-134"/>
      <point x="229" y="-160"/>
      <point x="294" y="-160" type="curve" smooth="yes"/>
      <point x="403" y="-160"/>
      <point x="447" y="-89"/>
      <point x="447" y="8" type="curve" smooth="yes"/>
      <point x="447" y="71" type="line"/>
      <point x="411" y="16"/>
      <point x="343" y="-8"/>
      <point x="273" y="-8" type="curve" smooth="yes"/>
      <point x="114" y="-7"/>
      <point x="67" y="92"/>
      <point x="67" y="236" type="curve" smooth="yes"/>
      <point x="67" y="527" type="line"/>
      <point x="152" y="527" type="line"/>
      <point x="152" y="260" type="line" smooth="yes"/>
      <point x="152" y="163"/>
      <point x="168" y="67"/>
      <point x="288" y="67" type="curve" smooth="yes"/>
      <point x="348" y="67"/>
      <point x="390" y="95"/>
      <point x="413" y="134" type="curve" smooth="yes"/>
      <point x="438" y="174"/>
      <point x="445" y="223"/>
      <point x="445" y="274" type="curve" smooth="yes"/>
      <point x="445" y="527" type="line"/>
    </contour>
    <contour>
      <point x="187" y="707" type="curve" smooth="yes"/>
      <point x="220" y="707"/>
      <point x="245" y="684"/>
      <point x="245" y="651" type="curve" smooth="yes"/>
      <point x="245" y="618"/>
      <point x="220" y="595"/>
      <point x="187" y="595" type="curve" smooth="yes"/>
      <point x="155" y="595"/>
      <point x="130" y="618"/>
      <point x="130" y="651" type="curve" smooth="yes"/>
      <point x="130" y="684"/>
      <point x="155" y="707"/>
    </contour>
    <contour>
      <point x="412" y="707" type="curve" smooth="yes"/>
      <point x="445" y="707"/>
      <point x="470" y="684"/>
      <point x="470" y="651" type="curve" smooth="yes"/>
      <point x="470" y="618"/>
      <point x="445" y="595"/>
      <point x="412" y="595" type="curve" smooth="yes"/>
      <point x="380" y="595"/>
      <point x="356" y="618"/>
      <point x="356" y="651" type="curve" smooth="yes"/>
      <point x="356" y="684"/>
      <point x="380" y="707"/>
    </contour>
  </outline>
</glyph>
<glyph name="Amacron" format="2">
  <advance width="670"/>
  <unicode hex="0100"/>
  <outline>
    <contour>
      <point x="566" y="0" type="line"/>
      <point x="510" y="152" type="line"/>
      <point x="160" y="152" type="line"/>
      <point x="104" y="0" type="line"/>
      <point x="10" y="0" type="line"/>
      <point x="273" y="707" type="line"/>
      <point x="398" y="707" type="line"/>
      <point x="660" y="0" type="line"/>
    </contour>
    <contour>
      <point x="335" y="631" type="line"/>
      <point x="189" y="231" type="line"/>
      <point x="481" y="231" type="line"/>
    </contour>
    <contour>
      <point x="175" y="887" type="line"/>
      <point x="494" y="887" type="line"/>
      <point x="494" y="813" type="line"/>
      <point x="175" y="813" type="line"/>
    </contour>
  </outline>
</glyph>
<glyph name="Abreve" format="2">
  <advance width="670"/>
  <unicode hex="0102"/>
  <outline>
    <contour>
      <point x="660" y="0" type="line"/>
      <point x="566" y="0" type="line"/>
      <point x="510" y="152" type="line"/>
      <point x="160" y="152" type="line"/>
      <point x="104" y="0" type="line"/>
      <point x="10" y="0" type="line"/>
      <point x="273" y="707" type="line"/>
      <point x="398" y="707" type="line"/>
    </contour>
    <contour>
      <point x="481" y="231" type="line"/>
      <point x="335" y="631" type="line"/>
      <point x="189" y="231" type="line"/>
    </contour>
    <contour>
      <point x="337" y="860" type="curve" smooth="yes"/>
      <point x="393" y="860"/>
      <point x="427" y="880"/>
      <point x="430" y="927" type="curve"/>
      <point x="508" y="927" type="line"/>
      <point x="505" y="840"/>
      <point x="441" y="794"/>
      <point x="336" y="794" type="curve" smooth="yes"/>
      <point x="231" y="794"/>
      <point x="169" y="840"/>
      <point x="166" y="927" type="curve"/>
      <point x="244" y="927" type="line"/>
      <point x="247" y="880"/>
      <point x="281" y="860"/>
    </contour>
  </outline>
</glyph>
<glyph name="Aogonek" format="2">
  <advance width="670"/>
  <unicode hex="0104"/>
  <outline>
    <contour>
      <point x="615" y="-224" type="curve"/>
      <point x="534" y="-223"/>
      <point x="486" y="-179"/>
      <point x="486" y="-111" type="curve" smooth="yes"/>
      <point x="486" y="-59"/>
      <point x="520" y="-18"/>
      <point x="564" y="6" type="curve"/>
      <point x="510" y="152" type="line"/>
      <point x="160" y="152" type="line"/>
      <point x="104" y="0" type="line"/>
      <point x="10" y="0" type="line"/>
      <point x="273" y="707" type="line"/>
      <point x="398" y="707" type="line"/>
      <point x="660" y="0" type="line"/>
      <point x="636" y="0" type="line"/>
      <point x="601" y="-22"/>
      <point x="560" y="-57"/>
      <point x="560" y="-101" type="curve" smooth="yes"/>
      <point x="560" y="-138"/>
      <point x="585" y="-160"/>
      <point x="624" y="-160" type="curve" smooth="yes"/>
      <point x="640" y="-160"/>
      <point x="656" y="-156"/>
      <point x="672" y="-148" type="curve"/>
      <point x="686" y="-207" type="line"/>
      <point x="662" y="-220"/>
      <point x="642" y="-224"/>
    </contour>
    <contour>
      <point x="335" y="631" type="line"/>
      <point x="189" y="231" type="line"/>
      <point x="481" y="231" type="line"/>
    </contour>
  </outline>
</glyph>
<glyph name="aogonek" format="2">
  <advance width="555"/>
  <unicode hex="0105"/>
  <outline>
    <contour>
      <point x="459" y="-224" type="curve"/>
      <point x="378" y="-223"/>
      <point x="330" y="-179"/>
      <point x="330" y="-111" type="curve" smooth="yes"/>
      <point x="330" y="-54"/>
      <point x="370" y="-13"/>
      <point x="418" y="11" type="curve"/>
      <point x="414" y="67" type="line"/>
      <point x="369" y="6"/>
      <point x="294" y="-6"/>
      <point x="236" y="-6" type="curve" smooth="yes"/>
      <point x="140" y="-6"/>
      <point x="49" y="45"/>
      <point x="49" y="150" type="curve" smooth="yes"/>
      <point x="49" y="271"/>
      <point x="144" y="309"/>
      <point x="252" y="309" type="curve" smooth="yes"/>
      <point x="407" y="309" type="line"/>
      <point x="407" y="398"/>
      <point x="372" y="457"/>
      <point x="280" y="457" type="curve" smooth="yes"/>
      <point x="224" y="457"/>
      <point x="178" y="440"/>
      <point x="162" y="397" type="curve"/>
      <point x="71" y="397" type="line"/>
      <point x="89" y="492"/>
      <point x="190" y="533"/>
      <point x="280" y="533" type="curve" smooth="yes"/>
      <point x="359" y="533"/>
      <point x="412" y="505"/>
      <point x="445" y="463" type="curve" smooth="yes"/>
      <point x="478" y="421"/>
      <point x="490" y="360"/>
      <point x="490" y="285" type="curve" smooth="yes"/>
      <point x="490" y="0" type="line"/>
      <point x="480" y="0" type="line"/>
      <point x="445" y="-22"/>
      <point x="404" y="-57"/>
      <point x="404" y="-101" type="curve" smooth="yes"/>
      <point x="404" y="-138"/>
      <point x="429" y="-160"/>
      <point x="468" y="-160" type="curve" smooth="yes"/>
      <point x="484" y="-160"/>
      <point x="500" y="-156"/>
      <point x="516" y="-148" type="curve"/>
      <point x="530" y="-207" type="line"/>
      <point x="506" y="-220"/>
      <point x="486" y="-224"/>
    </contour>
    <contour>
      <point x="407" y="238" type="line"/>
      <point x="258" y="238" type="line" smooth="yes"/>
      <point x="195" y="238"/>
      <point x="134" y="221"/>
      <point x="134" y="156" type="curve" smooth="yes"/>
      <point x="134" y="96"/>
      <point x="187" y="69"/>
      <point x="244" y="69" type="curve" smooth="yes"/>
      <point x="344" y="69"/>
      <point x="406" y="119"/>
      <point x="407" y="212" type="curve"/>
    </contour>
  </outline>
</glyph>
<glyph name="Cacute" format="2">
  <advance width="704"/>
  <unicode hex="0106"/>
  <outline>
    <contour>
      <point x="372" y="636" type="curve" smooth="yes"/>
      <point x="204" y="636"/>
      <point x="137" y="503"/>
      <point x="137" y="356" type="curve" smooth="yes"/>
      <point x="137" y="199"/>
      <point x="210" y="71"/>
      <point x="375" y="71" type="curve" smooth="yes"/>
      <point x="475" y="71"/>
      <point x="547" y="116"/>
      <point x="567" y="185" type="curve"/>
      <point x="662" y="185" type="line"/>
      <point x="631" y="68"/>
      <point x="530" y="-8"/>
      <point x="373" y="-8" type="curve" smooth="yes"/>
      <point x="154" y="-8"/>
      <point x="48" y="143"/>
      <point x="48" y="353" type="curve" smooth="yes"/>
      <point x="48" y="560"/>
      <point x="155" y="715"/>
      <point x="375" y="715" type="curve" smooth="yes"/>
      <point x="531" y="715"/>
      <point x="622" y="637"/>
      <point x="649" y="522" type="curve"/>
      <point x="561" y="522" type="line"/>
      <point x="541" y="591"/>
      <point x="472" y="636"/>
    </contour>
    <contour>
      <point x="386" y="927" type="line"/>
      <point x="478" y="927" type="line"/>
      <point x="378" y="786" type="line"/>
      <point x="301" y="786" type="line"/>
    </contour>
  </outline>
</glyph>
<glyph name="ccircumflex" format="2">
  <advance width="553"/>
  <unicode hex="0109"/>
  <outline>
    <contour>
      <point x="292" y="-6" type="curve" smooth="yes"/>
      <point x="125" y="-6"/>
      <point x="47" y="107"/>
      <point x="47" y="262" type="curve" smooth="yes"/>
      <point x="47" y="411"/>
      <point x="126" y="533"/>
      <point x="300" y="533" type="curve" smooth="yes"/>
      <point x="406" y="533"/>
      <point x="485" y="484"/>
      <point x="508" y="376" type="curve"/>
      <point x="421" y="376" type="line"/>
      <point x="401" y="435"/>
      <point x="356" y="457"/>
      <point x="297" y="457" type="curve" smooth="yes"/>
      <point x="178" y="456"/>
      <point x="132" y="362"/>
      <point x="132" y="262" type="curve" smooth="yes"/>
      <point x="132" y="158"/>
      <point x="180" y="69"/>
      <point x="295" y="69" type="curve" smooth="yes"/>
      <point x="351" y="69"/>
      <point x="408" y="89"/>
      <point x="424" y="151" type="curve"/>
      <point x="512" y="151" type="line"/>
      <point x="491" y="42"/>
      <point x="396" y="-6"/>
    </contour>
    <contour>
      <point x="321" y="769" type="line"/>
      <point x="455" y="606" type="line"/>
      <point x="369" y="606" type="line"/>
      <point x="291" y="702" type="line"/>
      <point x="213" y="606" type="line"/>
      <point x="128" y="606" type="line"/>
      <point x="261" y="769" type="line"/>
    </contour>
  </outline>
</glyph>
<glyph name="Cdotaccent" format="2">
  <advance width="704"/>
  <unicode hex="010A"/>
  <outline>
    <contour>
      <point x="372" y="636" type="curve" smooth="yes"/>
      <point x="204" y="636"/>
      <point x="137" y="503"/>
      <point x="137" y="356" type="curve" smooth="yes"/>
      <point x="137" y="199"/>
      <point x="210" y="71"/>
      <point x="375" y="71" type="curve" smooth="yes"/>
      <point x="475" y="71"/>
      <point x="547" y="116"/>
      <point x="567" y="185" type="curve"/>
      <point x="662" y="185" type="line"/>
      <point x="631" y="68"/>
      <point x="530" y="-8"/>
      <point x="373" y="-8" type="curve" smooth="yes"/>
      <point x="154" y="-8"/>
      <point x="48" y="143"/>
      <point x="48" y="353" type="curve" smooth="yes"/>
      <point x="48" y="560"/>
      <point x="155" y="715"/>
      <point x="375" y="715" type="curve" smooth="yes"/>
      <point x="531" y="715"/>
      <point x="622" y="637"/>
      <point x="649" y="522" type="curve"/>
      <point x="561" y="522" type="line"/>
      <point x="541" y="591"/>
      <point x="472" y="636"/>
    </contour>
    <contour>
      <point x="371" y="898" type="curve" smooth="yes"/>
      <point x="402" y="898"/>
      <point x="429" y="874"/>
      <point x="429" y="842" type="curve" smooth="yes"/>
      <point x="429" y="809"/>
      <point x="403" y="785"/>
      <point x="371" y="785" type="curve" smooth="yes"/>
      <point x="336" y="785"/>
      <point x="314" y="809"/>
      <point x="314" y="842" type="curve" smooth="yes"/>
      <point x="314" y="875"/>
      <point x="338" y="898"/>
    </contour>
  </outline>
</glyph>
<glyph name="cdotaccent" format="2">
  <advance width="553"/>
  <unicode hex="010B"/>
  <outline>
    <contour>
      <point x="292" y="-6" type="curve" smooth="yes"/>
      <point x="125" y="-6"/>
      <point x="47" y="107"/>
      <point x="47" y="262" type="curve" smooth="yes"/>
      <point x="47" y="411"/>
      <point x="127" y="532"/>
      <point x="301" y="533" type="curve" smooth="yes"/>
      <point x="355" y="533"/>
      <point x="394" y="523"/>
      <point x="431" y="498" type="curve" smooth="yes"/>
      <point x="467" y="473"/>
      <point x="496" y="433"/>
      <point x="508" y="376" type="curve"/>
      <point x="421" y="376" type="line"/>
      <point x="401" y="435"/>
      <point x="356" y="458"/>
      <point x="297" y="457" type="curve"/>
      <point x="178" y="457"/>
      <point x="132" y="362"/>
      <point x="132" y="262" type="curve" smooth="yes"/>
      <point x="132" y="158"/>
      <point x="180" y="69"/>
      <point x="295" y="69" type="curve" smooth="yes"/>
      <point x="351" y="69"/>
      <point x="408" y="89"/>
      <point x="424" y="151" type="curve"/>
      <point x="512" y="151" type="line"/>
      <point x="491" y="42"/>
      <point x="396" y="-6"/>
    </contour>
    <contour>
      <point x="291" y="717" type="curve" smooth="yes"/>
      <point x="322" y="717"/>
      <point x="349" y="693"/>
      <point x="349" y="661" type="curve" smooth="yes"/>
      <point x="349" y="628"/>
      <point x="323" y="604"/>
      <point x="291" y="604" type="curve" smooth="yes"/>
      <point x="256" y="604"/>
      <point x="234" y="628"/>
      <point x="234" y="661" type="curve" smooth="yes"/>
      <point x="234" y="694"/>
      <point x="258" y="717"/>
    </contour>
  </outline>
</glyph>
<glyph name="ccaron" format="2">
  <advance width="553"/>
  <unicode hex="010D"/>
  <outline>
    <contour>
      <point x="292" y="-6" type="curve" smooth="yes"/>
      <point x="125" y="-6"/>
      <point x="47" y="107"/>
      <point x="47" y="262" type="curve" smooth="yes"/>
      <point x="47" y="411"/>
      <point x="125" y="532"/>
      <point x="299" y="533" type="curve" smooth="yes"/>
      <point x="353" y="533"/>
      <point x="394" y="522"/>
      <point x="431" y="497" type="curve" smooth="yes"/>
      <point x="467" y="472"/>
      <point x="496" y="433"/>
      <point x="508" y="376" type="curve"/>
      <point x="421" y="376" type="line"/>
      <point x="401" y="435"/>
      <point x="356" y="457"/>
      <point x="297" y="457" type="curve" smooth="yes"/>
      <point x="178" y="456"/>
      <point x="132" y="362"/>
      <point x="132" y="262" type="curve" smooth="yes"/>
      <point x="132" y="158"/>
      <point x="180" y="69"/>
      <point x="295" y="69" type="curve" smooth="yes"/>
      <point x="351" y="69"/>
      <point x="408" y="89"/>
      <point x="424" y="151" type="curve"/>
      <point x="512" y="151" type="line"/>
      <point x="491" y="42"/>
      <point x="396" y="-6"/>
    </contour>
    <contour>
      <point x="269" y="606" type="line"/>
      <point x="134" y="769" type="line"/>
      <point x="221" y="769" type="line"/>
      <point x="299" y="673" type="line"/>
      <point x="377" y="769" type="line"/>
      <point x="462" y="769" type="line"/>
      <point x="328" y="606" type="line"/>
    </contour>
  </outline>
</glyph>
<glyph name="dcaron" format="2">
  <advance width="672"/>
  <unicode hex="010F"/>
  <outline>
    <contour>
      <point x="537" y="0" type="line"/>
      <point x="456" y="0" type="line"/>
      <point x="452" y="79" type="line"/>
      <point x="416" y="19"/>
      <point x="347" y="-6"/>
      <point x="278" y="-6" type="curve" smooth="yes"/>
      <point x="118" y="-6"/>
      <point x="47" y="110"/>
      <point x="47" y="262" type="curve" smooth="yes"/>
      <point x="47" y="414"/>
      <point x="120" y="533"/>
      <point x="282" y="533" type="curve" smooth="yes"/>
      <point x="343" y="533"/>
      <point x="412" y="512"/>
      <point x="452" y="461" type="curve"/>
      <point x="452" y="707" type="line"/>
      <point x="537" y="707" type="line"/>
    </contour>
    <contour>
      <point x="289" y="457" type="curve" smooth="yes"/>
      <point x="174" y="457"/>
      <point x="132" y="371"/>
      <point x="132" y="261" type="curve" smooth="yes"/>
      <point x="132" y="155"/>
      <point x="173" y="69"/>
      <point x="290" y="69" type="curve" smooth="yes"/>
      <point x="358" y="69"/>
      <point x="400" y="105"/>
      <point x="427" y="153" type="curve" smooth="yes"/>
      <point x="446" y="186"/>
      <point x="453" y="227"/>
      <point x="453" y="266" type="curve" smooth="yes"/>
      <point x="453" y="314"/>
      <point x="446" y="353"/>
      <point x="423" y="388" type="curve" smooth="yes"/>
      <point x="396" y="427"/>
      <point x="353" y="457"/>
    </contour>
    <contour>
      <point x="627" y="603" type="curve"/>
      <point x="592" y="606"/>
      <point x="569" y="627"/>
      <point x="569" y="660" type="curve" smooth="yes"/>
      <point x="569" y="697"/>
      <point x="596" y="718"/>
      <point x="629" y="718" type="curve" smooth="yes"/>
      <point x="652" y="718"/>
      <point x="669" y="709"/>
      <point x="679" y="692" type="curve" smooth="yes"/>
      <point x="688" y="676"/>
      <point x="692" y="658"/>
      <point x="692" y="639" type="curve" smooth="yes"/>
      <point x="692" y="572"/>
      <point x="644" y="503"/>
      <point x="590" y="484" type="curve"/>
      <point x="566" y="517" type="line"/>
      <point x="593" y="536"/>
      <point x="619" y="571"/>
    </contour>
  </outline>
</glyph>
<glyph name="Dcroat" format="2">
  <advance width="720"/>
  <unicode hex="0110"/>
  <outline>
    <contour>
      <point x="9" y="392" type="line"/>
      <point x="87" y="392" type="line"/>
      <point x="87" y="707" type="line"/>
      <point x="338" y="707" type="line" smooth="yes"/>
      <point x="558" y="707"/>
      <point x="671" y="565"/>
      <point x="671" y="353" type="curve" smooth="yes"/>
      <point x="671" y="142"/>
      <point x="559" y="0"/>
      <point x="338" y="0" type="curve" smooth="yes"/>
      <point x="87" y="0" type="line"/>
      <point x="87" y="314" type="line"/>
      <point x="9" y="314" type="line"/>
    </contour>
    <contour>
      <point x="174" y="628" type="line"/>
      <point x="174" y="392" type="line"/>
      <point x="333" y="392" type="line"/>
      <point x="333" y="314" type="line"/>
      <point x="174" y="314" type="line"/>
      <point x="174" y="79" type="line"/>
      <point x="332" y="79" type="line" smooth="yes"/>
      <point x="404" y="79"/>
      <point x="473" y="98"/>
      <point x="520" y="154" type="curve"/>
      <point x="563" y="203"/>
      <point x="582" y="272"/>
      <point x="582" y="353" type="curve" smooth="yes"/>
      <point x="582" y="437"/>
      <point x="562" y="502"/>
      <point x="522" y="550" type="curve" smooth="yes"/>
      <point x="482" y="598"/>
      <point x="421" y="628"/>
      <point x="337" y="628" type="curve" smooth="yes"/>
    </contour>
  </outline>
</glyph>
<glyph name="Emacron" format="2">
  <advance width="610"/>
  <unicode hex="0112"/>
  <outline>
    <contour>
      <point x="87" y="707" type="line"/>
      <point x="562" y="707" type="line"/>
      <point x="562" y="628" type="line"/>
      <point x="174" y="628" type="line"/>
      <point x="174" y="390" type="line"/>
      <point x="523" y="390" type="line"/>
      <point x="523" y="310" type="line"/>
      <point x="174" y="310" type="line"/>
      <point x="174" y="79" type="line"/>
      <point x="562" y="79" type="line"/>
      <point x="562" y="0" type="line"/>
      <point x="87" y="0" type="line"/>
    </contour>
    <contour>
      <point x="168" y="887" type="line"/>
      <point x="487" y="887" type="line"/>
      <point x="487" y="813" type="line"/>
      <point x="168" y="813" type="line"/>
    </contour>
  </outline>
</glyph>
<glyph name="Ebreve" format="2">
  <advance width="610"/>
  <unicode hex="0114"/>
  <outline>
    <contour>
      <point x="87" y="707" type="line"/>
      <point x="562" y="707" type="line"/>
      <point x="562" y="628" type="line"/>
      <point x="174" y="628" type="line"/>
      <point x="174" y="390" type="line"/>
      <point x="523" y="390" type="line"/>
      <point x="523" y="310" type="line"/>
      <point x="174" y="310" type="line"/>
      <point x="174" y="79" type="line"/>
      <point x="562" y="79" type="line"/>
      <point x="562" y="0" type="line"/>
      <point x="87" y="0" type="line"/>
    </contour>
    <contour>
      <point x="334" y="847" type="curve" smooth="yes"/>
      <point x="390" y="847"/>
      <point x="424" y="867"/>
      <point x="427" y="914" type="curve"/>
      <point x="505" y="914" type="line"/>
      <point x="502" y="827"/>
      <point x="438" y="781"/>
      <point x="333" y="781" type="curve" smooth="yes"/>
      <point x="228" y="781"/>
      <point x="166" y="827"/>
      <point x="163" y="914" type="curve"/>
      <point x="241" y="914" type="line"/>
      <point x="244" y="867"/>
      <point x="278" y="847"/>
    </contour>
  </outline>
</glyph>
<glyph name="ebreve" format="2">
  <advance width="573"/>
  <unicode hex="0115"/>
  <outline>
    <contour>
      <point x="133" y="232" type="line"/>
      <point x="141" y="140"/>
      <point x="193" y="69"/>
      <point x="297" y="69" type="curve" smooth="yes"/>
      <point x="349" y="69"/>
      <point x="409" y="87"/>
      <point x="428" y="141" type="curve"/>
      <point x="515" y="141" type="line"/>
      <point x="491" y="39"/>
      <point x="395" y="-6"/>
      <point x="295" y="-6" type="curve" smooth="yes"/>
      <point x="127" y="-6"/>
      <point x="47" y="106"/>
      <point x="47" y="263" type="curve" smooth="yes"/>
      <point x="47" y="420"/>
      <point x="134" y="532"/>
      <point x="294" y="533" type="curve" smooth="yes"/>
      <point x="378" y="533"/>
      <point x="440" y="497"/>
      <point x="477" y="443" type="curve" smooth="yes"/>
      <point x="514" y="389"/>
      <point x="528" y="321"/>
      <point x="526" y="268" type="curve" smooth="yes"/>
      <point x="525" y="256"/>
      <point x="525" y="244"/>
      <point x="524" y="232" type="curve"/>
    </contour>
    <contour>
      <point x="440" y="306" type="line"/>
      <point x="437" y="395"/>
      <point x="380" y="457"/>
      <point x="291" y="457" type="curve" smooth="yes"/>
      <point x="192" y="457"/>
      <point x="143" y="387"/>
      <point x="135" y="306" type="curve"/>
    </contour>
    <contour>
      <point x="296" y="673" type="curve" smooth="yes"/>
      <point x="352" y="673"/>
      <point x="386" y="693"/>
      <point x="389" y="740" type="curve"/>
      <point x="467" y="740" type="line"/>
      <point x="464" y="653"/>
      <point x="400" y="607"/>
      <point x="295" y="607" type="curve" smooth="yes"/>
      <point x="190" y="607"/>
      <point x="128" y="653"/>
      <point x="125" y="740" type="curve"/>
      <point x="203" y="740" type="line"/>
      <point x="206" y="693"/>
      <point x="240" y="673"/>
    </contour>
  </outline>
</glyph>
<glyph name="Edotaccent" format="2">
  <advance width="610"/>
  <unicode hex="0116"/>
  <outline>
    <contour>
      <point x="87" y="707" type="line"/>
      <point x="562" y="707" type="line"/>
      <point x="562" y="628" type="line"/>
      <point x="174" y="628" type="line"/>
      <point x="174" y="390" type="line"/>
      <point x="523" y="390" type="line"/>
      <point x="523" y="310" type="line"/>
      <point x="174" y="310" type="line"/>
      <point x="174" y="79" type="line"/>
      <point x="562" y="79" type="line"/>
      <point x="562" y="0" type="line"/>
      <point x="87" y="0" type="line"/>
    </contour>
    <contour>
      <point x="330" y="898" type="curve" smooth="yes"/>
      <point x="361" y="898"/>
      <point x="388" y="874"/>
      <point x="388" y="842" type="curve" smooth="yes"/>
      <point x="388" y="809"/>
      <point x="362" y="785"/>
      <point x="330" y="785" type="curve" smooth="yes"/>
      <point x="295" y="785"/>
      <point x="273" y="809"/>
      <point x="273" y="842" type="curve" smooth="yes"/>
      <point x="273" y="875"/>
      <point x="297" y="898"/>
    </contour>
  </outline>
</glyph>
<glyph name="edotaccent" format="2">
  <advance width="573"/>
  <unicode hex="0117"/>
  <outline>
    <contour>
      <point x="133" y="232" type="line"/>
      <point x="141" y="140"/>
      <point x="193" y="69"/>
      <point x="297" y="69" type="curve" smooth="yes"/>
      <point x="349" y="69"/>
      <point x="409" y="87"/>
      <point x="428" y="141" type="curve"/>
      <point x="515" y="141" type="line"/>
      <point x="491" y="39"/>
      <point x="395" y="-6"/>
      <point x="295" y="-6" type="curve" smooth="yes"/>
      <point x="127" y="-6"/>
      <point x="47" y="106"/>
      <point x="47" y="263" type="curve" smooth="yes"/>
      <point x="47" y="420"/>
      <point x="134" y="532"/>
      <point x="294" y="533" type="curve" smooth="yes"/>
      <point x="378" y="533"/>
      <point x="440" y="497"/>
      <point x="477" y="443" type="curve" smooth="yes"/>
      <point x="514" y="389"/>
      <point x="528" y="321"/>
      <point x="526" y="268" type="curve"/>
      <point x="525" y="256"/>
      <point x="525" y="244"/>
      <point x="524" y="232" type="curve"/>
    </contour>
    <contour>
      <point x="440" y="306" type="line"/>
      <point x="437" y="395"/>
      <point x="380" y="457"/>
      <point x="291" y="457" type="curve" smooth="yes"/>
      <point x="192" y="457"/>
      <point x="143" y="387"/>
      <point x="135" y="306" type="curve"/>
    </contour>
    <contour>
      <point x="294" y="718" type="curve" smooth="yes"/>
      <point x="325" y="718"/>
      <point x="352" y="694"/>
      <point x="352" y="662" type="curve" smooth="yes"/>
      <point x="352" y="629"/>
      <point x="326" y="605"/>
      <point x="294" y="605" type="curve" smooth="yes"/>
      <point x="259" y="605"/>
      <point x="237" y="629"/>
      <point x="237" y="662" type="curve" smooth="yes"/>
      <point x="237" y="695"/>
      <point x="261" y="718"/>
    </contour>
  </outline>
</glyph>
<glyph name="Eogonek" format="2">
  <advance width="610"/>
  <unicode hex="0118"/>
  <outline>
    <contour>
      <point x="365" y="-224" type="curve"/>
      <point x="284" y="-223"/>
      <point x="236" y="-179"/>
      <point x="236" y="-111" type="curve" smooth="yes"/>
      <point x="236" y="-63"/>
      <point x="265" y="-25"/>
      <point x="304" y="0" type="curve"/>
      <point x="87" y="0" type="line"/>
      <point x="87" y="707" type="line"/>
      <point x="562" y="707" type="line"/>
      <point x="562" y="628" type="line"/>
      <point x="174" y="628" type="line"/>
      <point x="174" y="390" type="line"/>
      <point x="523" y="390" type="line"/>
      <point x="523" y="310" type="line"/>
      <point x="174" y="310" type="line"/>
      <point x="174" y="79" type="line"/>
      <point x="562" y="79" type="line"/>
      <point x="562" y="0" type="line"/>
      <point x="386" y="0" type="line"/>
      <point x="351" y="-22"/>
      <point x="310" y="-57"/>
      <point x="310" y="-101" type="curve" smooth="yes"/>
      <point x="310" y="-138"/>
      <point x="335" y="-160"/>
      <point x="374" y="-160" type="curve" smooth="yes"/>
      <point x="390" y="-160"/>
      <point x="406" y="-156"/>
      <point x="422" y="-148" type="curve"/>
      <point x="436" y="-207" type="line"/>
      <point x="412" y="-220"/>
      <point x="392" y="-224"/>
    </contour>
  </outline>
</glyph>
<glyph name="eogonek" format="2">
  <advance width="573"/>
  <unicode hex="0119"/>
  <outline>
    <contour>
      <point x="347" y="-224" type="curve"/>
      <point x="266" y="-223"/>
      <point x="218" y="-179"/>
      <point x="218" y="-111" type="curve" smooth="yes"/>
      <point x="218" y="-81"/>
      <point x="228" y="-55"/>
      <point x="247" y="-34" type="curve" smooth="yes"/>
      <point x="256" y="-23"/>
      <point x="266" y="-14"/>
      <point x="277" y="-5" type="curve"/>
      <point x="242" y="-4"/>
      <point x="212" y="3"/>
      <point x="185" y="14" type="curve" smooth="yes"/>
      <point x="92" y="54"/>
      <point x="47" y="144"/>
      <point x="47" y="263" type="curve" smooth="yes"/>
      <point x="47" y="420"/>
      <point x="134" y="532"/>
      <point x="294" y="533" type="curve" smooth="yes"/>
      <point x="378" y="534"/>
      <point x="440" y="497"/>
      <point x="477" y="443" type="curve" smooth="yes"/>
      <point x="514" y="389"/>
      <point x="528" y="321"/>
      <point x="526" y="268" type="curve" smooth="yes"/>
      <point x="525" y="256"/>
      <point x="525" y="244"/>
      <point x="524" y="232" type="curve"/>
      <point x="133" y="232" type="line"/>
      <point x="141" y="140"/>
      <point x="193" y="69"/>
      <point x="297" y="69" type="curve" smooth="yes"/>
      <point x="349" y="69"/>
      <point x="409" y="87"/>
      <point x="428" y="141" type="curve"/>
      <point x="515" y="141" type="line"/>
      <point x="503" y="90"/>
      <point x="473" y="53"/>
      <point x="433" y="29" type="curve" smooth="yes"/>
      <point x="416" y="18"/>
      <point x="396" y="9"/>
      <point x="375" y="4" type="curve"/>
      <point x="364" y="-1"/>
      <point x="354" y="-7"/>
      <point x="344" y="-16" type="curve" smooth="yes"/>
      <point x="317" y="-39"/>
      <point x="292" y="-66"/>
      <point x="292" y="-101" type="curve" smooth="yes"/>
      <point x="292" y="-138"/>
      <point x="317" y="-160"/>
      <point x="356" y="-160" type="curve" smooth="yes"/>
      <point x="372" y="-160"/>
      <point x="388" y="-156"/>
      <point x="404" y="-148" type="curve"/>
      <point x="418" y="-207" type="line"/>
      <point x="394" y="-220"/>
      <point x="374" y="-224"/>
    </contour>
    <contour>
      <point x="440" y="306" type="line"/>
      <point x="437" y="395"/>
      <point x="380" y="457"/>
      <point x="291" y="457" type="curve" smooth="yes"/>
      <point x="192" y="457"/>
      <point x="143" y="387"/>
      <point x="135" y="306" type="curve"/>
    </contour>
  </outline>
</glyph>
<glyph name="Ecaron" format="2">
  <advance width="610"/>
  <unicode hex="011A"/>
  <outline>
    <contour>
      <point x="87" y="707" type="line"/>
      <point x="562" y="707" type="line"/>
      <point x="562" y="628" type="line"/>
      <point x="174" y="628" type="line"/>
      <point x="174" y="390" type="line"/>
      <point x="523" y="390" type="line"/>
      <point x="523" y="310" type="line"/>
      <point x="174" y="310" type="line"/>
      <point x="174" y="79" type="line"/>
      <point x="562" y="79" type="line"/>
      <point x="562" y="0" type="line"/>
      <point x="87" y="0" type="line"/>
    </contour>
    <contour>
      <point x="304" y="786" type="line"/>
      <point x="169" y="949" type="line"/>
      <point x="256" y="949" type="line"/>
      <point x="334" y="853" type="line"/>
      <point x="412" y="949" type="line"/>
      <point x="497" y="949" type="line"/>
      <point x="363" y="786" type="line"/>
    </contour>
  </outline>
</glyph>
<glyph name="ecaron" format="2">
  <advance width="573"/>
  <unicode hex="011B"/>
  <outline>
    <contour>
      <point x="133" y="232" type="line"/>
      <point x="141" y="140"/>
      <point x="193" y="69"/>
      <point x="297" y="69" type="curve" smooth="yes"/>
      <point x="349" y="69"/>
      <point x="409" y="87"/>
      <point x="428" y="141" type="curve"/>
      <point x="515" y="141" type="line"/>
      <point x="491" y="39"/>
      <point x="395" y="-6"/>
      <point x="295" y="-6" type="curve" smooth="yes"/>
      <point x="127" y="-6"/>
      <point x="47" y="106"/>
      <point x="47" y="263" type="curve" smooth="yes"/>
      <point x="47" y="420"/>
      <point x="134" y="533"/>
      <point x="294" y="533" type="curve"/>
      <point x="378" y="534"/>
      <point x="440" y="497"/>
      <point x="477" y="443" type="curve" smooth="yes"/>
      <point x="514" y="389"/>
      <point x="528" y="321"/>
      <point x="526" y="268" type="curve"/>
      <point x="525" y="256"/>
      <point x="525" y="244"/>
      <point x="524" y="232" type="curve"/>
    </contour>
    <contour>
      <point x="440" y="306" type="line"/>
      <point x="437" y="395"/>
      <point x="380" y="457"/>
      <point x="291" y="457" type="curve" smooth="yes"/>
      <point x="192" y="457"/>
      <point x="143" y="387"/>
      <point x="135" y="306" type="curve"/>
    </contour>
    <contour>
      <point x="267" y="606" type="line"/>
      <point x="132" y="769" type="line"/>
      <point x="219" y="769" type="line"/>
      <point x="297" y="673" type="line"/>
      <point x="375" y="769" type="line"/>
      <point x="460" y="769" type="line"/>
      <point x="326" y="606" type="line"/>
    </contour>
  </outline>
</glyph>
<glyph name="Gcircumflex" format="2">
  <advance width="720"/>
  <unicode hex="011C"/>
  <outline>
    <contour>
      <point x="369" y="636" type="curve" smooth="yes"/>
      <point x="204" y="636"/>
      <point x="137" y="510"/>
      <point x="137" y="353" type="curve" smooth="yes"/>
      <point x="137" y="197"/>
      <point x="209" y="71"/>
      <point x="373" y="71" type="curve" smooth="yes"/>
      <point x="444" y="71"/>
      <point x="497" y="90"/>
      <point x="532" y="127" type="curve" smooth="yes"/>
      <point x="573" y="170"/>
      <point x="589" y="218"/>
      <point x="589" y="278" type="curve"/>
      <point x="357" y="278" type="line"/>
      <point x="357" y="357" type="line"/>
      <point x="672" y="357" type="line"/>
      <point x="672" y="298" type="line" smooth="yes"/>
      <point x="672" y="220"/>
      <point x="647" y="129"/>
      <point x="590" y="74" type="curve" smooth="yes"/>
      <point x="538" y="22"/>
      <point x="464" y="-8"/>
      <point x="372" y="-8" type="curve" smooth="yes"/>
      <point x="152" y="-8"/>
      <point x="48" y="143"/>
      <point x="48" y="351" type="curve" smooth="yes"/>
      <point x="48" y="558"/>
      <point x="150" y="715"/>
      <point x="370" y="715" type="curve" smooth="yes"/>
      <point x="526" y="715"/>
      <point x="623" y="639"/>
      <point x="654" y="522" type="curve"/>
      <point x="559" y="522" type="line"/>
      <point x="539" y="591"/>
      <point x="469" y="636"/>
    </contour>
    <contour>
      <point x="398" y="949" type="line"/>
      <point x="532" y="786" type="line"/>
      <point x="446" y="786" type="line"/>
      <point x="368" y="882" type="line"/>
      <point x="290" y="786" type="line"/>
      <point x="205" y="786" type="line"/>
      <point x="338" y="949" type="line"/>
    </contour>
  </outline>
</glyph>
